<svg width="105" height="55" viewBox="0 0 105 55" fill="none" xmlns="http://www.w3.org/2000/svg">
<path d="M61.7777 39.7843C55.3556 44.4035 47.8212 49.2794 39.677 54.3753L39.3541 54.5586C39.2464 54.6319 39.2106 54.7786 39.2823 54.8885C39.3541 54.9985 39.4976 55.0352 39.6052 54.9619L39.8922 54.8152C46.7808 51.1491 54.7098 46.7498 62.7105 42.2772C62.7464 42.2405 62.7823 42.2405 62.854 42.2039C62.3876 41.4707 62.0289 40.6641 61.7777 39.7843ZM103.683 5.10313C93.6372 -6.22506 28.8419 3.96665 1.32359 10.1257L0.677791 10.2723C0.534279 10.309 0.462524 10.419 0.462524 10.5656C0.498402 10.7122 0.606034 10.7856 0.749545 10.7856L1.39535 10.6756C24.2136 6.49624 71.68 0.740492 81.8693 11.0788C84.9907 14.2317 84.2372 18.301 80.6136 23.1036C82.551 24.3867 83.9502 26.4031 84.5601 28.896C98.696 19.3275 108.168 10.1623 103.683 5.10313Z" fill="#CC2427"/>
</svg>
