<svg width="617" height="35" viewBox="0 0 617 35" fill="none" xmlns="http://www.w3.org/2000/svg">
<path d="M603.41 26.6512V0.623826L605.49 0.346569V16.9473L613.669 9.21877H616.129L607.569 17.3285L616.407 26.6512H613.773L605.49 17.8484V26.6512H603.41Z" fill="white"/>
<path d="M598.595 26.0274C597.07 26.7899 595.407 27.1711 593.604 27.1711C591.155 27.1711 589.261 26.374 587.921 24.7798C586.604 23.1855 585.945 20.9097 585.945 17.9523C585.945 14.9949 586.604 12.7191 587.921 11.1249C589.261 9.50758 591.155 8.69891 593.604 8.69891C595.337 8.69891 596.978 9.08014 598.526 9.84259V11.4715C596.908 10.7552 595.337 10.3971 593.812 10.3971C591.941 10.3971 590.52 11.0325 589.55 12.3032C588.602 13.574 588.129 15.457 588.129 17.9523C588.129 20.4245 588.602 22.296 589.55 23.5668C590.52 24.8375 591.941 25.4729 593.812 25.4729C595.384 25.4729 596.978 25.1148 598.595 24.3985V26.0274Z" fill="white"/>
<path d="M579.411 26.7206L579.273 25.5076C577.286 26.6166 575.322 27.1711 573.381 27.1711C571.602 27.1711 570.193 26.709 569.153 25.7848C568.113 24.8375 567.593 23.5437 567.593 21.9032C567.593 20.1704 568.171 18.8534 569.326 17.9523C570.505 17.0282 572.226 16.5661 574.49 16.5661C575.853 16.5661 577.401 16.7278 579.134 17.0513V14.6946C579.134 11.8065 577.505 10.3624 574.247 10.3624C573.393 10.3624 572.457 10.478 571.44 10.709C570.424 10.9401 569.488 11.2404 568.633 11.6101V9.98122C569.465 9.58844 570.412 9.27653 571.475 9.04548C572.561 8.81444 573.589 8.69891 574.559 8.69891C576.731 8.69891 578.372 9.21877 579.481 10.2585C580.613 11.2751 581.179 12.7538 581.179 14.6946V26.5473L579.411 26.7206ZM573.866 25.5076C574.698 25.5076 575.576 25.3805 576.5 25.1263C577.424 24.8722 578.302 24.5256 579.134 24.0866V18.5415C577.679 18.2642 576.246 18.1256 574.837 18.1256C573.058 18.1256 571.764 18.426 570.955 19.0267C570.146 19.6274 569.742 20.5747 569.742 21.8686C569.742 24.2946 571.117 25.5076 573.866 25.5076Z" fill="white"/>
<path d="M551.212 10.2585C552.09 9.77328 552.98 9.39205 553.881 9.1148C554.805 8.83754 555.66 8.69891 556.445 8.69891C558.71 8.69891 560.489 9.49602 561.783 11.0902C563.076 12.6614 563.723 14.8448 563.723 17.6404C563.723 20.7133 562.984 23.07 561.505 24.7105C560.05 26.3509 557.936 27.1711 555.163 27.1711C553.199 27.1711 551.189 26.8476 549.133 26.2007V0.623826L551.212 0.346569V10.2585ZM556.168 10.3624C555.406 10.3624 554.585 10.4895 553.708 10.7437C552.83 10.9978 551.998 11.3444 551.212 11.7834V24.9531C552.414 25.3227 553.673 25.5076 554.99 25.5076C557.208 25.5076 558.848 24.8722 559.911 23.6014C560.997 22.3076 561.54 20.3321 561.54 17.6751C561.54 15.2953 561.078 13.4816 560.154 12.2339C559.253 10.9863 557.924 10.3624 556.168 10.3624Z" fill="white"/>
<path d="M520.518 26.6512V0.623826L522.597 0.346569V10.2931C524.538 9.23032 526.444 8.69891 528.316 8.69891C530.187 8.69891 531.631 9.18411 532.648 10.1545C533.687 11.1249 534.207 12.4996 534.207 14.2787V26.6512H532.128V14.6253C532.128 11.7834 530.684 10.3624 527.796 10.3624C527.033 10.3624 526.19 10.4895 525.266 10.7437C524.365 10.9978 523.475 11.3444 522.597 11.7834V26.6512H520.518Z" fill="white"/>
<path d="M503.556 24.3639C505.288 25.1263 507.079 25.5076 508.927 25.5076C512.047 25.5076 513.606 24.2946 513.606 21.8686C513.606 21.083 513.375 20.4476 512.913 19.9624C512.474 19.4772 511.735 19.0729 510.695 18.7494L508.061 17.9177C506.582 17.4556 505.508 16.878 504.838 16.1848C504.168 15.4686 503.833 14.5675 503.833 13.4816C503.833 12.026 504.399 10.8708 505.531 10.0159C506.686 9.1379 508.234 8.69891 510.175 8.69891C511.816 8.69891 513.375 9.01083 514.854 9.63465V11.2635C513.306 10.6628 511.781 10.3624 510.279 10.3624C508.916 10.3624 507.842 10.6397 507.056 11.1942C506.294 11.7256 505.912 12.465 505.912 13.4123C505.912 14.0823 506.12 14.6253 506.536 15.0411C506.975 15.4339 507.749 15.8152 508.858 16.1848L511.596 17.0859C513.005 17.548 514.034 18.1603 514.681 18.9227C515.351 19.6852 515.686 20.6556 515.686 21.8339C515.686 23.5437 515.108 24.8606 513.953 25.7848C512.797 26.709 511.169 27.1711 509.066 27.1711C507.125 27.1711 505.381 26.813 503.833 26.0967L503.556 24.3639Z" fill="white"/>
<path d="M497.23 26.7206L497.091 25.5076C495.104 26.6166 493.14 27.1711 491.199 27.1711C489.42 27.1711 488.011 26.709 486.971 25.7848C485.931 24.8375 485.412 23.5437 485.412 21.9032C485.412 20.1704 485.989 18.8534 487.144 17.9523C488.323 17.0282 490.044 16.5661 492.308 16.5661C493.672 16.5661 495.22 16.7278 496.952 17.0513V14.6946C496.952 11.8065 495.324 10.3624 492.066 10.3624C491.211 10.3624 490.275 10.478 489.259 10.709C488.242 10.9401 487.306 11.2404 486.451 11.6101V9.98122C487.283 9.58844 488.23 9.27653 489.293 9.04548C490.379 8.81444 491.407 8.69891 492.378 8.69891C494.55 8.69891 496.19 9.21877 497.299 10.2585C498.431 11.2751 498.997 12.7538 498.997 14.6946V26.5473L497.23 26.7206ZM491.685 25.5076C492.516 25.5076 493.394 25.3805 494.318 25.1263C495.243 24.8722 496.121 24.5256 496.952 24.0866V18.5415C495.497 18.2642 494.064 18.1256 492.655 18.1256C490.876 18.1256 489.582 18.426 488.773 19.0267C487.965 19.6274 487.56 20.5747 487.56 21.8686C487.56 24.2946 488.935 25.5076 491.685 25.5076Z" fill="white"/>
<path d="M481.74 26.0274C480.215 26.7899 478.552 27.1711 476.75 27.1711C474.3 27.1711 472.406 26.374 471.066 24.7798C469.749 23.1855 469.09 20.9097 469.09 17.9523C469.09 14.9949 469.749 12.7191 471.066 11.1249C472.406 9.50758 474.3 8.69891 476.75 8.69891C478.482 8.69891 480.123 9.08014 481.671 9.84259V11.4715C480.053 10.7552 478.482 10.3971 476.957 10.3971C475.086 10.3971 473.665 11.0325 472.695 12.3032C471.747 13.574 471.274 15.457 471.274 17.9523C471.274 20.4245 471.747 22.296 472.695 23.5668C473.665 24.8375 475.086 25.4729 476.957 25.4729C478.529 25.4729 480.123 25.1148 481.74 24.3985V26.0274Z" fill="white"/>
<path d="M453.229 26.6512V14.6253C453.229 11.7834 451.785 10.3624 448.897 10.3624C448.134 10.3624 447.291 10.4895 446.367 10.7437C445.466 10.9978 444.576 11.3444 443.698 11.7834V26.6512H441.619V9.32274L443.386 9.14946L443.525 10.3624C445.535 9.25343 447.499 8.69891 449.417 8.69891C451.288 8.69891 452.732 9.18411 453.749 10.1545C454.789 11.1249 455.308 12.4996 455.308 14.2787V26.6512H453.229Z" fill="white"/>
<path d="M429.359 26.6512V9.32274L431.127 9.14946L431.3 10.709C432.848 9.43826 434.5 8.80288 436.256 8.80288C436.88 8.80288 437.376 8.8722 437.746 9.01083V10.709C437.145 10.5704 436.614 10.5011 436.152 10.5011C434.511 10.5011 432.94 11.0902 431.438 12.2686V26.6512H429.359Z" fill="white"/>
<path d="M421.681 26.7206L421.543 25.5076C419.556 26.6166 417.592 27.1711 415.651 27.1711C413.872 27.1711 412.463 26.709 411.423 25.7848C410.383 24.8375 409.863 23.5437 409.863 21.9032C409.863 20.1704 410.441 18.8534 411.596 17.9523C412.775 17.0282 414.496 16.5661 416.76 16.5661C418.123 16.5661 419.671 16.7278 421.404 17.0513V14.6946C421.404 11.8065 419.775 10.3624 416.517 10.3624C415.663 10.3624 414.727 10.478 413.71 10.709C412.694 10.9401 411.758 11.2404 410.903 11.6101V9.98122C411.735 9.58844 412.682 9.27653 413.745 9.04548C414.831 8.81444 415.859 8.69891 416.829 8.69891C419.001 8.69891 420.642 9.21877 421.751 10.2585C422.883 11.2751 423.449 12.7538 423.449 14.6946V26.5473L421.681 26.7206ZM416.136 25.5076C416.968 25.5076 417.846 25.3805 418.77 25.1263C419.694 24.8722 420.572 24.5256 421.404 24.0866V18.5415C419.949 18.2642 418.516 18.1256 417.107 18.1256C415.328 18.1256 414.034 18.426 413.225 19.0267C412.416 19.6274 412.012 20.5747 412.012 21.8686C412.012 24.2946 413.387 25.5076 416.136 25.5076Z" fill="white"/>
<path d="M405.262 26.0274C403.668 26.7899 401.958 27.1711 400.133 27.1711C397.476 27.1711 395.431 26.3855 393.999 24.8144C392.566 23.2433 391.85 20.9906 391.85 18.0563C391.85 15.1451 392.52 12.8578 393.86 11.1942C395.2 9.53068 397.037 8.69891 399.37 8.69891C401.427 8.69891 403.044 9.34584 404.222 10.6397C405.424 11.9105 406.025 13.6549 406.025 15.8729C406.025 16.7047 405.955 17.5018 405.817 18.2642H393.895C393.918 23.0931 396.055 25.5076 400.306 25.5076C402.016 25.5076 403.668 25.1379 405.262 24.3985V26.0274ZM399.336 10.3278C397.765 10.3278 396.482 10.9054 395.489 12.0606C394.495 13.2159 393.964 14.7639 393.895 16.7047H404.014C404.061 16.335 404.084 16.0115 404.084 15.7343C404.084 14.0245 403.668 12.696 402.836 11.7487C402.004 10.8014 400.838 10.3278 399.336 10.3278Z" fill="white"/>
<path d="M371.333 27.1711C368.815 27.1711 366.909 26.3971 365.615 24.8491C364.344 23.278 363.709 20.9675 363.709 17.9177C363.709 14.891 364.344 12.6036 365.615 11.0556C366.909 9.48447 368.815 8.69891 371.333 8.69891C373.852 8.69891 375.746 9.48447 377.017 11.0556C378.311 12.6036 378.958 14.891 378.958 17.9177C378.958 20.9675 378.311 23.278 377.017 24.8491C375.746 26.3971 373.852 27.1711 371.333 27.1711ZM371.333 25.5076C373.228 25.5076 374.602 24.9068 375.457 23.7054C376.335 22.4809 376.774 20.5516 376.774 17.9177C376.774 15.3069 376.335 13.4007 375.457 12.1993C374.602 10.9747 373.228 10.3624 371.333 10.3624C369.439 10.3624 368.052 10.9747 367.174 12.1993C366.319 13.4007 365.892 15.3069 365.892 17.9177C365.892 20.5516 366.319 22.4809 367.174 23.7054C368.052 24.9068 369.439 25.5076 371.333 25.5076Z" fill="white"/>
<path d="M355.428 10.813V21.9032C355.428 23.1047 355.682 23.9942 356.19 24.5718C356.698 25.1263 357.484 25.4036 358.547 25.4036C359.24 25.4036 360.026 25.2765 360.904 25.0224V26.5473C359.933 26.8707 359.044 27.0325 358.235 27.0325C356.641 27.0325 355.428 26.605 354.596 25.7502C353.764 24.8722 353.348 23.5783 353.348 21.8686V10.813H350.714V9.32274L353.418 9.21877L353.626 4.85199L355.428 4.64404V9.21877H360.661V10.813H355.428Z" fill="white"/>
<path d="M335.858 26.6512V14.6253C335.858 11.7834 334.414 10.3624 331.526 10.3624C330.764 10.3624 329.92 10.4895 328.996 10.7437C328.095 10.9978 327.205 11.3444 326.327 11.7834V26.6512H324.248V9.32274L326.016 9.14946L326.154 10.3624C328.164 9.25343 330.128 8.69891 332.046 8.69891C333.917 8.69891 335.361 9.18411 336.378 10.1545C337.418 11.1249 337.938 12.4996 337.938 14.2787V26.6512H335.858Z" fill="white"/>
<path d="M316.57 26.7206L316.432 25.5076C314.445 26.6166 312.481 27.1711 310.54 27.1711C308.761 27.1711 307.352 26.709 306.312 25.7848C305.272 24.8375 304.752 23.5437 304.752 21.9032C304.752 20.1704 305.33 18.8534 306.485 17.9523C307.664 17.0282 309.385 16.5661 311.649 16.5661C313.012 16.5661 314.56 16.7278 316.293 17.0513V14.6946C316.293 11.8065 314.664 10.3624 311.407 10.3624C310.552 10.3624 309.616 10.478 308.599 10.709C307.583 10.9401 306.647 11.2404 305.792 11.6101V9.98122C306.624 9.58844 307.571 9.27653 308.634 9.04548C309.72 8.81444 310.748 8.69891 311.719 8.69891C313.89 8.69891 315.531 9.21877 316.64 10.2585C317.772 11.2751 318.338 12.7538 318.338 14.6946V26.5473L316.57 26.7206ZM311.025 25.5076C311.857 25.5076 312.735 25.3805 313.659 25.1263C314.583 24.8722 315.461 24.5256 316.293 24.0866V18.5415C314.838 18.2642 313.405 18.1256 311.996 18.1256C310.217 18.1256 308.923 18.426 308.114 19.0267C307.306 19.6274 306.901 20.5747 306.901 21.8686C306.901 24.2946 308.276 25.5076 311.025 25.5076Z" fill="white"/>
<path d="M297.664 26.6512V0.623826L299.743 0.346569V26.6512H297.664Z" fill="white"/>
<path d="M278.059 34.3798V9.32274L279.827 9.14946L279.966 10.3624C281.929 9.25343 283.732 8.69891 285.372 8.69891C287.636 8.69891 289.415 9.49602 290.709 11.0902C292.003 12.6614 292.65 14.8448 292.65 17.6404C292.65 20.7133 291.911 23.07 290.432 24.7105C288.976 26.3509 286.862 27.1711 284.09 27.1711C282.657 27.1711 281.34 26.9863 280.139 26.6166V34.1025L278.059 34.3798ZM285.095 10.3624C284.332 10.3624 283.512 10.4895 282.634 10.7437C281.756 10.9978 280.924 11.3444 280.139 11.7834V24.9531C281.34 25.3227 282.6 25.5076 283.916 25.5076C286.135 25.5076 287.775 24.8722 288.838 23.6014C289.924 22.3076 290.467 20.3321 290.467 17.6751C290.467 15.2953 290.005 13.4816 289.08 12.2339C288.179 10.9863 286.851 10.3624 285.095 10.3624Z" fill="white"/>
<path d="M263.304 26.0274C261.709 26.7899 260 27.1711 258.174 27.1711C255.517 27.1711 253.473 26.3855 252.04 24.8144C250.608 23.2433 249.891 20.9906 249.891 18.0563C249.891 15.1451 250.561 12.8578 251.902 11.1942C253.242 9.53068 255.078 8.69891 257.412 8.69891C259.468 8.69891 261.086 9.34584 262.264 10.6397C263.465 11.9105 264.066 13.6549 264.066 15.8729C264.066 16.7047 263.997 17.5018 263.858 18.2642H251.936C251.959 23.0931 254.096 25.5076 258.348 25.5076C260.057 25.5076 261.709 25.1379 263.304 24.3985V26.0274ZM257.377 10.3278C255.806 10.3278 254.524 10.9054 253.53 12.0606C252.537 13.2159 252.006 14.7639 251.936 16.7047H262.056C262.102 16.335 262.125 16.0115 262.125 15.7343C262.125 14.0245 261.709 12.696 260.878 11.7487C260.046 10.8014 258.879 10.3278 257.377 10.3278Z" fill="white"/>
<path d="M243.021 26.6512V14.2787C243.021 11.6679 241.785 10.3624 239.313 10.3624C237.88 10.3624 236.24 10.8823 234.391 11.922C234.576 12.5458 234.669 13.2159 234.669 13.9321V26.6512H232.589V14.2787C232.589 11.6679 231.353 10.3624 228.881 10.3624C227.495 10.3624 225.947 10.8361 224.237 11.7834V26.6512H222.157V9.32274L223.925 9.14946L224.064 10.3624C226.027 9.25343 227.807 8.69891 229.401 8.69891C231.434 8.69891 232.901 9.36895 233.802 10.709C236.043 9.36895 238.053 8.69891 239.832 8.69891C241.519 8.69891 242.813 9.14945 243.714 10.0505C244.638 10.9516 245.1 12.2455 245.1 13.9321V26.6512H243.021Z" fill="white"/>
<path d="M214.48 26.7206L214.341 25.5076C212.354 26.6166 210.39 27.1711 208.449 27.1711C206.67 27.1711 205.261 26.709 204.221 25.7848C203.182 24.8375 202.662 23.5437 202.662 21.9032C202.662 20.1704 203.239 18.8534 204.395 17.9523C205.573 17.0282 207.294 16.5661 209.559 16.5661C210.922 16.5661 212.47 16.7278 214.203 17.0513V14.6946C214.203 11.8065 212.574 10.3624 209.316 10.3624C208.461 10.3624 207.525 10.478 206.509 10.709C205.492 10.9401 204.556 11.2404 203.701 11.6101V9.98122C204.533 9.58844 205.481 9.27653 206.543 9.04548C207.629 8.81444 208.657 8.69891 209.628 8.69891C211.8 8.69891 213.44 9.21877 214.549 10.2585C215.681 11.2751 216.247 12.7538 216.247 14.6946V26.5473L214.48 26.7206ZM208.935 25.5076C209.766 25.5076 210.644 25.3805 211.569 25.1263C212.493 24.8722 213.371 24.5256 214.203 24.0866V18.5415C212.747 18.2642 211.314 18.1256 209.905 18.1256C208.126 18.1256 206.832 18.426 206.023 19.0267C205.215 19.6274 204.81 20.5747 204.81 21.8686C204.81 24.2946 206.185 25.5076 208.935 25.5076Z" fill="white"/>
<path d="M189.885 34.7263C187.829 34.7263 186.084 34.3682 184.652 33.652L184.374 31.8845C186.269 32.67 188.071 33.0628 189.781 33.0628C193.639 33.0628 195.569 31.2722 195.569 27.691V25.2996C194.691 25.7848 193.79 26.166 192.865 26.4433C191.964 26.7206 191.121 26.8592 190.336 26.8592C188.071 26.8592 186.292 26.0967 184.998 24.5718C183.704 23.0469 183.058 20.9328 183.058 18.2296C183.058 15.1567 183.785 12.8 185.241 11.1596C186.72 9.51913 188.845 8.69891 191.618 8.69891C193.72 8.69891 195.73 9.06859 197.648 9.80794V27.5177C197.648 29.8281 196.978 31.6072 195.638 32.8549C194.298 34.1025 192.38 34.7263 189.885 34.7263ZM190.613 25.1957C191.375 25.1957 192.195 25.0686 193.073 24.8144C193.951 24.5603 194.783 24.2137 195.569 23.7747V10.917C194.367 10.5473 193.108 10.3624 191.791 10.3624C189.573 10.3624 187.921 11.0094 186.835 12.3032C185.772 13.574 185.241 15.5379 185.241 18.1949C185.241 20.4823 185.691 22.2267 186.593 23.4281C187.517 24.6065 188.857 25.1957 190.613 25.1957Z" fill="white"/>
<path d="M165.766 10.813V21.9032C165.766 23.1047 166.02 23.9942 166.528 24.5718C167.037 25.1263 167.822 25.4036 168.885 25.4036C169.578 25.4036 170.364 25.2765 171.242 25.0224V26.5473C170.271 26.8707 169.382 27.0325 168.573 27.0325C166.979 27.0325 165.766 26.605 164.934 25.7502C164.102 24.8722 163.686 23.5783 163.686 21.8686V10.813H161.052V9.32274L163.756 9.21877L163.964 4.85199L165.766 4.64404V9.21877H170.999V10.813H165.766Z" fill="white"/>
<path d="M158.386 26.0274C156.861 26.7899 155.198 27.1711 153.395 27.1711C150.946 27.1711 149.052 26.374 147.712 24.7798C146.395 23.1855 145.736 20.9097 145.736 17.9523C145.736 14.9949 146.395 12.7191 147.712 11.1249C149.052 9.50758 150.946 8.69891 153.395 8.69891C155.128 8.69891 156.769 9.08014 158.317 9.84259V11.4715C156.699 10.7552 155.128 10.3971 153.603 10.3971C151.732 10.3971 150.311 11.0325 149.341 12.3032C148.393 13.574 147.92 15.457 147.92 17.9523C147.92 20.4245 148.393 22.296 149.341 23.5668C150.311 24.8375 151.732 25.4729 153.603 25.4729C155.175 25.4729 156.769 25.1148 158.386 24.3985V26.0274Z" fill="white"/>
<path d="M141.135 26.0274C139.541 26.7899 137.831 27.1711 136.006 27.1711C133.349 27.1711 131.304 26.3855 129.871 24.8144C128.439 23.2433 127.723 20.9906 127.723 18.0563C127.723 15.1451 128.393 12.8578 129.733 11.1942C131.073 9.53068 132.91 8.69891 135.243 8.69891C137.3 8.69891 138.917 9.34584 140.095 10.6397C141.297 11.9105 141.897 13.6549 141.897 15.8729C141.897 16.7047 141.828 17.5018 141.689 18.2642H129.767C129.791 23.0931 131.928 25.5076 136.179 25.5076C137.889 25.5076 139.541 25.1379 141.135 24.3985V26.0274ZM135.209 10.3278C133.638 10.3278 132.355 10.9054 131.362 12.0606C130.368 13.2159 129.837 14.7639 129.767 16.7047H139.887C139.934 16.335 139.957 16.0115 139.957 15.7343C139.957 14.0245 139.541 12.696 138.709 11.7487C137.877 10.8014 136.71 10.3278 135.209 10.3278Z" fill="white"/>
<path d="M118.242 26.6512V10.813H115.608V9.32274L118.242 9.21877V5.30252C118.242 3.59278 118.658 2.28736 119.49 1.38628C120.345 0.462094 121.581 0 123.198 0C124.076 0 124.966 0.161733 125.867 0.485198V2.01011C125.035 1.75596 124.238 1.62888 123.476 1.62888C122.39 1.62888 121.593 1.91769 121.084 2.49531C120.576 3.04982 120.322 3.9278 120.322 5.12924V9.21877H125.001V10.813H120.322V26.6512H118.242Z" fill="white"/>
<path d="M104.82 26.6512V9.32274L106.588 9.14946L106.761 10.709C108.309 9.43826 109.961 8.80288 111.717 8.80288C112.341 8.80288 112.838 8.8722 113.207 9.01083V10.709C112.607 10.5704 112.075 10.5011 111.613 10.5011C109.973 10.5011 108.402 11.0902 106.9 12.2686V26.6512H104.82Z" fill="white"/>
<path d="M99.0755 26.0274C97.4812 26.7899 95.7715 27.1711 93.9462 27.1711C91.2892 27.1711 89.2444 26.3855 87.8119 24.8144C86.3795 23.2433 85.6632 20.9906 85.6632 18.0563C85.6632 15.1451 86.3332 12.8578 87.6733 11.1942C89.0134 9.53068 90.8502 8.69891 93.1838 8.69891C95.2401 8.69891 96.8574 9.34584 98.0358 10.6397C99.2372 11.9105 99.8379 13.6549 99.8379 15.8729C99.8379 16.7047 99.7686 17.5018 99.63 18.2642H87.708C87.7311 23.0931 89.8683 25.5076 94.1195 25.5076C95.8293 25.5076 97.4812 25.1379 99.0755 24.3985V26.0274ZM93.1491 10.3278C91.578 10.3278 90.2957 10.9054 89.3022 12.0606C88.3087 13.2159 87.7773 14.7639 87.708 16.7047H97.8278C97.874 16.335 97.8971 16.0115 97.8971 15.7343C97.8971 14.0245 97.4813 12.696 96.6495 11.7487C95.8177 10.8014 94.6509 10.3278 93.1491 10.3278Z" fill="white"/>
<path d="M67.2026 34.3798V9.32274L68.9701 9.14946L69.1088 10.3624C71.0727 9.25343 72.8748 8.69891 74.5153 8.69891C76.7795 8.69891 78.5586 9.49602 79.8525 11.0902C81.1463 12.6614 81.7932 14.8448 81.7932 17.6404C81.7932 20.7133 81.0539 23.07 79.5752 24.7105C78.1196 26.3509 76.0055 27.1711 73.233 27.1711C71.8005 27.1711 70.4835 26.9863 69.2821 26.6166V34.1025L67.2026 34.3798ZM74.238 10.3624C73.4756 10.3624 72.6553 10.4895 71.7774 10.7437C70.8994 10.9978 70.0676 11.3444 69.2821 11.7834V24.9531C70.4835 25.3227 71.7427 25.5076 73.0597 25.5076C75.2777 25.5076 76.9182 24.8722 77.981 23.6014C79.0669 22.3076 79.6099 20.3321 79.6099 17.6751C79.6099 15.2953 79.1478 13.4816 78.2236 12.2339C77.3225 10.9863 75.994 10.3624 74.238 10.3624Z" fill="white"/>
<path d="M52.4469 26.0274C50.8526 26.7899 49.1429 27.1711 47.3176 27.1711C44.6606 27.1711 42.6158 26.3855 41.1833 24.8144C39.7509 23.2433 39.0346 20.9906 39.0346 18.0563C39.0346 15.1451 39.7046 12.8578 41.0447 11.1942C42.3848 9.53068 44.2216 8.69891 46.5552 8.69891C48.6115 8.69891 50.2288 9.34584 51.4072 10.6397C52.6086 11.9105 53.2093 13.6549 53.2093 15.8729C53.2093 16.7047 53.14 17.5018 53.0014 18.2642H41.0794C41.1025 23.0931 43.2397 25.5076 47.4909 25.5076C49.2007 25.5076 50.8526 25.1379 52.4469 24.3985V26.0274ZM46.5205 10.3278C44.9494 10.3278 43.6671 10.9054 42.6736 12.0606C41.6801 13.2159 41.1487 14.7639 41.0794 16.7047H51.1992C51.2454 16.335 51.2685 16.0115 51.2685 15.7343C51.2685 14.0245 50.8526 12.696 50.0209 11.7487C49.1891 10.8014 48.0223 10.3278 46.5205 10.3278Z" fill="white"/>
<path d="M20.5741 26.6512V0.623826L22.6535 0.346569V10.2931C24.5943 9.23032 26.5004 8.69891 28.3719 8.69891C30.2434 8.69891 31.6874 9.18411 32.704 10.1545C33.7437 11.1249 34.2636 12.4996 34.2636 14.2787V26.6512H32.1842V14.6253C32.1842 11.7834 30.7401 10.3624 27.852 10.3624C27.0896 10.3624 26.2463 10.4895 25.3221 10.7437C24.421 10.9978 23.5315 11.3444 22.6535 11.7834V26.6512H20.5741Z" fill="white"/>
<path d="M7.31263 26.6512V4.15884H0V2.39133H16.8087V4.15884H9.49602V26.6512H7.31263Z" fill="white"/>
</svg>
