<svg width="356" height="76" viewBox="0 0 356 76" fill="none" xmlns="http://www.w3.org/2000/svg">
<path d="M334.871 67.3781C333.366 68.12 331.685 68.491 329.831 68.491C327.125 68.491 325.063 67.7382 323.644 66.2325C322.226 64.7268 321.517 62.5229 321.517 59.6207C321.517 57.8314 321.833 56.2821 322.466 54.9728C323.099 53.6417 323.983 52.627 325.117 51.9287C326.252 51.2305 327.55 50.8813 329.012 50.8813C331.063 50.8813 332.678 51.4923 333.857 52.7143C335.035 53.9363 335.624 55.6274 335.624 57.7877C335.624 58.6387 335.548 59.4788 335.395 60.3081H324.561C324.626 64.1704 326.503 66.1016 330.191 66.1016C331.784 66.1016 333.344 65.7524 334.871 65.0542V67.3781ZM329.012 53.1398C327.747 53.1398 326.71 53.5871 325.903 54.4818C325.117 55.3765 324.67 56.5875 324.561 58.115H332.776C332.798 58.0059 332.809 57.8968 332.809 57.7877C332.809 57.6786 332.809 57.5695 332.809 57.4604C332.809 56.1075 332.471 55.0492 331.794 54.2854C331.14 53.5217 330.212 53.1398 329.012 53.1398Z" fill="white"/>
<path d="M306.458 64.956C308.203 65.7197 309.949 66.1016 311.695 66.1016C312.96 66.1016 313.92 65.8615 314.575 65.3815C315.252 64.9014 315.59 64.214 315.59 63.3194C315.59 62.7302 315.404 62.2501 315.033 61.8792C314.662 61.5082 314.051 61.1918 313.2 60.93L310.975 60.2426C309.491 59.7843 308.411 59.1952 307.734 58.4751C307.058 57.755 306.719 56.8385 306.719 55.7256C306.719 54.2418 307.298 53.0634 308.454 52.1906C309.611 51.3177 311.171 50.8813 313.135 50.8813C314.793 50.8813 316.375 51.2086 317.881 51.8633V54.22C316.223 53.5871 314.706 53.2707 313.331 53.2707C312.218 53.2707 311.346 53.4889 310.713 53.9254C310.102 54.34 309.796 54.9073 309.796 55.6274C309.796 56.1511 309.96 56.5657 310.287 56.8712C310.615 57.1549 311.226 57.4386 312.12 57.7222L314.608 58.4751C317.314 59.2825 318.667 60.8863 318.667 63.2866C318.667 64.9669 318.088 66.2543 316.932 67.149C315.775 68.0436 314.106 68.491 311.924 68.491C309.894 68.491 308.192 68.1528 306.818 67.4763L306.458 64.956Z" fill="white"/>
<path d="M300.332 68.0655L300.135 66.9199C298.302 67.9673 296.524 68.491 294.8 68.491C293.076 68.491 291.701 68.0327 290.676 67.1162C289.672 66.1779 289.17 64.9232 289.17 63.3521C289.17 61.7155 289.737 60.4499 290.872 59.5552C292.007 58.6387 293.6 58.1805 295.651 58.1805C296.851 58.1805 298.237 58.3223 299.808 58.606V56.8712C299.808 55.6711 299.459 54.7764 298.761 54.1872C298.084 53.598 297.037 53.3035 295.618 53.3035C293.96 53.3035 292.149 53.6853 290.185 54.4491V52.0597C291.101 51.6887 292.094 51.405 293.163 51.2086C294.233 50.9904 295.247 50.8813 296.207 50.8813C298.368 50.8813 300.004 51.3832 301.117 52.387C302.252 53.3907 302.819 54.8637 302.819 56.8058V67.8036L300.332 68.0655ZM295.586 66.1016C296.218 66.1016 296.928 65.9925 297.713 65.7743C298.499 65.556 299.197 65.2724 299.808 64.9232V60.7336C298.782 60.4717 297.571 60.3408 296.175 60.3408C294.865 60.3408 293.894 60.5917 293.262 61.0936C292.651 61.5737 292.345 62.3047 292.345 63.2866C292.345 65.1633 293.425 66.1016 295.586 66.1016Z" fill="white"/>
<path d="M271.579 68V43.4185L274.656 43.0584V52.2233C276.336 51.3286 277.984 50.8813 279.598 50.8813C281.41 50.8813 282.806 51.3614 283.788 52.3215C284.792 53.2598 285.294 54.6018 285.294 56.3475V68H282.217V56.8057C282.217 54.4709 281.06 53.3035 278.747 53.3035C278.136 53.3035 277.449 53.4126 276.685 53.6308C275.943 53.8272 275.267 54.0999 274.656 54.4491V68H271.579Z" fill="white"/>
<path d="M267.79 67.4108C266.285 68.1309 264.615 68.491 262.782 68.491C260.382 68.491 258.527 67.7272 257.218 66.1998C255.909 64.6723 255.254 62.512 255.254 59.7189C255.254 56.904 255.909 54.7327 257.218 53.2053C258.549 51.656 260.415 50.8813 262.815 50.8813C264.495 50.8813 266.121 51.2414 267.692 51.9615V54.3181C266.187 53.6635 264.746 53.3362 263.372 53.3362C261.757 53.3362 260.535 53.8708 259.706 54.94C258.876 56.0093 258.462 57.5913 258.462 59.6861C258.462 61.7592 258.876 63.3412 259.706 64.4323C260.535 65.5015 261.757 66.0361 263.372 66.0361C264.746 66.0361 266.219 65.7088 267.79 65.0542V67.4108Z" fill="white"/>
<path d="M244.601 68V51.5687L247.089 51.3068L247.351 52.8125C248.791 51.5905 250.329 50.9795 251.966 50.9795C252.468 50.9795 252.969 51.0559 253.471 51.2086V53.729C252.948 53.598 252.413 53.5326 251.868 53.5326C250.296 53.5326 248.9 54.0236 247.678 55.0055V68H244.601Z" fill="white"/>
<path d="M237.154 68.0655L236.957 66.9199C235.168 67.9673 233.39 68.491 231.622 68.491C229.855 68.491 228.48 68.0109 227.498 67.0508C226.516 66.0907 226.025 64.7487 226.025 63.0248V51.3723H229.102V62.5665C229.102 64.9014 230.226 66.0688 232.473 66.0688C233.106 66.0688 233.793 65.9706 234.535 65.7742C235.277 65.556 235.954 65.2724 236.565 64.9232V51.3723H239.641V67.8036L237.154 68.0655Z" fill="white"/>
<path d="M207.682 75.3974V51.5687L210.17 51.3068L210.366 52.4524C212.09 51.405 213.759 50.8813 215.374 50.8813C217.512 50.8813 219.182 51.6451 220.382 53.1725C221.604 54.6782 222.215 56.7621 222.215 59.4243C222.215 62.3047 221.506 64.5414 220.087 66.1343C218.669 67.7054 216.672 68.491 214.097 68.491C212.854 68.491 211.741 68.3382 210.759 68.0327V75.0373L207.682 75.3974ZM214.654 53.3035C214.065 53.3035 213.41 53.4126 212.69 53.6308C211.992 53.8272 211.348 54.0999 210.759 54.4491V65.7088C211.675 65.9706 212.646 66.1016 213.672 66.1016C215.461 66.1016 216.792 65.556 217.665 64.465C218.56 63.3739 219.007 61.7155 219.007 59.4898C219.007 57.4604 218.636 55.922 217.894 54.8746C217.174 53.8272 216.094 53.3035 214.654 53.3035Z" fill="white"/>
<path d="M181.745 72.7788C182.792 72.6043 183.654 72.3533 184.33 72.026C185.029 71.6987 185.64 71.2295 186.163 70.6185C186.687 70.0075 187.189 69.1893 187.669 68.1637L181.417 51.3723H184.691L189.175 64.6941L193.659 51.3723H196.801L190.779 67.3781C190.124 69.1238 189.448 70.5203 188.749 71.5678C188.051 72.637 187.222 73.4662 186.262 74.0554C185.302 74.6664 184.036 75.1355 182.465 75.4628L181.745 72.7788Z" fill="white"/>
<path d="M170.923 68V51.5687L173.41 51.3068L173.672 52.8125C175.112 51.5905 176.651 50.9795 178.287 50.9795C178.789 50.9795 179.291 51.0559 179.793 51.2086V53.729C179.269 53.598 178.735 53.5326 178.189 53.5326C176.618 53.5326 175.221 54.0236 174 55.0055V68H170.923Z" fill="white"/>
<path d="M166.162 67.3781C164.657 68.12 162.976 68.491 161.122 68.491C158.416 68.491 156.354 67.7382 154.935 66.2325C153.517 64.7268 152.808 62.5229 152.808 59.6207C152.808 57.8314 153.124 56.2821 153.757 54.9728C154.39 53.6417 155.274 52.627 156.408 51.9287C157.543 51.2305 158.841 50.8813 160.303 50.8813C162.354 50.8813 163.969 51.4923 165.148 52.7143C166.326 53.9363 166.915 55.6274 166.915 57.7877C166.915 58.6387 166.839 59.4788 166.686 60.3081H155.852C155.917 64.1704 157.794 66.1016 161.482 66.1016C163.075 66.1016 164.635 65.7524 166.162 65.0542V67.3781ZM160.303 53.1398C159.038 53.1398 158.001 53.5871 157.194 54.4818C156.408 55.3765 155.961 56.5875 155.852 58.115H164.067C164.089 58.0059 164.1 57.8968 164.1 57.7877C164.1 57.6786 164.1 57.5695 164.1 57.4604C164.1 56.1075 163.762 55.0492 163.085 54.2854C162.431 53.5217 161.503 53.1398 160.303 53.1398Z" fill="white"/>
<path d="M142.214 68L136.028 51.3723H139.301L143.752 64.6286L148.269 51.3723H151.412L145.16 68H142.214Z" fill="white"/>
<path d="M133.558 67.3781C132.053 68.12 130.373 68.491 128.518 68.491C125.812 68.491 123.75 67.7382 122.331 66.2325C120.913 64.7268 120.204 62.5229 120.204 59.6207C120.204 57.8314 120.52 56.2821 121.153 54.9728C121.786 53.6417 122.67 52.627 123.804 51.9287C124.939 51.2305 126.237 50.8813 127.699 50.8813C129.751 50.8813 131.365 51.4923 132.544 52.7143C133.722 53.9363 134.311 55.6274 134.311 57.7877C134.311 58.6387 134.235 59.4788 134.082 60.3081H123.248C123.313 64.1704 125.19 66.1016 128.878 66.1016C130.471 66.1016 132.031 65.7524 133.558 65.0542V67.3781ZM127.699 53.1398C126.434 53.1398 125.397 53.5871 124.59 54.4818C123.804 55.3765 123.357 56.5875 123.248 58.115H131.464C131.485 58.0059 131.496 57.8968 131.496 57.7877C131.496 57.6786 131.496 57.5695 131.496 57.4604C131.496 56.1075 131.158 55.0492 130.482 54.2854C129.827 53.5217 128.9 53.1398 127.699 53.1398Z" fill="white"/>
<path d="M105.133 68V56.8058C105.133 54.4709 103.977 53.3035 101.664 53.3035C101.053 53.3035 100.365 53.4126 99.6016 53.6308C98.8597 53.8272 98.1832 54.0999 97.5722 54.4491V68H94.4954V51.5687L96.983 51.3068L97.1794 52.4524C98.9688 51.405 100.747 50.8813 102.515 50.8813C104.326 50.8813 105.722 51.3614 106.704 52.3215C107.708 53.2598 108.21 54.6018 108.21 56.3475V68H105.133Z" fill="white"/>
<path d="M82.9506 66.0688C84.478 66.0688 85.58 65.567 86.2565 64.5632C86.9547 63.5594 87.3039 61.9337 87.3039 59.6861C87.3039 57.4386 86.9547 55.8129 86.2565 54.8091C85.58 53.8053 84.478 53.3035 82.9506 53.3035C81.4231 53.3035 80.3102 53.8053 79.6119 54.8091C78.9355 55.8129 78.5972 57.4386 78.5972 59.6861C78.5972 61.9337 78.9355 63.5594 79.6119 64.5632C80.3102 65.567 81.4231 66.0688 82.9506 66.0688ZM82.9506 68.491C80.4629 68.491 78.5754 67.7491 77.288 66.2652C76.0223 64.7596 75.3895 62.5665 75.3895 59.6861C75.3895 56.8058 76.0223 54.6236 77.288 53.1398C78.5754 51.6341 80.4629 50.8813 82.9506 50.8813C85.4382 50.8813 87.3148 51.6341 88.5804 53.1398C89.8679 54.6236 90.5116 56.8058 90.5116 59.6861C90.5116 62.5665 89.8679 64.7596 88.5804 66.2652C87.3148 67.7491 85.4382 68.491 82.9506 68.491Z" fill="white"/>
<path d="M51.8867 68V43.4185L54.9634 43.0584V58.5078L61.8044 51.3723H65.3394L57.9093 59.097L65.6994 68H61.968L54.9634 59.8498V68H51.8867Z" fill="white"/>
<path d="M48.098 67.4108C46.5923 68.1309 44.923 68.491 43.09 68.491C40.6897 68.491 38.8349 67.7272 37.5256 66.1998C36.2163 64.6723 35.5617 62.512 35.5617 59.7189C35.5617 56.904 36.2163 54.7327 37.5256 53.2053C38.8567 51.656 40.7224 50.8813 43.1227 50.8813C44.803 50.8813 46.4286 51.2414 47.9998 51.9615V54.3181C46.4941 53.6635 45.0539 53.3362 43.6792 53.3362C42.0644 53.3362 40.8424 53.8708 40.0132 54.94C39.184 56.0093 38.7694 57.5913 38.7694 59.6861C38.7694 61.7592 39.184 63.3412 40.0132 64.4323C40.8424 65.5015 42.0644 66.0361 43.6792 66.0361C45.0539 66.0361 46.5268 65.7088 48.098 65.0542V67.4108Z" fill="white"/>
<path d="M29.2721 68.0655L29.0757 66.9199C27.2427 67.9673 25.4643 68.491 23.7405 68.491C22.0166 68.491 20.6418 68.0327 19.6163 67.1162C18.6125 66.1779 18.1106 64.9232 18.1106 63.3521C18.1106 61.7155 18.6779 60.4499 19.8126 59.5552C20.9473 58.6387 22.5403 58.1805 24.5915 58.1805C25.7916 58.1805 27.1773 58.3223 28.7484 58.606V56.8712C28.7484 55.6711 28.3993 54.7764 27.701 54.1872C27.0245 53.598 25.9771 53.3035 24.5587 53.3035C22.9003 53.3035 21.0892 53.6853 19.1253 54.4491V52.0597C20.0418 51.6887 21.0346 51.405 22.1039 51.2086C23.1731 50.9904 24.1878 50.8813 25.1479 50.8813C27.3082 50.8813 28.9448 51.3832 30.0577 52.387C31.1924 53.3907 31.7597 54.8637 31.7597 56.8058V67.8036L29.2721 68.0655ZM24.526 66.1016C25.1588 66.1016 25.868 65.9925 26.6536 65.7743C27.4391 65.556 28.1374 65.2724 28.7484 64.9232V60.7336C27.7228 60.4717 26.5117 60.3408 25.1152 60.3408C23.8059 60.3408 22.8349 60.5917 22.2021 61.0936C21.5911 61.5737 21.2856 62.3047 21.2856 63.2866C21.2856 65.1633 22.3657 66.1016 24.526 66.1016Z" fill="white"/>
<path d="M3.56439 52.1906C5.20098 51.3177 6.73937 50.8813 8.17957 50.8813C10.318 50.8813 11.9874 51.645 13.1875 53.1725C14.4095 54.6782 15.0205 56.7621 15.0205 59.4243C15.0205 62.3483 14.2786 64.5959 12.7947 66.167C11.3109 67.7163 9.19425 68.491 6.44478 68.491C4.48088 68.491 2.49516 68.2073 0.48761 67.64V43.4185L3.56439 43.0584V52.1906ZM7.45947 53.3035C6.8703 53.3035 6.21566 53.4126 5.49556 53.6308C4.79729 53.8272 4.15356 54.0999 3.56439 54.4491V65.7088C4.48088 65.9706 5.45192 66.1016 6.47752 66.1016C8.26685 66.1016 9.59794 65.556 10.4708 64.465C11.3655 63.3739 11.8128 61.7155 11.8128 59.4898C11.8128 57.4604 11.4418 55.922 10.6999 54.8746C9.97981 53.8272 8.89966 53.3035 7.45947 53.3035Z" fill="white"/>
<path d="M342.285 25V0.418474L345.362 0.0584259V9.22331C347.042 8.32864 348.689 7.88131 350.304 7.88131C352.115 7.88131 353.512 8.36137 354.494 9.3215C355.497 10.2598 355.999 11.6018 355.999 13.3475V25H352.923V13.8057C352.923 11.4709 351.766 10.3035 349.453 10.3035C348.842 10.3035 348.155 10.4126 347.391 10.6308C346.649 10.8272 345.973 11.0999 345.362 11.4491V25H342.285Z" fill="white"/>
<path d="M326.244 21.956C327.989 22.7197 329.735 23.1016 331.481 23.1016C332.746 23.1016 333.706 22.8615 334.361 22.3815C335.038 21.9014 335.376 21.214 335.376 20.3194C335.376 19.7302 335.19 19.2501 334.819 18.8792C334.448 18.5082 333.837 18.1918 332.986 17.93L330.761 17.2426C329.277 16.7843 328.197 16.1952 327.52 15.4751C326.844 14.755 326.505 13.8385 326.505 12.7256C326.505 11.2418 327.084 10.0634 328.24 9.19059C329.397 8.31774 330.957 7.88132 332.921 7.88132C334.579 7.88132 336.161 8.20863 337.667 8.86327V11.22C336.009 10.5871 334.492 10.2707 333.117 10.2707C332.004 10.2707 331.132 10.4889 330.499 10.9254C329.888 11.34 329.582 11.9073 329.582 12.6274C329.582 13.1511 329.746 13.5657 330.073 13.8712C330.401 14.1549 331.012 14.4386 331.906 14.7222L334.394 15.4751C337.1 16.2825 338.453 17.8863 338.453 20.2866C338.453 21.9669 337.874 23.2543 336.718 24.149C335.561 25.0437 333.892 25.491 331.71 25.491C329.68 25.491 327.978 25.1528 326.604 24.4763L326.244 21.956Z" fill="white"/>
<path d="M320.118 25.0655L319.921 23.9199C318.088 24.9673 316.31 25.491 314.586 25.491C312.862 25.491 311.488 25.0327 310.462 24.1163C309.458 23.1779 308.956 21.9232 308.956 20.3521C308.956 18.7155 309.524 17.4499 310.658 16.5552C311.793 15.6387 313.386 15.1805 315.437 15.1805C316.637 15.1805 318.023 15.3223 319.594 15.606V13.8712C319.594 12.6711 319.245 11.7764 318.547 11.1872C317.87 10.598 316.823 10.3035 315.404 10.3035C313.746 10.3035 311.935 10.6853 309.971 11.4491V9.05966C310.887 8.6887 311.88 8.40502 312.95 8.20863C314.019 7.99042 315.033 7.88132 315.994 7.88132C318.154 7.88132 319.79 8.3832 320.903 9.38698C322.038 10.3907 322.605 11.8637 322.605 13.8058V24.8036L320.118 25.0655ZM315.372 23.1016C316.005 23.1016 316.714 22.9925 317.499 22.7743C318.285 22.556 318.983 22.2724 319.594 21.9232V17.7336C318.568 17.4717 317.357 17.3408 315.961 17.3408C314.652 17.3408 313.681 17.5917 313.048 18.0936C312.437 18.5737 312.131 19.3047 312.131 20.2866C312.131 22.1633 313.211 23.1016 315.372 23.1016Z" fill="white"/>
<path d="M306.084 24.4108C304.578 25.1309 302.909 25.491 301.076 25.491C298.676 25.491 296.821 24.7272 295.512 23.1998C294.202 21.6723 293.548 19.512 293.548 16.7189C293.548 13.904 294.202 11.7327 295.512 10.2053C296.843 8.65597 298.708 7.88132 301.109 7.88132C302.789 7.88132 304.415 8.24137 305.986 8.96146V11.3181C304.48 10.6635 303.04 10.3362 301.665 10.3362C300.05 10.3362 298.828 10.8708 297.999 11.9401C297.17 13.0093 296.755 14.5913 296.755 16.6862C296.755 18.7592 297.17 20.3412 297.999 21.4323C298.828 22.5015 300.05 23.0361 301.665 23.0361C303.04 23.0361 304.513 22.7088 306.084 22.0542V24.4108Z" fill="white"/>
<path d="M261.54 25L273.291 2.57877H276.008L264.257 25H261.54ZM260.231 14.8532C261.191 14.8532 261.889 14.4386 262.326 13.6094C262.762 12.7583 262.98 11.3945 262.98 9.51789C262.98 7.64128 262.762 6.28836 262.326 5.45916C261.889 4.60813 261.191 4.18262 260.231 4.18262C259.271 4.18262 258.573 4.60813 258.136 5.45916C257.7 6.28836 257.482 7.64128 257.482 9.51789C257.482 11.3945 257.7 12.7583 258.136 13.6094C258.573 14.4386 259.271 14.8532 260.231 14.8532ZM260.231 16.7843C258.463 16.7843 257.111 16.1624 256.172 14.9186C255.234 13.653 254.765 11.8528 254.765 9.51789C254.765 7.18303 255.234 5.39369 256.172 4.14989C257.111 2.88426 258.463 2.25145 260.231 2.25145C261.999 2.25145 263.351 2.88426 264.29 4.14989C265.228 5.39369 265.697 7.18303 265.697 9.51789C265.697 11.8528 265.228 13.653 264.29 14.9186C263.351 16.1624 261.999 16.7843 260.231 16.7843ZM277.317 23.3961C278.277 23.3961 278.975 22.9815 279.412 22.1523C279.848 21.3013 280.066 19.9375 280.066 18.0609C280.066 16.1843 279.848 14.8313 279.412 14.0021C278.975 13.1511 278.277 12.7256 277.317 12.7256C276.357 12.7256 275.659 13.1511 275.222 14.0021C274.786 14.8313 274.567 16.1843 274.567 18.0609C274.567 19.9375 274.786 21.3013 275.222 22.1523C275.659 22.9815 276.357 23.3961 277.317 23.3961ZM277.317 25.3273C275.549 25.3273 274.197 24.7054 273.258 23.4616C272.32 22.196 271.851 20.3957 271.851 18.0609C271.851 15.726 272.32 13.9367 273.258 12.6929C274.197 11.4272 275.549 10.7944 277.317 10.7944C279.084 10.7944 280.437 11.4272 281.376 12.6929C282.314 13.9367 282.783 15.726 282.783 18.0609C282.783 20.3957 282.314 22.196 281.376 23.4616C280.437 24.7054 279.084 25.3273 277.317 25.3273Z" fill="white"/>
<path d="M237.477 21.6286C239.463 22.5669 241.416 23.0361 243.336 23.0361C245.147 23.0361 246.544 22.5997 247.526 21.7268C248.508 20.8322 248.999 19.5774 248.999 17.9627C248.999 16.5007 248.584 15.366 247.755 14.5586C246.948 13.7512 245.791 13.3475 244.285 13.3475C243.5 13.3475 242.703 13.4566 241.896 13.6748C241.111 13.8712 240.423 14.1549 239.834 14.5259L238.328 13.5112L239.376 2.57877H247.788C248.966 2.57877 250.046 2.53513 251.028 2.44785V5.16458H241.896L241.274 11.8746C241.82 11.6345 242.442 11.4382 243.14 11.2854C243.838 11.1327 244.515 11.0563 245.169 11.0563C247.308 11.0563 249.01 11.6891 250.275 12.9547C251.563 14.2204 252.207 15.9006 252.207 17.9954C252.207 19.5447 251.847 20.8867 251.126 22.0214C250.428 23.1343 249.435 23.9962 248.148 24.6072C246.882 25.1964 245.42 25.491 243.762 25.491C242.693 25.491 241.634 25.3819 240.587 25.1637C239.539 24.9455 238.634 24.6509 237.87 24.2799L237.477 21.6286Z" fill="white"/>
<path d="M232.483 25.1637C231.894 25.1637 231.414 24.9782 231.043 24.6072C230.672 24.2363 230.486 23.7562 230.486 23.167C230.486 22.5778 230.672 22.0978 231.043 21.7268C231.414 21.3559 231.894 21.1704 232.483 21.1704C233.072 21.1704 233.552 21.3559 233.923 21.7268C234.294 22.0978 234.48 22.5778 234.48 23.167C234.48 23.7562 234.294 24.2363 233.923 24.6072C233.552 24.9782 233.072 25.1637 232.483 25.1637Z" fill="white"/>
<path d="M222.8 25V5.85194L217.333 9.4197L216.712 6.86662L223.291 2.57877H225.876V25H222.8Z" fill="white"/>
<path d="M205.602 0.0584259V24.8036L203.115 25.0655L202.918 23.9199C201.194 24.9673 199.525 25.491 197.91 25.491C195.772 25.491 194.092 24.7381 192.87 23.2325C191.669 21.705 191.069 19.6102 191.069 16.948C191.069 14.0676 191.779 11.8418 193.197 10.2707C194.615 8.67778 196.612 7.88131 199.187 7.88131C200.431 7.88131 201.543 8.03406 202.525 8.33955V0.418474L205.602 0.0584259ZM198.63 23.0688C199.22 23.0688 199.863 22.9706 200.562 22.7742C201.282 22.556 201.936 22.2724 202.525 21.9232V10.6635C201.609 10.4016 200.638 10.2707 199.612 10.2707C197.823 10.2707 196.481 10.8163 195.586 11.9073C194.713 12.9984 194.277 14.6568 194.277 16.8825C194.277 18.9119 194.637 20.4503 195.357 21.4977C196.099 22.5451 197.19 23.0688 198.63 23.0688Z" fill="white"/>
<path d="M187.291 24.3781C185.785 25.12 184.105 25.491 182.25 25.491C179.544 25.491 177.482 24.7382 176.064 23.2325C174.646 21.7268 173.936 19.5229 173.936 16.6207C173.936 14.8314 174.253 13.2821 174.886 11.9728C175.518 10.6417 176.402 9.62701 177.537 8.92873C178.672 8.23045 179.97 7.88132 181.432 7.88132C183.483 7.88132 185.098 8.49231 186.276 9.71429C187.455 10.9363 188.044 12.6274 188.044 14.7877C188.044 15.6387 187.967 16.4788 187.815 17.3081H176.98C177.046 21.1704 178.922 23.1016 182.61 23.1016C184.203 23.1016 185.763 22.7524 187.291 22.0542V24.3781ZM181.432 10.1398C180.166 10.1398 179.13 10.5871 178.322 11.4818C177.537 12.3765 177.089 13.5875 176.98 15.115H185.196C185.218 15.0059 185.229 14.8968 185.229 14.7877C185.229 14.6786 185.229 14.5695 185.229 14.4604C185.229 13.1075 184.891 12.0492 184.214 11.2854C183.559 10.5217 182.632 10.1398 181.432 10.1398Z" fill="white"/>
<path d="M166.824 10.598V20.1557C166.824 21.1376 167.042 21.8687 167.478 22.3487C167.915 22.807 168.58 23.0361 169.475 23.0361C170.151 23.0361 170.871 22.9161 171.635 22.676V24.8691C170.719 25.2182 169.769 25.3928 168.787 25.3928C167.129 25.3928 165.874 24.9563 165.023 24.0835C164.172 23.2107 163.747 21.9341 163.747 20.2539V10.598H161.259V8.5032L163.878 8.40501L164.107 4.24808L166.824 3.95349V8.37227H171.471V10.598H166.824Z" fill="white"/>
<path d="M155.004 25V8.63413L158.081 8.27408V25H155.004ZM156.543 4.96817C155.91 4.96817 155.408 4.80452 155.037 4.4772C154.688 4.12806 154.513 3.65891 154.513 3.06974C154.513 2.48056 154.688 2.02232 155.037 1.695C155.408 1.34586 155.91 1.1713 156.543 1.1713C157.176 1.1713 157.667 1.34586 158.016 1.695C158.387 2.02232 158.572 2.48056 158.572 3.06974C158.572 3.65891 158.387 4.12806 158.016 4.4772C157.667 4.80452 157.176 4.96817 156.543 4.96817Z" fill="white"/>
<path d="M147.154 25V13.4457C147.154 11.3509 146.139 10.3035 144.11 10.3035C142.888 10.3035 141.6 10.7072 140.247 11.5145C140.357 11.9946 140.411 12.4747 140.411 12.9547V25H137.334V13.4457C137.334 11.3509 136.32 10.3035 134.29 10.3035C133.09 10.3035 131.857 10.6853 130.592 11.4491V25H127.515V8.56868L130.002 8.30683L130.199 9.45244C131.879 8.40502 133.527 7.88132 135.141 7.88132C137.018 7.88132 138.436 8.4814 139.396 9.68156C141.36 8.4814 143.215 7.88132 144.961 7.88132C146.597 7.88132 147.885 8.32865 148.823 9.22332C149.761 10.118 150.231 11.3618 150.231 12.9547V25H147.154Z" fill="white"/>
<path d="M119.46 25V8.63413L122.537 8.27408V25H119.46ZM120.998 4.96817C120.365 4.96817 119.863 4.80452 119.492 4.4772C119.143 4.12806 118.969 3.65891 118.969 3.06974C118.969 2.48056 119.143 2.02232 119.492 1.695C119.863 1.34586 120.365 1.1713 120.998 1.1713C121.631 1.1713 122.122 1.34586 122.471 1.695C122.842 2.02232 123.027 2.48056 123.027 3.06974C123.027 3.65891 122.842 4.12806 122.471 4.4772C122.122 4.80452 121.631 4.96817 120.998 4.96817Z" fill="white"/>
<path d="M111.405 25V0.418474L114.481 0.0584259V25H111.405Z" fill="white"/>
<path d="M103.535 25V13.8058C103.535 11.4709 102.379 10.3035 100.065 10.3035C99.4545 10.3035 98.7671 10.4126 98.0034 10.6308C97.2614 10.8272 96.585 11.0999 95.974 11.4491V25H92.8972V8.56868L95.3848 8.30683L95.5812 9.45244C97.3706 8.40502 99.149 7.88132 100.916 7.88132C102.728 7.88132 104.124 8.36138 105.106 9.32151C106.11 10.2598 106.612 11.6018 106.612 13.3475V25H103.535Z" fill="white"/>
<path d="M85.45 25.0655L85.2536 23.9199C83.4642 24.9673 81.6858 25.491 79.9183 25.491C78.1508 25.491 76.776 25.0109 75.7941 24.0508C74.8121 23.0907 74.3212 21.7486 74.3212 20.0248V8.37228H77.3979V19.5665C77.3979 21.9014 78.5217 23.0688 80.7693 23.0688C81.4021 23.0688 82.0895 22.9706 82.8314 22.7742C83.5733 22.556 84.2498 22.2724 84.8608 21.9232V8.37228H87.9376V24.8036L85.45 25.0655Z" fill="white"/>
<path d="M58.465 25V13.8058C58.465 11.4709 57.3084 10.3035 54.9954 10.3035C54.3844 10.3035 53.697 10.4126 52.9333 10.6308C52.1914 10.8272 51.5149 11.0999 50.9039 11.4491V25H47.8271V8.56868L50.3148 8.30683L50.5112 9.45244C52.3005 8.40502 54.0789 7.88132 55.8464 7.88132C57.6576 7.88132 59.0541 8.36138 60.0361 9.32151C61.0399 10.2598 61.5417 11.6018 61.5417 13.3475V25H58.465Z" fill="white"/>
<path d="M35.8724 25V8.56866L38.36 8.30681L38.6218 9.81247C40.062 8.59048 41.6004 7.97949 43.237 7.97949C43.7389 7.97949 44.2408 8.05587 44.7427 8.20862V10.729C44.219 10.598 43.6843 10.5326 43.1388 10.5326C41.5677 10.5326 40.1711 11.0235 38.9492 12.0055V25H35.8724Z" fill="white"/>
<path d="M28.6008 25.0655L28.4045 23.9199C26.5715 24.9673 24.7931 25.491 23.0692 25.491C21.3453 25.491 19.9706 25.0327 18.945 24.1163C17.9412 23.1779 17.4393 21.9232 17.4393 20.3521C17.4393 18.7155 18.0067 17.4499 19.1414 16.5552C20.2761 15.6387 21.869 15.1805 23.9202 15.1805C25.1204 15.1805 26.506 15.3223 28.0771 15.606V13.8712C28.0771 12.6711 27.728 11.7764 27.0297 11.1872C26.3533 10.598 25.3059 10.3035 23.8875 10.3035C22.2291 10.3035 20.4179 10.6853 18.454 11.4491V9.05966C19.3705 8.6887 20.3634 8.40502 21.4326 8.20863C22.5018 7.99042 23.5165 7.88132 24.4767 7.88132C26.6369 7.88132 28.2735 8.3832 29.3864 9.38698C30.5211 10.3907 31.0885 11.8637 31.0885 13.8058V24.8036L28.6008 25.0655ZM23.8547 23.1016C24.4876 23.1016 25.1967 22.9925 25.9823 22.7743C26.7679 22.556 27.4661 22.2724 28.0771 21.9232V17.7336C27.0515 17.4717 25.8405 17.3408 24.4439 17.3408C23.1347 17.3408 22.1636 17.5917 21.5308 18.0936C20.9198 18.5737 20.6143 19.3047 20.6143 20.2866C20.6143 22.1633 21.6945 23.1016 23.8547 23.1016Z" fill="white"/>
<path d="M4.08812 14.6895V22.3815H14.8896V25H0.913147V2.0878H14.8241V4.70634H4.08812V12.071H13.4494V14.6895H4.08812Z" fill="white"/>
</svg>
