<svg width="77" height="12" viewBox="0 0 77 12" fill="none" xmlns="http://www.w3.org/2000/svg">
<path d="M0 10.9479V0.473175H1.47398V9.76076H6.45744V10.9479H0Z" fill="white"/>
<path d="M13.687 10.6686C12.9851 11.0177 12.213 11.1574 11.3005 11.1574C10.0371 11.1574 9.05445 10.8082 8.35256 10.1099C7.65066 9.41161 7.3699 8.43397 7.3699 7.10717C7.3699 5.78037 7.51028 5.57088 7.79104 5.01223C8.0718 4.38374 8.49294 3.96476 9.05445 3.6156C9.61597 3.26644 10.1775 3.12678 10.8794 3.12678C11.5813 3.12678 12.6341 3.4061 13.1956 3.96475C13.7572 4.52341 14.0379 5.29155 14.0379 6.26919C14.0379 7.24683 14.0379 7.03734 13.8975 7.45633H8.7737C8.7737 9.20211 9.68616 10.1099 11.4409 10.1099C13.1956 10.1099 12.9149 9.97026 13.687 9.6211V10.6686ZM10.9496 4.17425C10.3179 4.17425 9.82654 4.38374 9.47559 4.80273C9.12464 5.22172 8.91407 5.78037 8.84389 6.47869H12.7043C12.7043 6.47869 12.7043 6.40886 12.7043 6.33902V6.19936C12.7043 5.57088 12.5639 5.08206 12.213 4.7329C11.9322 4.38374 11.4409 4.17425 10.8794 4.17425H10.9496Z" fill="white"/>
<path d="M20.7761 10.9478V10.3892C19.7935 10.878 18.9512 11.0875 18.1791 11.0875C17.407 11.0875 16.7051 10.878 16.2138 10.459C15.7225 10.04 15.5119 9.48139 15.5119 8.71324C15.5119 7.9451 15.7926 7.38644 16.284 6.96746C16.8455 6.54847 17.5474 6.33897 18.53 6.33897C19.5127 6.33897 19.7233 6.33897 20.4953 6.54847V5.78032C20.4953 5.22167 20.355 4.80268 20.004 4.52336C19.6531 4.24403 19.1617 4.10437 18.53 4.10437C17.8983 4.10437 16.9157 4.31386 15.933 4.66302V3.54572C16.3542 3.40605 16.8455 3.26639 17.3368 3.12673C17.8281 3.0569 18.3195 2.98706 18.8108 2.98706C19.8636 2.98706 20.6357 3.19656 21.1271 3.68538C21.6886 4.1742 21.8991 4.80268 21.8991 5.71049V10.7384L20.7059 10.878L20.7761 10.9478ZM18.53 10.1099C18.8108 10.1099 19.1617 10.1099 19.5127 9.97021C19.8636 9.90038 20.2146 9.76071 20.4953 9.55122V7.66577C20.004 7.52611 19.4425 7.45628 18.8108 7.45628C18.1791 7.45628 17.758 7.59594 17.407 7.80543C17.1262 8.01493 16.9859 8.36409 16.9859 8.78307C16.9859 9.62105 17.4772 10.04 18.53 10.04V10.1099Z" fill="white"/>
<path d="M24.2154 10.9479V3.4061L25.4086 3.26644L25.549 3.96475C26.2509 3.4061 26.9528 3.12678 27.7249 3.12678C28.497 3.12678 28.2162 3.12678 28.4268 3.26644V4.45358C28.146 4.45358 27.9355 4.38374 27.6547 4.38374C26.8826 4.38374 26.2509 4.59324 25.6894 5.08206V11.0177H24.2154V10.9479Z" fill="white"/>
<path d="M34.8842 10.9479V5.8502C34.8842 4.80273 34.3227 4.24408 33.2699 4.24408C32.217 4.24408 32.6382 4.24408 32.2872 4.38374C31.9363 4.45357 31.5853 4.59324 31.3046 4.7329V10.9479H29.8306V3.4061L31.0238 3.26644V3.82509C31.9363 3.33627 32.7785 3.12678 33.6208 3.12678C34.4631 3.12678 35.165 3.33627 35.5861 3.75526C36.0775 4.17425 36.288 4.80273 36.288 5.57088V10.8781H34.814L34.8842 10.9479Z" fill="white"/>
<path d="M47.378 10.0401L44.3598 2.49826L43.7983 10.9479H42.3945L43.2368 0.473145H44.9214L48.0097 8.22443L51.098 0.473145H52.7826L53.6249 10.9479H52.1509L51.5192 2.49826L48.501 10.0401H47.3078H47.378Z" fill="white"/>
<path d="M58.9593 10.04C59.6612 10.04 60.2227 9.83052 60.5034 9.3417C60.8544 8.85288 60.9948 8.15457 60.9948 7.1071C60.9948 6.05962 60.8544 5.36131 60.5034 4.87249C60.1525 4.38367 59.6612 4.17418 58.9593 4.17418C58.2574 4.17418 57.6959 4.38367 57.4151 4.87249C57.0642 5.36131 56.9238 6.05962 56.9238 7.1071C56.9238 8.15457 57.0642 8.85288 57.4151 9.3417C57.7661 9.83052 58.2574 10.04 58.9593 10.04ZM58.9593 11.1573C57.7661 11.1573 56.9238 10.8082 56.2921 10.1098C55.6604 9.41153 55.3796 8.43389 55.3796 7.1071C55.3796 5.7803 55.6604 4.80266 56.2921 4.10435C56.9238 3.40603 57.7661 3.05687 58.9593 3.05687C60.1525 3.05687 60.9948 3.40603 61.6265 4.10435C62.2582 4.80266 62.5389 5.7803 62.5389 7.1071C62.5389 8.43389 62.2582 9.41153 61.6265 10.1098C60.9948 10.8082 60.1525 11.1573 58.9593 11.1573Z" fill="white"/>
<path d="M64.4341 10.9479V3.4061L65.6273 3.26644L65.7677 3.96475C66.4696 3.4061 67.1715 3.12678 67.9436 3.12678C68.7156 3.12678 68.4349 3.12678 68.6455 3.26644V4.45358C68.3647 4.45358 68.1541 4.38374 67.8734 4.38374C67.1013 4.38374 66.4696 4.59324 65.9081 5.08206V11.0177H64.4341V10.9479Z" fill="white"/>
<path d="M75.8048 10.6686C75.1029 11.0177 74.3308 11.1574 73.4183 11.1574C72.1549 11.1574 71.1723 10.8082 70.4704 10.1099C69.7685 9.41161 69.4877 8.43397 69.4877 7.10717C69.4877 5.78037 69.6281 5.57088 69.9088 5.01223C70.1896 4.38374 70.6107 3.96476 71.1723 3.6156C71.7338 3.26644 72.2953 3.12678 72.9972 3.12678C73.6991 3.12678 74.7519 3.4061 75.3134 3.96475C75.875 4.52341 76.1557 5.29155 76.1557 6.26919C76.1557 7.24683 76.1557 7.03734 76.0153 7.45633H70.8915C70.8915 9.20211 71.804 10.1099 73.5587 10.1099C75.3134 10.1099 75.0327 9.97026 75.8048 9.6211V10.6686ZM72.9972 4.17425C72.3655 4.17425 71.8741 4.38374 71.5232 4.80273C71.1723 5.22172 70.9617 5.78037 70.8915 6.47869H74.7519C74.7519 6.47869 74.7519 6.40886 74.7519 6.33902V6.19936C74.7519 5.57088 74.6115 5.08206 74.2606 4.7329C73.9798 4.38374 73.4885 4.17425 72.927 4.17425H72.9972Z" fill="white"/>
</svg>
