<svg width="463" height="27" viewBox="0 0 463 27" fill="none" xmlns="http://www.w3.org/2000/svg">
<path d="M452.684 19.994V0.468001L454.244 0.26V12.714L460.38 6.916H462.226L455.804 13L462.434 19.994H460.458L454.244 13.39V19.994H452.684Z" fill="white"/>
<path d="M449.071 19.526C447.927 20.098 446.679 20.384 445.327 20.384C443.49 20.384 442.069 19.786 441.063 18.59C440.075 17.394 439.581 15.6867 439.581 13.468C439.581 11.2493 440.075 9.542 441.063 8.346C442.069 7.13267 443.49 6.526 445.327 6.526C446.627 6.526 447.858 6.812 449.019 7.384V8.606C447.806 8.06867 446.627 7.8 445.483 7.8C444.079 7.8 443.013 8.27667 442.285 9.23C441.575 10.1833 441.219 11.596 441.219 13.468C441.219 15.3227 441.575 16.7267 442.285 17.68C443.013 18.6333 444.079 19.11 445.483 19.11C446.662 19.11 447.858 18.8413 449.071 18.304V19.526Z" fill="white"/>
<path d="M434.679 20.046L434.576 19.136C433.085 19.968 431.611 20.384 430.155 20.384C428.821 20.384 427.763 20.0373 426.983 19.344C426.203 18.6333 425.813 17.6627 425.813 16.432C425.813 15.132 426.247 14.144 427.113 13.468C427.997 12.7747 429.289 12.428 430.987 12.428C432.01 12.428 433.171 12.5493 434.471 12.792V11.024C434.471 8.85733 433.249 7.774 430.805 7.774C430.164 7.774 429.462 7.86067 428.699 8.034C427.937 8.20733 427.235 8.43267 426.593 8.71V7.488C427.217 7.19333 427.928 6.95933 428.725 6.786C429.54 6.61267 430.311 6.526 431.039 6.526C432.669 6.526 433.899 6.916 434.731 7.696C435.581 8.45867 436.005 9.568 436.005 11.024V19.916L434.679 20.046ZM430.52 19.136C431.144 19.136 431.802 19.0407 432.495 18.85C433.189 18.6593 433.847 18.3993 434.471 18.07V13.91C433.379 13.702 432.305 13.598 431.247 13.598C429.913 13.598 428.942 13.8233 428.335 14.274C427.729 14.7247 427.425 15.4353 427.425 16.406C427.425 18.226 428.457 19.136 430.52 19.136Z" fill="white"/>
<path d="M413.524 7.696C414.183 7.332 414.85 7.046 415.526 6.838C416.22 6.63 416.861 6.526 417.45 6.526C419.149 6.526 420.484 7.124 421.454 8.32C422.425 9.49867 422.91 11.1367 422.91 13.234C422.91 15.5393 422.356 17.3073 421.246 18.538C420.154 19.7687 418.568 20.384 416.488 20.384C415.015 20.384 413.507 20.1413 411.964 19.656V0.468001L413.524 0.26V7.696ZM417.242 7.774C416.67 7.774 416.055 7.86933 415.396 8.06C414.738 8.25067 414.114 8.51067 413.524 8.84V18.72C414.426 18.9973 415.37 19.136 416.358 19.136C418.022 19.136 419.253 18.6593 420.05 17.706C420.865 16.7353 421.272 15.2533 421.272 13.26C421.272 11.4747 420.926 10.114 420.232 9.178C419.556 8.242 418.56 7.774 417.242 7.774Z" fill="white"/>
<path d="M390.497 19.994V0.468001L392.057 0.26V7.722C393.513 6.92467 394.943 6.526 396.347 6.526C397.751 6.526 398.834 6.89 399.597 7.618C400.377 8.346 400.767 9.37734 400.767 10.712V19.994H399.207V10.972C399.207 8.84 398.124 7.774 395.957 7.774C395.385 7.774 394.752 7.86933 394.059 8.06C393.383 8.25067 392.716 8.51067 392.057 8.84V19.994H390.497Z" fill="white"/>
<path d="M377.772 18.278C379.072 18.85 380.415 19.136 381.802 19.136C384.142 19.136 385.312 18.226 385.312 16.406C385.312 15.8167 385.139 15.34 384.792 14.976C384.463 14.612 383.908 14.3087 383.128 14.066L381.152 13.442C380.042 13.0953 379.236 12.662 378.734 12.142C378.231 11.6047 377.98 10.9287 377.98 10.114C377.98 9.022 378.405 8.15533 379.254 7.514C380.121 6.85533 381.282 6.526 382.738 6.526C383.968 6.526 385.138 6.76 386.248 7.228V8.45C385.087 7.99933 383.942 7.774 382.816 7.774C381.793 7.774 380.987 7.982 380.398 8.398C379.826 8.79667 379.54 9.35133 379.54 10.062C379.54 10.5647 379.696 10.972 380.008 11.284C380.337 11.5787 380.918 11.8647 381.75 12.142L383.804 12.818C384.861 13.1647 385.632 13.624 386.118 14.196C386.62 14.768 386.872 15.496 386.872 16.38C386.872 17.6627 386.439 18.6507 385.572 19.344C384.705 20.0373 383.483 20.384 381.906 20.384C380.45 20.384 379.141 20.1153 377.98 19.578L377.772 18.278Z" fill="white"/>
<path d="M373.026 20.046L372.922 19.136C371.431 19.968 369.958 20.384 368.502 20.384C367.167 20.384 366.11 20.0373 365.33 19.344C364.55 18.6333 364.16 17.6627 364.16 16.432C364.16 15.132 364.593 14.144 365.46 13.468C366.344 12.7747 367.635 12.428 369.334 12.428C370.357 12.428 371.518 12.5493 372.818 12.792V11.024C372.818 8.85733 371.596 7.774 369.152 7.774C368.511 7.774 367.809 7.86067 367.046 8.034C366.283 8.20733 365.581 8.43267 364.94 8.71V7.488C365.564 7.19333 366.275 6.95933 367.072 6.786C367.887 6.61267 368.658 6.526 369.386 6.526C371.015 6.526 372.246 6.916 373.078 7.696C373.927 8.45867 374.352 9.568 374.352 11.024V19.916L373.026 20.046ZM368.866 19.136C369.49 19.136 370.149 19.0407 370.842 18.85C371.535 18.6593 372.194 18.3993 372.818 18.07V13.91C371.726 13.702 370.651 13.598 369.594 13.598C368.259 13.598 367.289 13.8233 366.682 14.274C366.075 14.7247 365.772 15.4353 365.772 16.406C365.772 18.226 366.803 19.136 368.866 19.136Z" fill="white"/>
<path d="M361.406 19.526C360.262 20.098 359.014 20.384 357.662 20.384C355.824 20.384 354.403 19.786 353.398 18.59C352.41 17.394 351.916 15.6867 351.916 13.468C351.916 11.2493 352.41 9.542 353.398 8.346C354.403 7.13267 355.824 6.526 357.662 6.526C358.962 6.526 360.192 6.812 361.354 7.384V8.606C360.14 8.06867 358.962 7.8 357.818 7.8C356.414 7.8 355.348 8.27667 354.62 9.23C353.909 10.1833 353.554 11.596 353.554 13.468C353.554 15.3227 353.909 16.7267 354.62 17.68C355.348 18.6333 356.414 19.11 357.818 19.11C358.996 19.11 360.192 18.8413 361.406 18.304V19.526Z" fill="white"/>
<path d="M340.016 19.994V10.972C340.016 8.84 338.933 7.774 336.766 7.774C336.194 7.774 335.562 7.86933 334.868 8.06C334.192 8.25067 333.525 8.51067 332.866 8.84V19.994H331.306V6.994L332.632 6.864L332.736 7.774C334.244 6.942 335.718 6.526 337.156 6.526C338.56 6.526 339.644 6.89 340.406 7.618C341.186 8.346 341.576 9.37733 341.576 10.712V19.994H340.016Z" fill="white"/>
<path d="M322.109 19.994V6.994L323.435 6.864L323.565 8.034C324.726 7.08067 325.966 6.604 327.283 6.604C327.751 6.604 328.124 6.656 328.401 6.76V8.034C327.95 7.93 327.552 7.878 327.205 7.878C325.974 7.878 324.796 8.32 323.669 9.204V19.994H322.109Z" fill="white"/>
<path d="M316.349 20.046L316.245 19.136C314.755 19.968 313.281 20.384 311.825 20.384C310.49 20.384 309.433 20.0373 308.653 19.344C307.873 18.6333 307.483 17.6627 307.483 16.432C307.483 15.132 307.917 14.144 308.783 13.468C309.667 12.7747 310.958 12.428 312.657 12.428C313.68 12.428 314.841 12.5493 316.141 12.792V11.024C316.141 8.85733 314.919 7.774 312.475 7.774C311.834 7.774 311.132 7.86067 310.369 8.034C309.607 8.20733 308.904 8.43267 308.263 8.71V7.488C308.887 7.19333 309.598 6.95933 310.395 6.786C311.21 6.61267 311.981 6.526 312.709 6.526C314.339 6.526 315.569 6.916 316.401 7.696C317.25 8.45867 317.675 9.568 317.675 11.024V19.916L316.349 20.046ZM312.189 19.136C312.813 19.136 313.472 19.0407 314.165 18.85C314.858 18.6593 315.517 18.3993 316.141 18.07V13.91C315.049 13.702 313.975 13.598 312.917 13.598C311.583 13.598 310.612 13.8233 310.005 14.274C309.398 14.7247 309.095 15.4353 309.095 16.406C309.095 18.226 310.127 19.136 312.189 19.136Z" fill="white"/>
<path d="M304.031 19.526C302.835 20.098 301.553 20.384 300.183 20.384C298.19 20.384 296.656 19.7947 295.581 18.616C294.507 17.4373 293.969 15.7473 293.969 13.546C293.969 11.362 294.472 9.646 295.477 8.398C296.483 7.15 297.861 6.526 299.611 6.526C301.154 6.526 302.367 7.01133 303.251 7.982C304.153 8.93533 304.603 10.244 304.603 11.908C304.603 12.532 304.551 13.13 304.447 13.702H295.503C295.521 17.3247 297.124 19.136 300.313 19.136C301.596 19.136 302.835 18.8587 304.031 18.304V19.526ZM299.585 7.748C298.407 7.748 297.445 8.18133 296.699 9.048C295.954 9.91467 295.555 11.076 295.503 12.532H303.095C303.13 12.2547 303.147 12.012 303.147 11.804C303.147 10.5213 302.835 9.52467 302.211 8.814C301.587 8.10333 300.712 7.748 299.585 7.748Z" fill="white"/>
<path d="M278.577 20.384C276.688 20.384 275.258 19.8033 274.287 18.642C273.334 17.4633 272.857 15.73 272.857 13.442C272.857 11.1713 273.334 9.45533 274.287 8.294C275.258 7.11533 276.688 6.526 278.577 6.526C280.467 6.526 281.888 7.11533 282.841 8.294C283.812 9.45533 284.297 11.1713 284.297 13.442C284.297 15.73 283.812 17.4633 282.841 18.642C281.888 19.8033 280.467 20.384 278.577 20.384ZM278.577 19.136C279.999 19.136 281.03 18.6853 281.671 17.784C282.33 16.8653 282.659 15.418 282.659 13.442C282.659 11.4833 282.33 10.0533 281.671 9.152C281.03 8.23333 279.999 7.774 278.577 7.774C277.156 7.774 276.116 8.23333 275.457 9.152C274.816 10.0533 274.495 11.4833 274.495 13.442C274.495 15.418 274.816 16.8653 275.457 17.784C276.116 18.6853 277.156 19.136 278.577 19.136Z" fill="white"/>
<path d="M266.645 8.112V16.432C266.645 17.3333 266.836 18.0007 267.217 18.434C267.598 18.85 268.188 19.058 268.985 19.058C269.505 19.058 270.094 18.9627 270.753 18.772V19.916C270.025 20.1587 269.358 20.28 268.751 20.28C267.555 20.28 266.645 19.9593 266.021 19.318C265.397 18.6593 265.085 17.6887 265.085 16.406V8.112H263.109V6.994L265.137 6.916L265.293 3.64L266.645 3.484V6.916H270.571V8.112H266.645Z" fill="white"/>
<path d="M251.964 19.994V10.972C251.964 8.84 250.88 7.774 248.714 7.774C248.142 7.774 247.509 7.86933 246.816 8.06C246.14 8.25067 245.472 8.51067 244.814 8.84V19.994H243.254V6.994L244.58 6.864L244.684 7.774C246.192 6.942 247.665 6.526 249.104 6.526C250.508 6.526 251.591 6.89 252.354 7.618C253.134 8.346 253.524 9.37733 253.524 10.712V19.994H251.964Z" fill="white"/>
<path d="M237.494 20.046L237.39 19.136C235.899 19.968 234.426 20.384 232.97 20.384C231.635 20.384 230.578 20.0373 229.798 19.344C229.018 18.6333 228.628 17.6627 228.628 16.432C228.628 15.132 229.061 14.144 229.928 13.468C230.812 12.7747 232.103 12.428 233.802 12.428C234.825 12.428 235.986 12.5493 237.286 12.792V11.024C237.286 8.85733 236.064 7.774 233.62 7.774C232.979 7.774 232.277 7.86067 231.514 8.034C230.751 8.20733 230.049 8.43267 229.408 8.71V7.488C230.032 7.19333 230.743 6.95933 231.54 6.786C232.355 6.61267 233.126 6.526 233.854 6.526C235.483 6.526 236.714 6.916 237.546 7.696C238.395 8.45867 238.82 9.568 238.82 11.024V19.916L237.494 20.046ZM233.334 19.136C233.958 19.136 234.617 19.0407 235.31 18.85C236.003 18.6593 236.662 18.3993 237.286 18.07V13.91C236.194 13.702 235.119 13.598 234.062 13.598C232.727 13.598 231.757 13.8233 231.15 14.274C230.543 14.7247 230.24 15.4353 230.24 16.406C230.24 18.226 231.271 19.136 233.334 19.136Z" fill="white"/>
<path d="M223.31 19.994V0.468001L224.87 0.26V19.994H223.31Z" fill="white"/>
<path d="M208.603 25.792V6.994L209.929 6.864L210.033 7.774C211.506 6.942 212.858 6.526 214.089 6.526C215.787 6.526 217.122 7.124 218.093 8.32C219.063 9.49867 219.549 11.1367 219.549 13.234C219.549 15.5393 218.994 17.3073 217.885 18.538C216.793 19.7687 215.207 20.384 213.127 20.384C212.052 20.384 211.064 20.2453 210.163 19.968V25.584L208.603 25.792ZM213.881 7.774C213.309 7.774 212.693 7.86933 212.035 8.06C211.376 8.25067 210.752 8.51067 210.163 8.84V18.72C211.064 18.9973 212.009 19.136 212.997 19.136C214.661 19.136 215.891 18.6593 216.689 17.706C217.503 16.7353 217.911 15.2533 217.911 13.26C217.911 11.4747 217.564 10.114 216.871 9.178C216.195 8.242 215.198 7.774 213.881 7.774Z" fill="white"/>
<path d="M197.533 19.526C196.337 20.098 195.054 20.384 193.685 20.384C191.691 20.384 190.157 19.7947 189.083 18.616C188.008 17.4373 187.471 15.7473 187.471 13.546C187.471 11.362 187.973 9.646 188.979 8.398C189.984 7.15 191.362 6.526 193.113 6.526C194.655 6.526 195.869 7.01133 196.753 7.982C197.654 8.93533 198.105 10.244 198.105 11.908C198.105 12.532 198.053 13.13 197.949 13.702H189.005C189.022 17.3247 190.625 19.136 193.815 19.136C195.097 19.136 196.337 18.8587 197.533 18.304V19.526ZM193.087 7.748C191.908 7.748 190.946 8.18133 190.201 9.048C189.455 9.91467 189.057 11.076 189.005 12.532H196.597C196.631 12.2547 196.649 12.012 196.649 11.804C196.649 10.5213 196.337 9.52467 195.713 8.814C195.089 8.10333 194.213 7.748 193.087 7.748Z" fill="white"/>
<path d="M182.316 19.994V10.712C182.316 8.75333 181.389 7.774 179.534 7.774C178.46 7.774 177.229 8.164 175.842 8.944C175.981 9.412 176.05 9.91467 176.05 10.452V19.994H174.49V10.712C174.49 8.75333 173.563 7.774 171.708 7.774C170.668 7.774 169.507 8.12933 168.224 8.84V19.994H166.664V6.994L167.99 6.864L168.094 7.774C169.568 6.942 170.902 6.526 172.098 6.526C173.624 6.526 174.724 7.02867 175.4 8.034C177.082 7.02867 178.59 6.526 179.924 6.526C181.19 6.526 182.16 6.864 182.836 7.54C183.53 8.216 183.876 9.18667 183.876 10.452V19.994H182.316Z" fill="white"/>
<path d="M160.905 20.046L160.801 19.136C159.31 19.968 157.837 20.384 156.381 20.384C155.046 20.384 153.989 20.0373 153.209 19.344C152.429 18.6333 152.039 17.6627 152.039 16.432C152.039 15.132 152.472 14.144 153.339 13.468C154.223 12.7747 155.514 12.428 157.213 12.428C158.235 12.428 159.397 12.5493 160.697 12.792V11.024C160.697 8.85733 159.475 7.774 157.031 7.774C156.389 7.774 155.687 7.86067 154.925 8.034C154.162 8.20733 153.46 8.43267 152.819 8.71V7.488C153.443 7.19333 154.153 6.95933 154.951 6.786C155.765 6.61267 156.537 6.526 157.265 6.526C158.894 6.526 160.125 6.916 160.957 7.696C161.806 8.45867 162.231 9.568 162.231 11.024V19.916L160.905 20.046ZM156.745 19.136C157.369 19.136 158.027 19.0407 158.721 18.85C159.414 18.6593 160.073 18.3993 160.697 18.07V13.91C159.605 13.702 158.53 13.598 157.473 13.598C156.138 13.598 155.167 13.8233 154.561 14.274C153.954 14.7247 153.651 15.4353 153.651 16.406C153.651 18.226 154.682 19.136 156.745 19.136Z" fill="white"/>
<path d="M142.453 26.052C140.911 26.052 139.602 25.7833 138.527 25.246L138.319 23.92C139.741 24.5093 141.093 24.804 142.375 24.804C145.27 24.804 146.717 23.4607 146.717 20.774V18.98C146.059 19.344 145.383 19.63 144.689 19.838C144.013 20.046 143.381 20.15 142.791 20.15C141.093 20.15 139.758 19.578 138.787 18.434C137.817 17.29 137.331 15.704 137.331 13.676C137.331 11.3707 137.877 9.60267 138.969 8.372C140.079 7.14133 141.673 6.526 143.753 6.526C145.331 6.526 146.839 6.80333 148.277 7.358V20.644C148.277 22.3773 147.775 23.712 146.769 24.648C145.764 25.584 144.325 26.052 142.453 26.052ZM142.999 18.902C143.571 18.902 144.187 18.8067 144.845 18.616C145.504 18.4253 146.128 18.1653 146.717 17.836V8.19C145.816 7.91267 144.871 7.774 143.883 7.774C142.219 7.774 140.98 8.25933 140.165 9.23C139.368 10.1833 138.969 11.6567 138.969 13.65C138.969 15.366 139.307 16.6747 139.983 17.576C140.677 18.46 141.682 18.902 142.999 18.902Z" fill="white"/>
<path d="M124.359 8.112V16.432C124.359 17.3333 124.55 18.0007 124.931 18.434C125.312 18.85 125.902 19.058 126.699 19.058C127.219 19.058 127.808 18.9627 128.467 18.772V19.916C127.739 20.1587 127.072 20.28 126.465 20.28C125.269 20.28 124.359 19.9593 123.735 19.318C123.111 18.6593 122.799 17.6887 122.799 16.406V8.112H120.823V6.994L122.851 6.916L123.007 3.64L124.359 3.484V6.916H128.285V8.112H124.359Z" fill="white"/>
<path d="M118.823 19.526C117.679 20.098 116.431 20.384 115.079 20.384C113.241 20.384 111.82 19.786 110.815 18.59C109.827 17.394 109.333 15.6867 109.333 13.468C109.333 11.2493 109.827 9.542 110.815 8.346C111.82 7.13267 113.241 6.526 115.079 6.526C116.379 6.526 117.609 6.812 118.771 7.384V8.606C117.557 8.06867 116.379 7.8 115.235 7.8C113.831 7.8 112.765 8.27667 112.037 9.23C111.326 10.1833 110.971 11.596 110.971 13.468C110.971 15.3227 111.326 16.7267 112.037 17.68C112.765 18.6333 113.831 19.11 115.235 19.11C116.413 19.11 117.609 18.8413 118.823 18.304V19.526Z" fill="white"/>
<path d="M105.881 19.526C104.685 20.098 103.402 20.384 102.033 20.384C100.039 20.384 98.5054 19.7947 97.4307 18.616C96.3561 17.4373 95.8187 15.7473 95.8187 13.546C95.8187 11.362 96.3214 9.646 97.3267 8.398C98.3321 7.15 99.7101 6.526 101.461 6.526C103.003 6.526 104.217 7.01133 105.101 7.982C106.002 8.93533 106.453 10.244 106.453 11.908C106.453 12.532 106.401 13.13 106.297 13.702H97.3527C97.3701 17.3247 98.9734 19.136 102.163 19.136C103.445 19.136 104.685 18.8587 105.881 18.304V19.526ZM101.435 7.748C100.256 7.748 99.2941 8.18133 98.5487 9.048C97.8034 9.91467 97.4047 11.076 97.3527 12.532H104.945C104.979 12.2547 104.997 12.012 104.997 11.804C104.997 10.5213 104.685 9.52467 104.061 8.814C103.437 8.10333 102.561 7.748 101.435 7.748Z" fill="white"/>
<path d="M88.7065 19.994V8.112H86.7305V6.994L88.7065 6.916V3.978C88.7065 2.69533 89.0185 1.716 89.6425 1.04C90.2838 0.346667 91.2111 0 92.4245 0C93.0831 0 93.7505 0.121333 94.4265 0.364V1.508C93.8025 1.31733 93.2045 1.222 92.6325 1.222C91.8178 1.222 91.2198 1.43867 90.8385 1.872C90.4571 2.288 90.2665 2.94667 90.2665 3.848V6.916H93.7765V8.112H90.2665V19.994H88.7065Z" fill="white"/>
<path d="M78.6372 19.994V6.994L79.9632 6.864L80.0932 8.034C81.2545 7.08067 82.4939 6.604 83.8112 6.604C84.2792 6.604 84.6519 6.656 84.9292 6.76V8.034C84.4785 7.93 84.0799 7.878 83.7332 7.878C82.5025 7.878 81.3239 8.32 80.1972 9.204V19.994H78.6372Z" fill="white"/>
<path d="M74.3273 19.526C73.1313 20.098 71.8486 20.384 70.4793 20.384C68.4859 20.384 66.9519 19.7947 65.8773 18.616C64.8026 17.4373 64.2653 15.7473 64.2653 13.546C64.2653 11.362 64.7679 9.646 65.7733 8.398C66.7786 7.15 68.1566 6.526 69.9073 6.526C71.4499 6.526 72.6633 7.01133 73.5473 7.982C74.4486 8.93533 74.8993 10.244 74.8993 11.908C74.8993 12.532 74.8473 13.13 74.7433 13.702H65.7993C65.8166 17.3247 67.4199 19.136 70.6093 19.136C71.8919 19.136 73.1313 18.8587 74.3273 18.304V19.526ZM69.8813 7.748C68.7026 7.748 67.7406 8.18133 66.9953 9.048C66.2499 9.91467 65.8513 11.076 65.7993 12.532H73.3913C73.4259 12.2547 73.4433 12.012 73.4433 11.804C73.4433 10.5213 73.1313 9.52467 72.5073 8.814C71.8833 8.10333 71.0079 7.748 69.8813 7.748Z" fill="white"/>
<path d="M50.416 25.792V6.994L51.742 6.864L51.846 7.774C53.3193 6.942 54.6713 6.526 55.902 6.526C57.6007 6.526 58.9353 7.124 59.906 8.32C60.8767 9.49867 61.362 11.1367 61.362 13.234C61.362 15.5393 60.8073 17.3073 59.698 18.538C58.606 19.7687 57.02 20.384 54.94 20.384C53.8653 20.384 52.8773 20.2453 51.976 19.968V25.584L50.416 25.792ZM55.694 7.774C55.122 7.774 54.5067 7.86933 53.848 8.06C53.1893 8.25067 52.5653 8.51067 51.976 8.84V18.72C52.8773 18.9973 53.822 19.136 54.81 19.136C56.474 19.136 57.7047 18.6593 58.502 17.706C59.3167 16.7353 59.724 15.2533 59.724 13.26C59.724 11.4747 59.3773 10.114 58.684 9.178C58.008 8.242 57.0113 7.774 55.694 7.774Z" fill="white"/>
<path d="M39.3462 19.526C38.1502 20.098 36.8675 20.384 35.4982 20.384C33.5048 20.384 31.9708 19.7947 30.8962 18.616C29.8215 17.4373 29.2842 15.7473 29.2842 13.546C29.2842 11.362 29.7868 9.646 30.7922 8.398C31.7975 7.15 33.1755 6.526 34.9262 6.526C36.4688 6.526 37.6822 7.01133 38.5662 7.982C39.4675 8.93533 39.9182 10.244 39.9182 11.908C39.9182 12.532 39.8662 13.13 39.7622 13.702H30.8182C30.8355 17.3247 32.4388 19.136 35.6282 19.136C36.9108 19.136 38.1502 18.8587 39.3462 18.304V19.526ZM34.9002 7.748C33.7215 7.748 32.7595 8.18133 32.0142 9.048C31.2688 9.91467 30.8702 11.076 30.8182 12.532H38.4102C38.4448 12.2547 38.4622 12.012 38.4622 11.804C38.4622 10.5213 38.1502 9.52467 37.5262 8.814C36.9022 8.10333 36.0268 7.748 34.9002 7.748Z" fill="white"/>
<path d="M15.4348 19.994V0.468001L16.9948 0.26V7.722C18.4508 6.92467 19.8808 6.526 21.2848 6.526C22.6888 6.526 23.7721 6.89 24.5348 7.618C25.3148 8.346 25.7048 9.37734 25.7048 10.712V19.994H24.1448V10.972C24.1448 8.84 23.0615 7.774 20.8948 7.774C20.3228 7.774 19.6901 7.86933 18.9968 8.06C18.3208 8.25067 17.6535 8.51067 16.9948 8.84V19.994H15.4348Z" fill="white"/>
<path d="M5.486 19.994V3.12H0V1.794H12.61V3.12H7.124V19.994H5.486Z" fill="white"/>
</svg>
