<svg width="229" height="48" viewBox="0 0 229 48" fill="none" xmlns="http://www.w3.org/2000/svg">
<path d="M214.995 42.6365C214.027 43.1136 212.946 43.3521 211.754 43.3521C210.014 43.3521 208.688 42.868 207.776 41.9C206.864 40.9319 206.408 39.5148 206.408 37.6488C206.408 36.4984 206.612 35.5022 207.019 34.6604C207.426 33.8046 207.994 33.1522 208.723 32.7032C209.453 32.2543 210.288 32.0298 211.228 32.0298C212.547 32.0298 213.585 32.4226 214.342 33.2083C215.1 33.994 215.479 35.0813 215.479 36.4703C215.479 37.0175 215.43 37.5576 215.332 38.0908H208.366C208.408 40.5741 209.614 41.8158 211.985 41.8158C213.01 41.8158 214.013 41.5913 214.995 41.1423V42.6365ZM211.228 33.4819C210.414 33.4819 209.748 33.7695 209.229 34.3447C208.723 34.92 208.436 35.6987 208.366 36.6808H213.648C213.662 36.6106 213.669 36.5405 213.669 36.4703C213.669 36.4002 213.669 36.33 213.669 36.2599C213.669 35.39 213.452 34.7095 213.017 34.2185C212.596 33.7274 211.999 33.4819 211.228 33.4819Z" fill="white"/>
<path d="M196.726 41.0792C197.848 41.5702 198.971 41.8158 200.093 41.8158C200.907 41.8158 201.524 41.6614 201.945 41.3528C202.38 41.0441 202.598 40.6022 202.598 40.0269C202.598 39.6481 202.478 39.3395 202.24 39.1009C202.001 38.8624 201.608 38.659 201.061 38.4906L199.63 38.0487C198.676 37.7541 197.982 37.3752 197.547 36.9123C197.112 36.4493 196.894 35.86 196.894 35.1445C196.894 34.1904 197.266 33.4328 198.01 32.8716C198.753 32.3104 199.756 32.0298 201.019 32.0298C202.085 32.0298 203.103 32.2402 204.071 32.6611V34.1764C203.004 33.7695 202.029 33.5661 201.145 33.5661C200.43 33.5661 199.869 33.7064 199.462 33.987C199.069 34.2536 198.873 34.6183 198.873 35.0813C198.873 35.4181 198.978 35.6846 199.188 35.881C199.399 36.0634 199.792 36.2458 200.367 36.4282L201.966 36.9123C203.706 37.4314 204.576 38.4626 204.576 40.0059C204.576 41.0862 204.204 41.914 203.46 42.4892C202.717 43.0644 201.643 43.3521 200.24 43.3521C198.936 43.3521 197.841 43.1346 196.957 42.6997L196.726 41.0792Z" fill="white"/>
<path d="M192.787 43.0785L192.661 42.3419C191.482 43.0153 190.339 43.3521 189.231 43.3521C188.122 43.3521 187.238 43.0574 186.579 42.4682C185.934 41.8649 185.611 41.0581 185.611 40.048C185.611 38.9957 185.976 38.182 186.705 37.6067C187.435 37.0175 188.459 36.7228 189.778 36.7228C190.549 36.7228 191.44 36.814 192.451 36.9964V35.881C192.451 35.1094 192.226 34.5342 191.777 34.1553C191.342 33.7765 190.669 33.5871 189.757 33.5871C188.69 33.5871 187.526 33.8327 186.263 34.3237V32.7874C186.853 32.5489 187.491 32.3665 188.178 32.2402C188.866 32.0999 189.518 32.0298 190.136 32.0298C191.525 32.0298 192.577 32.3525 193.292 32.9979C194.022 33.6432 194.387 34.5903 194.387 35.839V42.9101L192.787 43.0785ZM189.736 41.8158C190.143 41.8158 190.599 41.7456 191.104 41.6053C191.609 41.465 192.058 41.2826 192.451 41.0581V38.3644C191.791 38.196 191.012 38.1118 190.115 38.1118C189.273 38.1118 188.648 38.2732 188.241 38.5959C187.849 38.9045 187.652 39.3745 187.652 40.0059C187.652 41.2125 188.347 41.8158 189.736 41.8158Z" fill="white"/>
<path d="M174.301 43.0364V27.2315L176.279 27V32.8926C177.359 32.3174 178.418 32.0298 179.457 32.0298C180.621 32.0298 181.519 32.3384 182.15 32.9558C182.796 33.5591 183.118 34.4219 183.118 35.5443V43.0364H181.14V35.839C181.14 34.3377 180.397 33.5871 178.909 33.5871C178.517 33.5871 178.075 33.6573 177.584 33.7976C177.107 33.9238 176.672 34.0992 176.279 34.3237V43.0364H174.301Z" fill="white"/>
<path d="M171.865 42.6576C170.897 43.1206 169.823 43.3521 168.645 43.3521C167.101 43.3521 165.909 42.861 165.067 41.8789C164.225 40.8968 163.804 39.5078 163.804 37.712C163.804 35.9021 164.225 34.5061 165.067 33.524C165.923 32.5279 167.122 32.0298 168.666 32.0298C169.746 32.0298 170.791 32.2613 171.801 32.7243V34.2395C170.833 33.8186 169.907 33.6082 169.024 33.6082C167.985 33.6082 167.2 33.9519 166.666 34.6394C166.133 35.3269 165.867 36.344 165.867 37.6909C165.867 39.0238 166.133 40.041 166.666 40.7425C167.2 41.4299 167.985 41.7737 169.024 41.7737C169.907 41.7737 170.854 41.5632 171.865 41.1423V42.6576Z" fill="white"/>
<path d="M156.955 43.0364V32.4717L158.554 32.3034L158.723 33.2715C159.649 32.4858 160.638 32.0929 161.69 32.0929C162.013 32.0929 162.335 32.142 162.658 32.2402V33.8607C162.321 33.7765 161.978 33.7344 161.627 33.7344C160.617 33.7344 159.719 34.0501 158.933 34.6815V43.0364H156.955Z" fill="white"/>
<path d="M152.167 43.0785L152.04 42.3419C150.89 43.0153 149.746 43.3521 148.61 43.3521C147.474 43.3521 146.59 43.0434 145.958 42.4261C145.327 41.8088 145.011 40.9459 145.011 39.8375V32.3455H146.989V39.5429C146.989 41.0441 147.712 41.7947 149.157 41.7947C149.564 41.7947 150.006 41.7316 150.483 41.6053C150.96 41.465 151.395 41.2826 151.788 41.0581V32.3455H153.766V42.9101L152.167 43.0785Z" fill="white"/>
<path d="M133.217 47.7926V32.4717L134.817 32.3034L134.943 33.04C136.051 32.3665 137.125 32.0298 138.163 32.0298C139.538 32.0298 140.611 32.5208 141.383 33.5029C142.168 34.471 142.561 35.8109 142.561 37.5226C142.561 39.3745 142.105 40.8126 141.193 41.8368C140.281 42.847 138.998 43.3521 137.342 43.3521C136.542 43.3521 135.827 43.2539 135.196 43.0574V47.5611L133.217 47.7926ZM137.7 33.5871C137.321 33.5871 136.9 33.6573 136.437 33.7976C135.988 33.9238 135.574 34.0992 135.196 34.3237V41.5632C135.785 41.7316 136.409 41.8158 137.069 41.8158C138.219 41.8158 139.075 41.465 139.636 40.7635C140.211 40.062 140.499 38.9957 140.499 37.5647C140.499 36.2599 140.26 35.2707 139.783 34.5973C139.32 33.9238 138.626 33.5871 137.7 33.5871Z" fill="white"/>
<path d="M116.541 46.109C117.214 45.9967 117.768 45.8354 118.203 45.6249C118.652 45.4145 119.045 45.1128 119.382 44.72C119.719 44.3272 120.041 43.801 120.35 43.1416L116.33 32.3455H118.435L121.318 40.9108L124.201 32.3455H126.222L122.349 42.6365C121.928 43.7589 121.493 44.6569 121.044 45.3303C120.595 46.0178 120.062 46.5509 119.445 46.9297C118.828 47.3226 118.014 47.6242 117.004 47.8347L116.541 46.109Z" fill="white"/>
<path d="M109.583 43.0364V32.4717L111.182 32.3034L111.351 33.2715C112.277 32.4858 113.266 32.0929 114.318 32.0929C114.641 32.0929 114.963 32.142 115.286 32.2402V33.8607C114.949 33.7765 114.606 33.7344 114.255 33.7344C113.245 33.7344 112.347 34.0501 111.561 34.6815V43.0364H109.583Z" fill="white"/>
<path d="M106.522 42.6365C105.554 43.1136 104.474 43.3521 103.281 43.3521C101.541 43.3521 100.215 42.868 99.3035 41.9C98.3915 40.9319 97.9355 39.5148 97.9355 37.6488C97.9355 36.4984 98.139 35.5022 98.5459 34.6604C98.9527 33.8046 99.5209 33.1522 100.251 32.7032C100.98 32.2543 101.815 32.0298 102.755 32.0298C104.074 32.0298 105.112 32.4226 105.87 33.2083C106.627 33.994 107.006 35.0813 107.006 36.4703C107.006 37.0175 106.957 37.5576 106.859 38.0908H99.8927C99.9348 40.5741 101.141 41.8158 103.513 41.8158C104.537 41.8158 105.54 41.5913 106.522 41.1423V42.6365ZM102.755 33.4819C101.941 33.4819 101.275 33.7695 100.756 34.3447C100.251 34.92 99.9629 35.6987 99.8927 36.6808H105.175C105.189 36.6106 105.196 36.5405 105.196 36.4703C105.196 36.4002 105.196 36.33 105.196 36.2599C105.196 35.39 104.979 34.7095 104.544 34.2185C104.123 33.7274 103.527 33.4819 102.755 33.4819Z" fill="white"/>
<path d="M91.1241 43.0364L87.1466 32.3455H89.2511L92.1133 40.8687L95.0175 32.3455H97.0378L93.0182 43.0364H91.1241Z" fill="white"/>
<path d="M85.5591 42.6365C84.591 43.1136 83.5107 43.3521 82.3181 43.3521C80.5784 43.3521 79.2525 42.868 78.3406 41.9C77.4286 40.9319 76.9727 39.5148 76.9727 37.6488C76.9727 36.4984 77.1761 35.5022 77.583 34.6604C77.9898 33.8046 78.5581 33.1522 79.2876 32.7032C80.0172 32.2543 80.852 32.0298 81.792 32.0298C83.1108 32.0298 84.149 32.4226 84.9067 33.2083C85.6643 33.994 86.0431 35.0813 86.0431 36.4703C86.0431 37.0175 85.994 37.5576 85.8958 38.0908H78.9298C78.9719 40.5741 80.1785 41.8158 82.5496 41.8158C83.5738 41.8158 84.577 41.5913 85.5591 41.1423V42.6365ZM81.792 33.4819C80.9782 33.4819 80.3118 33.7695 79.7927 34.3447C79.2876 34.92 79 35.6987 78.9298 36.6808H84.2122C84.2262 36.6106 84.2332 36.5405 84.2332 36.4703C84.2332 36.4002 84.2332 36.33 84.2332 36.2599C84.2332 35.39 84.0158 34.7095 83.5808 34.2185C83.1599 33.7274 82.5636 33.4819 81.792 33.4819Z" fill="white"/>
<path d="M67.2828 43.0364V35.839C67.2828 34.3377 66.5392 33.5871 65.052 33.5871C64.6592 33.5871 64.2172 33.6573 63.7262 33.7976C63.2491 33.9238 62.8142 34.0992 62.4214 34.3237V43.0364H60.4431V32.4717L62.0425 32.3034L62.1688 33.04C63.3193 32.3665 64.4627 32.0298 65.5992 32.0298C66.7637 32.0298 67.6616 32.3384 68.293 32.9558C68.9383 33.5591 69.261 34.4219 69.261 35.5443V43.0364H67.2828Z" fill="white"/>
<path d="M53.0202 41.7947C54.0023 41.7947 54.7109 41.472 55.1458 40.8266C55.5948 40.1813 55.8192 39.136 55.8192 37.6909C55.8192 36.2458 55.5948 35.2006 55.1458 34.5552C54.7109 33.9098 54.0023 33.5871 53.0202 33.5871C52.0381 33.5871 51.3226 33.9098 50.8736 34.5552C50.4387 35.2006 50.2212 36.2458 50.2212 37.6909C50.2212 39.136 50.4387 40.1813 50.8736 40.8266C51.3226 41.472 52.0381 41.7947 53.0202 41.7947ZM53.0202 43.3521C51.4208 43.3521 50.2072 42.875 49.3794 41.921C48.5657 40.9529 48.1588 39.5429 48.1588 37.6909C48.1588 35.839 48.5657 34.4359 49.3794 33.4819C50.2072 32.5138 51.4208 32.0298 53.0202 32.0298C54.6197 32.0298 55.8263 32.5138 56.64 33.4819C57.4678 34.4359 57.8817 35.839 57.8817 37.6909C57.8817 39.5429 57.4678 40.9529 56.64 41.921C55.8263 42.875 54.6197 43.3521 53.0202 43.3521Z" fill="white"/>
<path d="M33.0474 43.0364V27.2315L35.0256 27V36.9333L39.424 32.3455H41.6969L36.9197 37.3121L41.9284 43.0364H39.5293L35.0256 37.7962V43.0364H33.0474Z" fill="white"/>
<path d="M30.6114 42.6576C29.6434 43.1206 28.5701 43.3521 27.3915 43.3521C25.8482 43.3521 24.6557 42.861 23.8139 41.8789C22.972 40.8968 22.5511 39.5078 22.5511 37.712C22.5511 35.9021 22.972 34.5061 23.8139 33.524C24.6697 32.5279 25.8693 32.0298 27.4126 32.0298C28.4929 32.0298 29.5381 32.2613 30.5483 32.7243V34.2395C29.5802 33.8186 28.6542 33.6082 27.7703 33.6082C26.7321 33.6082 25.9464 33.9519 25.4133 34.6394C24.8801 35.3269 24.6136 36.344 24.6136 37.6909C24.6136 39.0238 24.8801 40.041 25.4133 40.7425C25.9464 41.4299 26.7321 41.7737 27.7703 41.7737C28.6542 41.7737 29.6013 41.5632 30.6114 41.1423V42.6576Z" fill="white"/>
<path d="M18.5072 43.0785L18.3809 42.3419C17.2024 43.0153 16.059 43.3521 14.9506 43.3521C13.8422 43.3521 12.9583 43.0574 12.2989 42.4682C11.6535 41.8649 11.3308 41.0581 11.3308 40.048C11.3308 38.9957 11.6956 38.182 12.4252 37.6067C13.1547 37.0175 14.1789 36.7228 15.4977 36.7228C16.2694 36.7228 17.1603 36.814 18.1705 36.9964V35.881C18.1705 35.1094 17.946 34.5342 17.497 34.1553C17.0621 33.7765 16.3887 33.5871 15.4767 33.5871C14.4104 33.5871 13.2459 33.8327 11.9832 34.3237V32.7874C12.5725 32.5489 13.2108 32.3665 13.8983 32.2402C14.5858 32.0999 15.2382 32.0298 15.8555 32.0298C17.2445 32.0298 18.2968 32.3525 19.0123 32.9979C19.7418 33.6432 20.1066 34.5903 20.1066 35.839V42.9101L18.5072 43.0785ZM15.4557 41.8158C15.8625 41.8158 16.3185 41.7456 16.8236 41.6053C17.3287 41.465 17.7776 41.2826 18.1705 41.0581V38.3644C17.5111 38.196 16.7324 38.1118 15.8345 38.1118C14.9927 38.1118 14.3683 38.2732 13.9615 38.5959C13.5686 38.9045 13.3722 39.3745 13.3722 40.0059C13.3722 41.2125 14.0667 41.8158 15.4557 41.8158Z" fill="white"/>
<path d="M1.97824 32.8716C3.0305 32.3104 4.01962 32.0298 4.94561 32.0298C6.32056 32.0298 7.39386 32.5208 8.16551 33.5029C8.9512 34.471 9.34404 35.8109 9.34404 37.5226C9.34404 39.4026 8.86702 40.8477 7.91297 41.8579C6.95892 42.854 5.59801 43.3521 3.83021 43.3521C2.56751 43.3521 1.29077 43.1697 0 42.8049V27.2315L1.97824 27V32.8716ZM4.48261 33.5871C4.1038 33.5871 3.6829 33.6573 3.21991 33.7976C2.77094 33.9238 2.35706 34.0992 1.97824 34.3237V41.5632C2.56751 41.7316 3.19185 41.8158 3.85126 41.8158C5.00173 41.8158 5.85756 41.465 6.41877 40.7635C6.994 40.062 7.28162 38.9957 7.28162 37.5647C7.28162 36.2599 7.04311 35.2707 6.56608 34.5973C6.10309 33.9238 5.4086 33.5871 4.48261 33.5871Z" fill="white"/>
<path d="M219.761 16.0364V0.231496L221.74 0V5.89264C222.82 5.3174 223.879 5.02979 224.917 5.02979C226.082 5.02979 226.98 5.33845 227.611 5.95577C228.257 6.55907 228.579 7.42192 228.579 8.54432V16.0364H226.601V8.83896C226.601 7.33774 225.857 6.58713 224.37 6.58713C223.977 6.58713 223.535 6.65728 223.044 6.79758C222.567 6.92385 222.132 7.09923 221.74 7.32371V16.0364H219.761Z" fill="white"/>
<path d="M209.448 14.0792C210.57 14.5702 211.692 14.8158 212.815 14.8158C213.628 14.8158 214.246 14.6614 214.667 14.3528C215.102 14.0441 215.319 13.6022 215.319 13.0269C215.319 12.6481 215.2 12.3395 214.961 12.101C214.723 11.8624 214.33 11.659 213.783 11.4906L212.352 11.0487C211.398 10.7541 210.703 10.3752 210.268 9.91226C209.833 9.44926 209.616 8.86 209.616 8.14446C209.616 7.19042 209.988 6.43279 210.731 5.87159C211.475 5.31039 212.478 5.02979 213.741 5.02979C214.807 5.02979 215.824 5.24024 216.792 5.66114V7.17639C215.726 6.76952 214.751 6.56608 213.867 6.56608C213.151 6.56608 212.59 6.70638 212.183 6.98698C211.791 7.25355 211.594 7.61834 211.594 8.08133C211.594 8.41805 211.699 8.68462 211.91 8.88104C212.12 9.06344 212.513 9.24583 213.088 9.42822L214.688 9.91226C216.427 10.4314 217.297 11.4626 217.297 13.0059C217.297 14.0862 216.926 14.914 216.182 15.4892C215.438 16.0645 214.365 16.3521 212.962 16.3521C211.657 16.3521 210.563 16.1346 209.679 15.6997L209.448 14.0792Z" fill="white"/>
<path d="M205.509 16.0785L205.383 15.3419C204.204 16.0153 203.061 16.3521 201.952 16.3521C200.844 16.3521 199.96 16.0574 199.301 15.4682C198.655 14.8649 198.333 14.0581 198.333 13.048C198.333 11.9957 198.697 11.182 199.427 10.6067C200.156 10.0175 201.181 9.72285 202.499 9.72285C203.271 9.72285 204.162 9.81405 205.172 9.99644V8.88104C205.172 8.10939 204.948 7.53416 204.499 7.15534C204.064 6.77653 203.39 6.58712 202.478 6.58712C201.412 6.58712 200.248 6.83265 198.985 7.3237V5.78741C199.574 5.5489 200.213 5.36651 200.9 5.24024C201.587 5.09994 202.24 5.02979 202.857 5.02979C204.246 5.02979 205.298 5.35248 206.014 5.99786C206.744 6.64324 207.108 7.59028 207.108 8.83895V15.9101L205.509 16.0785ZM202.457 14.8158C202.864 14.8158 203.32 14.7456 203.825 14.6053C204.33 14.465 204.779 14.2826 205.172 14.0581V11.3644C204.513 11.196 203.734 11.1118 202.836 11.1118C201.994 11.1118 201.37 11.2732 200.963 11.5959C200.57 11.9045 200.374 12.3745 200.374 13.0059C200.374 14.2125 201.068 14.8158 202.457 14.8158Z" fill="white"/>
<path d="M196.486 15.6576C195.518 16.1206 194.444 16.3521 193.266 16.3521C191.723 16.3521 190.53 15.861 189.688 14.8789C188.846 13.8968 188.426 12.5078 188.426 10.712C188.426 8.90209 188.846 7.5061 189.688 6.52399C190.544 5.52785 191.744 5.02979 193.287 5.02979C194.367 5.02979 195.413 5.26128 196.423 5.72427V7.23952C195.455 6.81862 194.529 6.60817 193.645 6.60817C192.607 6.60817 191.821 6.95191 191.288 7.63938C190.755 8.32686 190.488 9.34404 190.488 10.6909C190.488 12.0238 190.755 13.041 191.288 13.7425C191.821 14.4299 192.607 14.7737 193.645 14.7737C194.529 14.7737 195.476 14.5632 196.486 14.1423V15.6576Z" fill="white"/>
<path d="M167.846 16.0364L175.401 1.62049H177.148L169.593 16.0364H167.846ZM167.004 9.51241C167.621 9.51241 168.07 9.24584 168.351 8.7127C168.632 8.16552 168.772 7.28864 168.772 6.08205C168.772 4.87547 168.632 4.0056 168.351 3.47246C168.07 2.92528 167.621 2.6517 167.004 2.6517C166.387 2.6517 165.938 2.92528 165.657 3.47246C165.377 4.0056 165.236 4.87547 165.236 6.08205C165.236 7.28864 165.377 8.16552 165.657 8.7127C165.938 9.24584 166.387 9.51241 167.004 9.51241ZM167.004 10.7541C165.868 10.7541 164.998 10.3542 164.395 9.5545C163.791 8.74076 163.49 7.58327 163.49 6.08205C163.49 4.58083 163.791 3.43037 164.395 2.63065C164.998 1.81691 165.868 1.41003 167.004 1.41003C168.141 1.41003 169.01 1.81691 169.614 2.63065C170.217 3.43037 170.519 4.58083 170.519 6.08205C170.519 7.58327 170.217 8.74076 169.614 9.5545C169.01 10.3542 168.141 10.7541 167.004 10.7541ZM177.99 15.0052C178.607 15.0052 179.056 14.7386 179.337 14.2055C179.617 13.6583 179.758 12.7814 179.758 11.5748C179.758 10.3682 179.617 9.49838 179.337 8.96524C179.056 8.41806 178.607 8.14448 177.99 8.14448C177.372 8.14448 176.923 8.41806 176.643 8.96524C176.362 9.49838 176.222 10.3682 176.222 11.5748C176.222 12.7814 176.362 13.6583 176.643 14.2055C176.923 14.7386 177.372 15.0052 177.99 15.0052ZM177.99 16.2469C176.853 16.2469 175.983 15.847 175.38 15.0473C174.777 14.2335 174.475 13.0761 174.475 11.5748C174.475 10.0736 174.777 8.92315 175.38 8.12343C175.983 7.30969 176.853 6.90282 177.99 6.90282C179.126 6.90282 179.996 7.30969 180.599 8.12343C181.203 8.92315 181.504 10.0736 181.504 11.5748C181.504 13.0761 181.203 14.2335 180.599 15.0473C179.996 15.847 179.126 16.2469 177.99 16.2469Z" fill="white"/>
<path d="M152.375 13.8687C153.651 14.472 154.907 14.7737 156.142 14.7737C157.306 14.7737 158.204 14.4931 158.835 13.9319C159.467 13.3566 159.782 12.5499 159.782 11.5117C159.782 10.5717 159.516 9.8421 158.983 9.32298C158.464 8.80387 157.72 8.54432 156.752 8.54432C156.247 8.54432 155.735 8.61447 155.216 8.75477C154.711 8.88104 154.269 9.06343 153.89 9.30194L152.922 8.64954L153.595 1.62046H159.004C159.761 1.62046 160.456 1.59241 161.087 1.53629V3.28303H155.216L154.816 7.59728C155.166 7.44295 155.566 7.31668 156.015 7.21847C156.464 7.12026 156.899 7.07116 157.32 7.07116C158.695 7.07116 159.789 7.47803 160.603 8.29177C161.431 9.10552 161.845 10.1858 161.845 11.5327C161.845 12.5289 161.613 13.3917 161.15 14.1213C160.701 14.8368 160.063 15.391 159.235 15.7838C158.421 16.1627 157.481 16.3521 156.415 16.3521C155.728 16.3521 155.047 16.2819 154.374 16.1416C153.7 16.0013 153.118 15.8119 152.627 15.5734L152.375 13.8687Z" fill="white"/>
<path d="M149.163 16.1416C148.785 16.1416 148.476 16.0223 148.237 15.7838C147.999 15.5453 147.88 15.2367 147.88 14.8578C147.88 14.479 147.999 14.1704 148.237 13.9319C148.476 13.6934 148.785 13.5741 149.163 13.5741C149.542 13.5741 149.851 13.6934 150.089 13.9319C150.328 14.1704 150.447 14.479 150.447 14.8578C150.447 15.2367 150.328 15.5453 150.089 15.7838C149.851 16.0223 149.542 16.1416 149.163 16.1416Z" fill="white"/>
<path d="M142.937 16.0364V3.725L139.423 6.01892L139.023 4.3774L143.253 1.62048H144.916V16.0364H142.937Z" fill="white"/>
<path d="M131.88 0V15.9101L130.281 16.0785L130.154 15.3419C129.046 16.0153 127.973 16.3521 126.935 16.3521C125.56 16.3521 124.479 15.868 123.694 14.9C122.922 13.9178 122.536 12.571 122.536 10.8593C122.536 9.00732 122.992 7.57625 123.904 6.56608C124.816 5.54189 126.1 5.02979 127.755 5.02979C128.555 5.02979 129.271 5.128 129.902 5.32442V0.231496L131.88 0ZM127.398 14.7947C127.776 14.7947 128.19 14.7316 128.639 14.6053C129.102 14.465 129.523 14.2826 129.902 14.0581V6.81862C129.313 6.65026 128.688 6.56608 128.029 6.56608C126.878 6.56608 126.016 6.91683 125.44 7.61834C124.879 8.31984 124.599 9.38613 124.599 10.8172C124.599 12.122 124.83 13.1111 125.293 13.7846C125.77 14.458 126.472 14.7947 127.398 14.7947Z" fill="white"/>
<path d="M120.107 15.6365C119.139 16.1136 118.058 16.3521 116.866 16.3521C115.126 16.3521 113.8 15.868 112.888 14.9C111.976 13.9319 111.52 12.5148 111.52 10.6488C111.52 9.49837 111.724 8.50223 112.131 7.66043C112.537 6.80459 113.106 6.15219 113.835 5.70323C114.565 5.25427 115.4 5.02979 116.34 5.02979C117.658 5.02979 118.697 5.42263 119.454 6.20831C120.212 6.994 120.591 8.08133 120.591 9.47031C120.591 10.0175 120.542 10.5576 120.443 11.0908H113.477C113.52 13.5741 114.726 14.8158 117.097 14.8158C118.121 14.8158 119.125 14.5913 120.107 14.1423V15.6365ZM116.34 6.4819C115.526 6.4819 114.859 6.76952 114.34 7.34475C113.835 7.91998 113.548 8.69865 113.477 9.68076H118.76C118.774 9.61061 118.781 9.54046 118.781 9.47031C118.781 9.40016 118.781 9.33001 118.781 9.25986C118.781 8.38999 118.563 7.70953 118.128 7.21848C117.708 6.72743 117.111 6.4819 116.34 6.4819Z" fill="white"/>
<path d="M106.947 6.77653V12.9217C106.947 13.5531 107.087 14.0231 107.368 14.3317C107.649 14.6264 108.076 14.7737 108.652 14.7737C109.087 14.7737 109.55 14.6965 110.041 14.5422V15.9522C109.451 16.1767 108.841 16.2889 108.21 16.2889C107.143 16.2889 106.337 16.0083 105.79 15.4471C105.242 14.8859 104.969 14.0652 104.969 12.9848V6.77653H103.369V5.42964L105.053 5.3665L105.2 2.69377L106.947 2.50436V5.34546H109.935V6.77653H106.947Z" fill="white"/>
<path d="M99.3479 16.0364V5.51381L101.326 5.28231V16.0364H99.3479ZM100.337 3.15675C99.9302 3.15675 99.6075 3.05152 99.3689 2.84107C99.1445 2.61659 99.0322 2.31495 99.0322 1.93613C99.0322 1.55732 99.1445 1.26269 99.3689 1.05224C99.6075 0.827756 99.9302 0.715515 100.337 0.715515C100.744 0.715515 101.06 0.827756 101.284 1.05224C101.523 1.26269 101.642 1.55732 101.642 1.93613C101.642 2.31495 101.523 2.61659 101.284 2.84107C101.06 3.05152 100.744 3.15675 100.337 3.15675Z" fill="white"/>
<path d="M94.3003 16.0364V8.60746C94.3003 7.26057 93.6479 6.58712 92.3431 6.58712C91.5574 6.58712 90.7296 6.84668 89.8598 7.36579C89.9299 7.67446 89.965 7.98312 89.965 8.29178V16.0364H87.9868V8.60746C87.9868 7.26057 87.3344 6.58712 86.0296 6.58712C85.2579 6.58712 84.4652 6.83265 83.6515 7.3237V16.0364H81.6732V5.47173L83.2726 5.30337L83.3989 6.03995C84.4792 5.36651 85.5385 5.02979 86.5767 5.02979C87.7833 5.02979 88.6953 5.41561 89.3126 6.18727C90.5753 5.41561 91.7679 5.02979 92.8903 5.02979C93.9425 5.02979 94.7703 5.3174 95.3736 5.89264C95.9769 6.46787 96.2785 7.26758 96.2785 8.29178V16.0364H94.3003Z" fill="white"/>
<path d="M76.4941 16.0364V5.51381L78.4724 5.28231V16.0364H76.4941ZM77.4833 3.15675C77.0764 3.15675 76.7537 3.05152 76.5152 2.84107C76.2907 2.61659 76.1785 2.31495 76.1785 1.93613C76.1785 1.55732 76.2907 1.26269 76.5152 1.05224C76.7537 0.827756 77.0764 0.715515 77.4833 0.715515C77.8901 0.715515 78.2058 0.827756 78.4303 1.05224C78.6688 1.26269 78.7881 1.55732 78.7881 1.93613C78.7881 2.31495 78.6688 2.61659 78.4303 2.84107C78.2058 3.05152 77.8901 3.15675 77.4833 3.15675Z" fill="white"/>
<path d="M71.3151 16.0364V0.231496L73.2933 0V16.0364H71.3151Z" fill="white"/>
<path d="M66.2552 16.0364V8.83895C66.2552 7.33774 65.5116 6.58712 64.0244 6.58712C63.6316 6.58712 63.1896 6.65728 62.6986 6.79758C62.2215 6.92385 61.7866 7.09922 61.3938 7.3237V16.0364H59.4155V5.47173L61.015 5.30337L61.1412 6.03995C62.2917 5.36651 63.4351 5.02979 64.5716 5.02979C65.7361 5.02979 66.634 5.33845 67.2654 5.95577C67.9107 6.55906 68.2334 7.42192 68.2334 8.54432V16.0364H66.2552Z" fill="white"/>
<path d="M54.6273 16.0785L54.501 15.3419C53.3505 16.0153 52.2071 16.3521 51.0706 16.3521C49.9342 16.3521 49.0503 16.0434 48.419 15.4261C47.7876 14.8088 47.4719 13.9459 47.4719 12.8375V5.34546H49.4502V12.5429C49.4502 14.0441 50.1727 14.7947 51.6178 14.7947C52.0247 14.7947 52.4666 14.7316 52.9437 14.6053C53.4207 14.465 53.8556 14.2826 54.2485 14.0581V5.34546H56.2267V15.9101L54.6273 16.0785Z" fill="white"/>
<path d="M37.277 16.0364V8.83895C37.277 7.33774 36.5335 6.58712 35.0463 6.58712C34.6534 6.58712 34.2115 6.65728 33.7204 6.79758C33.2434 6.92385 32.8085 7.09922 32.4156 7.3237V16.0364H30.4374V5.47173L32.0368 5.30337L32.1631 6.03995C33.3135 5.36651 34.457 5.02979 35.5934 5.02979C36.7579 5.02979 37.6559 5.33845 38.2872 5.95577C38.9326 6.55906 39.2553 7.42192 39.2553 8.54432V16.0364H37.277Z" fill="white"/>
<path d="M22.751 16.0364V5.47174L24.3504 5.30338L24.5188 6.27145C25.4448 5.48577 26.4339 5.09293 27.4861 5.09293C27.8088 5.09293 28.1315 5.14203 28.4542 5.24024V6.86072C28.1175 6.77654 27.7737 6.73445 27.423 6.73445C26.4128 6.73445 25.5149 7.05012 24.7292 7.68148V16.0364H22.751Z" fill="white"/>
<path d="M18.0756 16.0785L17.9493 15.3419C16.7708 16.0153 15.6273 16.3521 14.5189 16.3521C13.4106 16.3521 12.5267 16.0574 11.8672 15.4682C11.2219 14.8649 10.8992 14.0581 10.8992 13.048C10.8992 11.9957 11.264 11.182 11.9935 10.6067C12.7231 10.0175 13.7473 9.72285 15.0661 9.72285C15.8378 9.72285 16.7287 9.81405 17.7388 9.99644V8.88104C17.7388 8.10939 17.5144 7.53416 17.0654 7.15534C16.6305 6.77653 15.957 6.58712 15.0451 6.58712C13.9788 6.58712 12.8143 6.83265 11.5516 7.3237V5.78741C12.1408 5.5489 12.7792 5.36651 13.4667 5.24024C14.1542 5.09994 14.8066 5.02979 15.4239 5.02979C16.8129 5.02979 17.8651 5.35248 18.5806 5.99786C19.3102 6.64324 19.675 7.59028 19.675 8.83895V15.9101L18.0756 16.0785ZM15.024 14.8158C15.4309 14.8158 15.8869 14.7456 16.3919 14.6053C16.897 14.465 17.346 14.2826 17.7388 14.0581V11.3644C17.0794 11.196 16.3008 11.1118 15.4028 11.1118C14.561 11.1118 13.9367 11.2732 13.5298 11.5959C13.137 11.9045 12.9405 12.3745 12.9405 13.0059C12.9405 14.2125 13.635 14.8158 15.024 14.8158Z" fill="white"/>
<path d="M2.31494 9.40719V14.3528H9.25983V16.0364H0.27356V1.30481H9.21774V2.98842H2.31494V7.72358H8.33385V9.40719H2.31494Z" fill="white"/>
</svg>
