<svg width="102" height="24" viewBox="0 0 102 24" fill="none" xmlns="http://www.w3.org/2000/svg">
<path d="M30.6678 12.7984C30.3808 12.9084 30.0579 13.0184 29.6273 13.0917C29.1968 13.2017 28.4075 13.3483 27.2594 13.5316C26.4701 13.6416 25.9319 13.8249 25.609 14.0449C25.322 14.2648 25.1426 14.5581 25.0708 14.8881C24.9991 15.2547 25.1067 15.5113 25.4296 15.7313C25.7166 15.9512 26.2548 16.0612 26.9724 16.0612C27.5105 16.0612 28.0487 15.9879 28.551 15.8046C29.0533 15.6213 29.5197 15.4013 29.8426 15.108C30.0937 14.8881 30.2731 14.6315 30.3808 14.2648C30.4525 14.0449 30.5601 13.5683 30.6678 12.7984ZM37.2693 8.61908C37.2334 9.24231 37.1258 9.79222 36.9823 10.7454L35.8701 17.161C35.7624 17.711 35.9777 18.1876 36.48 18.4808L36.4441 18.7375H30.0579L29.9861 17.1244C29.0533 17.711 27.9411 18.1876 26.9006 18.4808C25.896 18.7375 25.0708 18.8474 23.851 18.8474C21.7701 18.8474 20.622 18.6275 19.7968 17.8943C18.9716 17.1244 18.577 16.6478 18.6128 15.5846C18.6487 14.9981 18.9357 14.2282 19.4021 13.6783C19.8327 13.1284 20.4426 12.7617 21.0884 12.4685C21.7342 12.1385 22.5235 11.9185 23.6357 11.7352C24.7838 11.5519 26.3266 11.3686 28.4434 11.1853C29.5556 11.0754 30.2372 10.8187 30.5601 10.7087C30.9907 10.5254 31.1701 10.3421 31.2418 9.97553C31.3495 9.31563 31.1701 8.94902 30.309 8.76572C28.0128 8.28913 23.7075 9.05901 21.4831 9.64558L22.7029 6.30944C25.6449 5.86951 28.3716 5.57623 31.2777 5.57623C35.8342 5.53957 37.3052 6.89602 37.2693 8.61908Z" fill="white"/>
<path d="M55.7823 18.7008L58.0068 5.90618H64.1419L61.9175 18.7008H55.7823ZM58.3655 2.97332C58.5449 1.91015 60.1594 1.06696 61.9892 1.06696C63.819 1.06696 65.1465 1.91015 64.9671 2.97332C64.7877 4.03648 63.1373 4.87968 61.3434 4.87968C59.4778 4.87968 58.1503 3.99982 58.3655 2.97332Z" fill="white"/>
<path d="M85.848 12.8351C85.5609 12.9451 85.2022 13.0184 84.7716 13.1284C84.3411 13.2384 83.5518 13.3484 82.4037 13.5683C81.6144 13.6783 81.0762 13.8616 80.7533 14.0816C80.4663 14.3015 80.2869 14.5582 80.2151 14.8881C80.1434 15.2547 80.2869 15.5114 80.5739 15.7313C80.8968 15.9513 81.3991 16.0613 82.1167 16.0613C82.6548 16.0613 83.1571 15.9879 83.6953 15.8046C84.2335 15.6213 84.664 15.4014 84.9869 15.1081C85.238 14.8881 85.4174 14.5948 85.5251 14.2649C85.5968 14.0816 85.7045 13.605 85.848 12.8351ZM92.4495 8.61911C92.4136 9.24235 92.306 9.79226 92.1625 10.7454L91.0502 17.1611C90.9426 17.711 91.1579 18.1876 91.6602 18.4809L91.6243 18.7008H85.238L85.2022 17.0878C84.2693 17.6743 83.1571 18.1509 82.1167 18.4442C81.1121 18.7008 80.2869 18.8108 79.0312 18.8108C76.9861 18.8108 75.8022 18.5909 74.977 17.8576C74.1518 17.0878 73.7571 16.6112 73.793 15.5847C73.8289 14.9981 74.1159 14.2282 74.5465 13.6783C74.977 13.1284 75.5869 12.7618 76.2686 12.4685C76.9144 12.1386 77.7037 11.9186 78.8159 11.7353C79.964 11.552 81.5426 11.3687 83.6235 11.1854C84.7358 11.0754 85.3815 10.8188 85.7044 10.7088C86.135 10.5255 86.3144 10.3422 86.3861 9.97556C86.4938 9.31567 86.3144 8.94906 85.4533 8.76576C83.1571 8.28917 78.8518 9.05904 76.6274 9.64562L77.8472 6.30948C80.7892 5.86955 83.5159 5.57626 86.422 5.57626C91.0144 5.57626 92.4854 6.89605 92.4495 8.61911Z" fill="white"/>
<path d="M17.7877 14.1182C15.7786 14.5215 14.6664 14.6681 12.6931 14.6681C9.78699 14.6681 7.45493 13.2017 7.56256 10.4522C7.63432 8.65577 9.75111 4.80639 15.0969 4.80639C16.7832 4.80639 18.0748 5.09967 19.8687 6.12617L20.658 1.69021C18.2542 0.773694 16.6755 0.627051 14.5946 0.663712C7.59844 0.773694 0.889292 3.99985 0.0641023 10.5988C-0.796965 17.3077 7.23966 18.9941 10.7916 18.9941C12.8366 18.9941 14.9893 18.8841 16.9625 18.7008L17.7877 14.1182Z" fill="white"/>
<path d="M67.5144 5.83289L67.9449 3.22997L74.3312 1.8002L73.6495 5.83289H76.7709L76.1609 8.39915H73.1113L71.2815 18.7008C71.2815 18.7008 65.1106 18.6642 65.1106 18.7008L66.9403 8.43581H64.6083L65.0747 5.83289H67.5144Z" fill="white"/>
<path d="M98.6563 18.7008H92.4136L95.5708 0.883667L101.634 1.03031L98.6563 18.7008Z" fill="white"/>
<path d="M47.7098 8.9124C46.9204 8.9124 46.167 9.16902 45.5212 9.64561C44.8754 10.1589 44.4808 10.8554 44.3014 11.8453C44.122 12.9451 44.2296 13.7516 44.6601 14.2649C45.0907 14.7415 45.7365 14.9981 46.5617 14.9981C47.0998 14.9981 47.7098 14.8881 48.1044 14.6681C48.6426 14.3749 49.0014 14.0816 49.2884 13.605C49.6113 13.0917 49.8624 12.5418 49.9701 11.9186C50.1494 10.8921 50.0059 10.1589 49.5395 9.64561C49.109 9.16902 48.4991 8.9124 47.7098 8.9124ZM36.5518 23.1368L39.5296 6.01619H44.9113L44.4808 8.21584C44.9472 7.55594 45.7006 7.04269 46.7052 6.60276C47.7456 6.16283 48.8937 5.83289 50.1853 5.83289C51.5846 5.83289 52.4456 5.90621 53.4861 6.45612C54.5265 7.00603 55.2441 7.81257 55.6388 8.87573C56.0334 9.90224 56.141 11.0754 55.8899 12.3585C55.5311 14.4848 54.5265 16.1346 52.8762 17.3444C51.2258 18.5542 49.7548 18.8841 47.638 18.8841C46.8846 18.8841 46.2746 18.8108 45.7365 18.6642C45.2342 18.5175 44.8395 18.3709 44.5166 18.1509C44.2296 17.931 43.9067 17.6743 43.5121 17.2344L42.5075 23.1001H36.5518V23.1368Z" fill="white"/>
</svg>
