<svg width="408" height="23" viewBox="0 0 408 23" fill="none" xmlns="http://www.w3.org/2000/svg">
<path d="M399.386 17.64V0.4129L400.763 0.229389V11.2171L406.176 6.10173H407.805L402.139 11.4694L407.988 17.64H406.245L400.763 11.8135V17.64H399.386Z" fill="white"/>
<path d="M396.199 17.2271C395.19 17.7317 394.089 17.9841 392.896 17.9841C391.275 17.9841 390.021 17.4565 389.134 16.4013C388.262 15.3461 387.826 13.8398 387.826 11.8823C387.826 9.92487 388.262 8.41856 389.134 7.36337C390.021 6.29289 391.275 5.75765 392.896 5.75765C394.043 5.75765 395.129 6.00998 396.153 6.51463V7.59276C395.083 7.11869 394.043 6.88166 393.034 6.88166C391.795 6.88166 390.854 7.3022 390.212 8.14329C389.585 8.98438 389.272 10.2307 389.272 11.8823C389.272 13.5186 389.585 14.7573 390.212 15.5984C390.854 16.4395 391.795 16.8601 393.034 16.8601C394.073 16.8601 395.129 16.623 396.199 16.1489V17.2271Z" fill="white"/>
<path d="M383.502 17.6858L383.41 16.883C382.095 17.617 380.795 17.9841 379.51 17.9841C378.333 17.9841 377.4 17.6782 376.712 17.0665C376.024 16.4395 375.68 15.5831 375.68 14.4973C375.68 13.3504 376.062 12.4787 376.827 11.8823C377.607 11.2706 378.746 10.9648 380.245 10.9648C381.147 10.9648 382.171 11.0718 383.318 11.2859V9.72607C383.318 7.8145 382.24 6.85872 380.084 6.85872C379.518 6.85872 378.899 6.93518 378.226 7.0881C377.553 7.24103 376.934 7.43983 376.368 7.68451V6.60639C376.918 6.34642 377.545 6.13997 378.249 5.98704C378.968 5.83411 379.648 5.75765 380.29 5.75765C381.728 5.75765 382.814 6.10173 383.548 6.7899C384.297 7.46277 384.672 8.4415 384.672 9.72607V17.5712L383.502 17.6858ZM379.832 16.883C380.382 16.883 380.963 16.7989 381.575 16.6307C382.187 16.4624 382.768 16.2331 383.318 15.9425V12.2723C382.355 12.0888 381.407 11.997 380.474 11.997C379.296 11.997 378.44 12.1958 377.905 12.5934C377.37 12.991 377.102 13.618 377.102 14.4744C377.102 16.0801 378.012 16.883 379.832 16.883Z" fill="white"/>
<path d="M364.837 6.7899C365.418 6.46875 366.007 6.21643 366.604 6.03292C367.215 5.84941 367.781 5.75765 368.301 5.75765C369.8 5.75765 370.977 6.28524 371.834 7.34043C372.69 8.38032 373.118 9.82547 373.118 11.6759C373.118 13.7098 372.629 15.2696 371.65 16.3554C370.687 17.4412 369.287 17.9841 367.452 17.9841C366.152 17.9841 364.822 17.77 363.461 17.3418V0.4129L364.837 0.229389V6.7899ZM368.118 6.85871C367.613 6.85871 367.07 6.94282 366.489 7.11104C365.908 7.27926 365.357 7.50865 364.837 7.79921V16.516C365.632 16.7606 366.466 16.883 367.338 16.883C368.806 16.883 369.891 16.4624 370.595 15.6214C371.314 14.765 371.673 13.4575 371.673 11.6988C371.673 10.1237 371.367 8.92321 370.755 8.09741C370.159 7.27161 369.28 6.85871 368.118 6.85871Z" fill="white"/>
<path d="M344.521 17.64V0.4129L345.897 0.229389V6.81284C347.182 6.10938 348.444 5.75765 349.682 5.75765C350.921 5.75765 351.877 6.07879 352.55 6.72108C353.238 7.36337 353.582 8.27328 353.582 9.4508V17.64H352.206V9.68019C352.206 7.79921 351.25 6.85871 349.338 6.85871C348.834 6.85871 348.275 6.94282 347.664 7.11104C347.067 7.27926 346.478 7.50865 345.897 7.79921V17.64H344.521Z" fill="white"/>
<path d="M333.294 16.126C334.441 16.6307 335.626 16.883 336.85 16.883C338.914 16.883 339.946 16.0801 339.946 14.4744C339.946 13.9545 339.794 13.5339 339.488 13.2128C339.197 12.8916 338.708 12.624 338.02 12.4099L336.276 11.8594C335.297 11.5535 334.586 11.1712 334.143 10.7124C333.699 10.2384 333.478 9.64196 333.478 8.92321C333.478 7.95978 333.852 7.19515 334.602 6.62933C335.366 6.04821 336.391 5.75765 337.676 5.75765C338.761 5.75765 339.794 5.9641 340.772 6.377V7.45513C339.748 7.05752 338.738 6.85872 337.744 6.85872C336.842 6.85872 336.131 7.04223 335.611 7.40925C335.106 7.76098 334.854 8.25034 334.854 8.87733C334.854 9.32082 334.992 9.68019 335.267 9.95546C335.557 10.2154 336.07 10.4678 336.804 10.7124L338.616 11.3089C339.549 11.6147 340.229 12.02 340.658 12.5246C341.101 13.0293 341.323 13.6716 341.323 14.4515C341.323 15.5831 340.94 16.4548 340.176 17.0665C339.411 17.6782 338.333 17.9841 336.941 17.9841C335.657 17.9841 334.502 17.747 333.478 17.2729L333.294 16.126Z" fill="white"/>
<path d="M329.107 17.6858L329.015 16.883C327.7 17.617 326.4 17.9841 325.116 17.9841C323.938 17.9841 323.005 17.6782 322.317 17.0665C321.629 16.4395 321.285 15.5831 321.285 14.4973C321.285 13.3504 321.667 12.4787 322.432 11.8823C323.212 11.2706 324.351 10.9648 325.85 10.9648C326.752 10.9648 327.777 11.0718 328.924 11.2859V9.72607C328.924 7.8145 327.845 6.85872 325.689 6.85872C325.123 6.85872 324.504 6.93518 323.831 7.0881C323.158 7.24103 322.539 7.43983 321.973 7.68451V6.60639C322.524 6.34642 323.151 6.13997 323.854 5.98704C324.573 5.83411 325.253 5.75765 325.896 5.75765C327.333 5.75765 328.419 6.10173 329.153 6.7899C329.902 7.46277 330.277 8.4415 330.277 9.72607V17.5712L329.107 17.6858ZM325.437 16.883C325.987 16.883 326.568 16.7989 327.18 16.6307C327.792 16.4624 328.373 16.2331 328.924 15.9425V12.2723C327.96 12.0888 327.012 11.997 326.079 11.997C324.902 11.997 324.045 12.1958 323.51 12.5934C322.975 12.991 322.707 13.618 322.707 14.4744C322.707 16.0801 323.617 16.883 325.437 16.883Z" fill="white"/>
<path d="M318.855 17.2271C317.846 17.7317 316.744 17.9841 315.552 17.9841C313.931 17.9841 312.677 17.4565 311.79 16.4013C310.918 15.3461 310.482 13.8398 310.482 11.8823C310.482 9.92487 310.918 8.41856 311.79 7.36337C312.677 6.29289 313.931 5.75765 315.552 5.75765C316.699 5.75765 317.784 6.00998 318.809 6.51463V7.59276C317.738 7.11869 316.699 6.88166 315.689 6.88166C314.451 6.88166 313.51 7.3022 312.868 8.14329C312.241 8.98438 311.927 10.2307 311.927 11.8823C311.927 13.5186 312.241 14.7573 312.868 15.5984C313.51 16.4395 314.451 16.8601 315.689 16.8601C316.729 16.8601 317.784 16.623 318.855 16.1489V17.2271Z" fill="white"/>
<path d="M299.984 17.64V9.68019C299.984 7.79921 299.028 6.85872 297.116 6.85872C296.612 6.85872 296.054 6.94282 295.442 7.11104C294.846 7.27926 294.257 7.50865 293.676 7.79921V17.64H292.299V6.17055L293.469 6.05586L293.561 6.85872C294.891 6.12467 296.191 5.75765 297.461 5.75765C298.699 5.75765 299.655 6.0788 300.328 6.72108C301.016 7.36337 301.36 8.27328 301.36 9.4508V17.64H299.984Z" fill="white"/>
<path d="M284.185 17.64V6.17055L285.355 6.05586L285.469 7.0881C286.494 6.24701 287.587 5.82647 288.75 5.82647C289.163 5.82647 289.491 5.87234 289.736 5.9641V7.0881C289.338 6.99635 288.987 6.95047 288.681 6.95047C287.595 6.95047 286.555 7.34043 285.561 8.12035V17.64H284.185Z" fill="white"/>
<path d="M279.103 17.6858L279.011 16.883C277.696 17.617 276.396 17.9841 275.112 17.9841C273.934 17.9841 273.001 17.6782 272.313 17.0665C271.625 16.4395 271.281 15.5831 271.281 14.4973C271.281 13.3504 271.663 12.4787 272.428 11.8823C273.208 11.2706 274.347 10.9648 275.846 10.9648C276.748 10.9648 277.773 11.0718 278.92 11.2859V9.72607C278.92 7.8145 277.841 6.85872 275.685 6.85872C275.119 6.85872 274.5 6.93518 273.827 7.0881C273.154 7.24103 272.535 7.43983 271.969 7.68451V6.60639C272.52 6.34642 273.147 6.13997 273.85 5.98704C274.569 5.83411 275.249 5.75765 275.892 5.75765C277.329 5.75765 278.415 6.10173 279.149 6.7899C279.898 7.46277 280.273 8.4415 280.273 9.72607V17.5712L279.103 17.6858ZM275.433 16.883C275.983 16.883 276.565 16.7989 277.176 16.6307C277.788 16.4624 278.369 16.2331 278.92 15.9425V12.2723C277.956 12.0888 277.008 11.997 276.075 11.997C274.898 11.997 274.041 12.1958 273.506 12.5934C272.971 12.991 272.703 13.618 272.703 14.4744C272.703 16.0801 273.613 16.883 275.433 16.883Z" fill="white"/>
<path d="M268.235 17.2271C267.18 17.7317 266.049 17.9841 264.841 17.9841C263.082 17.9841 261.729 17.4641 260.78 16.4242C259.832 15.3843 259.358 13.8933 259.358 11.9511C259.358 10.0243 259.802 8.51031 260.689 7.40925C261.576 6.30818 262.791 5.75765 264.336 5.75765C265.697 5.75765 266.767 6.18584 267.547 7.04223C268.343 7.88332 268.74 9.03791 268.74 10.506C268.74 11.0565 268.694 11.5841 268.603 12.0888H260.712C260.727 15.2849 262.141 16.883 264.955 16.883C266.087 16.883 267.18 16.6383 268.235 16.1489V17.2271ZM264.313 6.83578C263.273 6.83578 262.424 7.21809 261.767 7.98272C261.109 8.74735 260.757 9.77195 260.712 11.0565H267.41C267.44 10.8118 267.456 10.5977 267.456 10.4142C267.456 9.28259 267.18 8.40326 266.63 7.77627C266.079 7.14927 265.307 6.83578 264.313 6.83578Z" fill="white"/>
<path d="M245.778 17.9841C244.112 17.9841 242.85 17.4718 241.994 16.4472C241.152 15.4073 240.732 13.878 240.732 11.8594C240.732 9.85606 241.152 8.34209 241.994 7.31749C242.85 6.2776 244.112 5.75765 245.778 5.75765C247.445 5.75765 248.699 6.2776 249.54 7.31749C250.397 8.34209 250.825 9.85606 250.825 11.8594C250.825 13.878 250.397 15.4073 249.54 16.4472C248.699 17.4718 247.445 17.9841 245.778 17.9841ZM245.778 16.883C247.032 16.883 247.942 16.4854 248.508 15.6902C249.089 14.8797 249.38 13.6027 249.38 11.8594C249.38 10.1313 249.089 8.86969 248.508 8.07447C247.942 7.26397 247.032 6.85872 245.778 6.85872C244.524 6.85872 243.607 7.26397 243.026 8.07447C242.46 8.86969 242.177 10.1313 242.177 11.8594C242.177 13.6027 242.46 14.8797 243.026 15.6902C243.607 16.4854 244.524 16.883 245.778 16.883Z" fill="white"/>
<path d="M235.251 7.15692V14.4973C235.251 15.2926 235.419 15.8813 235.756 16.2636C236.092 16.6307 236.612 16.8142 237.316 16.8142C237.774 16.8142 238.294 16.7301 238.875 16.5618V17.5712C238.233 17.7853 237.644 17.8923 237.109 17.8923C236.054 17.8923 235.251 17.6094 234.701 17.0436C234.15 16.4624 233.875 15.6061 233.875 14.4744V7.15692H232.131V6.17055L233.921 6.10173L234.058 3.21144L235.251 3.07381V6.10173H238.715V7.15692H235.251Z" fill="white"/>
<path d="M222.298 17.64V9.68019C222.298 7.79921 221.342 6.85872 219.431 6.85872C218.926 6.85872 218.368 6.94282 217.756 7.11104C217.16 7.27926 216.571 7.50865 215.99 7.79921V17.64H214.614V6.17055L215.784 6.05586L215.875 6.85872C217.206 6.12467 218.506 5.75765 219.775 5.75765C221.014 5.75765 221.969 6.0788 222.642 6.72108C223.331 7.36337 223.675 8.27328 223.675 9.4508V17.64H222.298Z" fill="white"/>
<path d="M209.532 17.6858L209.44 16.883C208.125 17.617 206.825 17.9841 205.541 17.9841C204.363 17.9841 203.43 17.6782 202.742 17.0665C202.054 16.4395 201.71 15.5831 201.71 14.4973C201.71 13.3504 202.092 12.4787 202.857 11.8823C203.637 11.2706 204.776 10.9648 206.275 10.9648C207.177 10.9648 208.202 11.0718 209.349 11.2859V9.72607C209.349 7.8145 208.27 6.85872 206.114 6.85872C205.548 6.85872 204.929 6.93518 204.256 7.0881C203.583 7.24103 202.964 7.43983 202.398 7.68451V6.60639C202.949 6.34642 203.576 6.13997 204.279 5.98704C204.998 5.83411 205.678 5.75765 206.321 5.75765C207.758 5.75765 208.844 6.10173 209.578 6.7899C210.327 7.46277 210.702 8.4415 210.702 9.72607V17.5712L209.532 17.6858ZM205.862 16.883C206.412 16.883 206.994 16.7989 207.605 16.6307C208.217 16.4624 208.798 16.2331 209.349 15.9425V12.2723C208.385 12.0888 207.437 11.997 206.504 11.997C205.327 11.997 204.47 12.1958 203.935 12.5934C203.4 12.991 203.132 13.618 203.132 14.4744C203.132 16.0801 204.042 16.883 205.862 16.883Z" fill="white"/>
<path d="M197.018 17.64V0.4129L198.394 0.229389V17.64H197.018Z" fill="white"/>
<path d="M184.042 22.7553V6.17055L185.212 6.05586L185.304 6.85872C186.604 6.12467 187.797 5.75765 188.883 5.75765C190.381 5.75765 191.559 6.28524 192.415 7.34043C193.272 8.38033 193.7 9.82547 193.7 11.6759C193.7 13.7098 193.21 15.2696 192.232 16.3554C191.268 17.4412 189.869 17.9841 188.034 17.9841C187.086 17.9841 186.214 17.8617 185.419 17.617V22.5718L184.042 22.7553ZM188.699 6.85872C188.194 6.85872 187.652 6.94282 187.07 7.11104C186.489 7.27926 185.939 7.50865 185.419 7.79921V16.516C186.214 16.7606 187.047 16.883 187.919 16.883C189.387 16.883 190.473 16.4624 191.176 15.6214C191.895 14.765 192.255 13.4575 192.255 11.6988C192.255 10.1237 191.949 8.92321 191.337 8.09741C190.741 7.27162 189.861 6.85872 188.699 6.85872Z" fill="white"/>
<path d="M174.276 17.2271C173.221 17.7317 172.089 17.9841 170.881 17.9841C169.122 17.9841 167.769 17.4641 166.821 16.4242C165.873 15.3843 165.398 13.8933 165.398 11.9511C165.398 10.0243 165.842 8.51031 166.729 7.40925C167.616 6.30818 168.832 5.75765 170.376 5.75765C171.737 5.75765 172.808 6.18584 173.588 7.04223C174.383 7.88332 174.78 9.03791 174.78 10.506C174.78 11.0565 174.735 11.5841 174.643 12.0888H166.752C166.767 15.2849 168.182 16.883 170.996 16.883C172.127 16.883 173.221 16.6383 174.276 16.1489V17.2271ZM170.353 6.83578C169.313 6.83578 168.465 7.21809 167.807 7.98272C167.149 8.74735 166.798 9.77195 166.752 11.0565H173.45C173.481 10.8118 173.496 10.5977 173.496 10.4142C173.496 9.28259 173.221 8.40326 172.67 7.77627C172.12 7.14927 171.347 6.83578 170.353 6.83578Z" fill="white"/>
<path d="M160.851 17.64V9.4508C160.851 7.72275 160.033 6.85872 158.397 6.85872C157.449 6.85872 156.363 7.2028 155.139 7.89096C155.262 8.30386 155.323 8.74735 155.323 9.22142V17.64H153.947V9.4508C153.947 7.72275 153.128 6.85872 151.492 6.85872C150.575 6.85872 149.55 7.17221 148.418 7.79921V17.64H147.042V6.17055L148.212 6.05586L148.304 6.85872C149.603 6.12467 150.781 5.75765 151.836 5.75765C153.182 5.75765 154.153 6.20114 154.749 7.0881C156.233 6.20114 157.563 5.75765 158.741 5.75765C159.857 5.75765 160.714 6.05586 161.31 6.65227C161.922 7.24868 162.228 8.10506 162.228 9.22142V17.64H160.851Z" fill="white"/>
<path d="M141.96 17.6858L141.869 16.883C140.553 17.617 139.254 17.9841 137.969 17.9841C136.791 17.9841 135.859 17.6782 135.17 17.0665C134.482 16.4395 134.138 15.5831 134.138 14.4973C134.138 13.3504 134.52 12.4787 135.285 11.8823C136.065 11.2706 137.204 10.9648 138.703 10.9648C139.605 10.9648 140.63 11.0718 141.777 11.2859V9.72607C141.777 7.8145 140.699 6.85872 138.542 6.85872C137.977 6.85872 137.357 6.93518 136.684 7.0881C136.012 7.24103 135.392 7.43983 134.826 7.68451V6.60639C135.377 6.34642 136.004 6.13997 136.707 5.98704C137.426 5.83411 138.107 5.75765 138.749 5.75765C140.186 5.75765 141.272 6.10173 142.006 6.7899C142.756 7.46277 143.13 8.4415 143.13 9.72607V17.5712L141.96 17.6858ZM138.29 16.883C138.841 16.883 139.422 16.7989 140.033 16.6307C140.645 16.4624 141.226 16.2331 141.777 15.9425V12.2723C140.813 12.0888 139.865 11.997 138.932 11.997C137.755 11.997 136.898 12.1958 136.363 12.5934C135.828 12.991 135.56 13.618 135.56 14.4744C135.56 16.0801 136.47 16.883 138.29 16.883Z" fill="white"/>
<path d="M125.681 22.9847C124.32 22.9847 123.166 22.7477 122.218 22.2736L122.034 21.1037C123.288 21.6237 124.481 21.8837 125.612 21.8837C128.166 21.8837 129.443 20.6985 129.443 18.3281V16.7454C128.862 17.0665 128.266 17.3188 127.654 17.5023C127.058 17.6858 126.499 17.7776 125.98 17.7776C124.481 17.7776 123.303 17.2729 122.447 16.2636C121.591 15.2543 121.162 13.8551 121.162 12.0658C121.162 10.0319 121.644 8.47208 122.607 7.38631C123.586 6.30054 124.993 5.75765 126.828 5.75765C128.22 5.75765 129.55 6.00233 130.82 6.49169V18.2134C130.82 19.7427 130.376 20.9202 129.489 21.746C128.602 22.5718 127.333 22.9847 125.681 22.9847ZM126.163 16.6765C126.668 16.6765 127.211 16.5924 127.792 16.4242C128.373 16.256 128.923 16.0266 129.443 15.736V7.22574C128.648 6.98106 127.815 6.85872 126.943 6.85872C125.475 6.85872 124.381 7.28691 123.663 8.14329C122.959 8.98438 122.607 10.2842 122.607 12.0429C122.607 13.5569 122.906 14.7114 123.502 15.5067C124.114 16.2866 125.001 16.6765 126.163 16.6765Z" fill="white"/>
<path d="M109.717 7.15692V14.4973C109.717 15.2926 109.886 15.8813 110.222 16.2636C110.558 16.6307 111.078 16.8142 111.782 16.8142C112.241 16.8142 112.761 16.7301 113.342 16.5618V17.5712C112.699 17.7853 112.111 17.8923 111.575 17.8923C110.52 17.8923 109.717 17.6094 109.167 17.0436C108.616 16.4624 108.341 15.6061 108.341 14.4744V7.15692H106.598V6.17055L108.387 6.10173L108.525 3.21144L109.717 3.07381V6.10173H113.181V7.15692H109.717Z" fill="white"/>
<path d="M104.833 17.2271C103.824 17.7317 102.723 17.9841 101.53 17.9841C99.9087 17.9841 98.6547 17.4565 97.7677 16.4013C96.896 15.3461 96.4602 13.8398 96.4602 11.8823C96.4602 9.92487 96.896 8.41856 97.7677 7.36337C98.6547 6.29289 99.9087 5.75765 101.53 5.75765C102.677 5.75765 103.762 6.00998 104.787 6.51463V7.59276C103.717 7.11869 102.677 6.88166 101.667 6.88166C100.429 6.88166 99.4881 7.3022 98.8458 8.14329C98.2188 8.98438 97.9053 10.2307 97.9053 11.8823C97.9053 13.5186 98.2188 14.7573 98.8458 15.5984C99.4881 16.4395 100.429 16.8601 101.667 16.8601C102.707 16.8601 103.762 16.623 104.833 16.1489V17.2271Z" fill="white"/>
<path d="M93.4147 17.2271C92.3595 17.7317 91.2278 17.9841 90.0197 17.9841C88.2611 17.9841 86.9077 17.4641 85.9596 16.4242C85.0114 15.3843 84.5374 13.8933 84.5374 11.9511C84.5374 10.0243 84.9808 8.51031 85.8678 7.40925C86.7548 6.30818 87.9705 5.75765 89.5151 5.75765C90.8761 5.75765 91.9466 6.18584 92.7265 7.04223C93.5217 7.88332 93.9193 9.03791 93.9193 10.506C93.9193 11.0565 93.8735 11.5841 93.7817 12.0888H85.8907C85.906 15.2849 87.3206 16.883 90.1344 16.883C91.2661 16.883 92.3595 16.6383 93.4147 16.1489V17.2271ZM89.4921 6.83578C88.4522 6.83578 87.6035 7.21809 86.9459 7.98272C86.2884 8.74735 85.9366 9.77195 85.8907 11.0565H92.5889C92.6195 10.8118 92.6348 10.5977 92.6348 10.4142C92.6348 9.28259 92.3595 8.40326 91.809 7.77627C91.2584 7.14927 90.4862 6.83578 89.4921 6.83578Z" fill="white"/>
<path d="M78.2624 17.64V7.15692H76.519V6.17055L78.2624 6.10173V3.50964C78.2624 2.37799 78.5377 1.51396 79.0882 0.917554C79.654 0.305851 80.4722 0 81.5426 0C82.1238 0 82.7125 0.107048 83.3089 0.321144V1.33045C82.7584 1.16223 82.2308 1.07813 81.7262 1.07813C81.0074 1.07813 80.4798 1.26928 80.1434 1.6516C79.8069 2.01862 79.6387 2.59974 79.6387 3.39495V6.10173H82.7355V7.15692H79.6387V17.64H78.2624Z" fill="white"/>
<path d="M69.3787 17.64V6.17055L70.5485 6.05586L70.6632 7.0881C71.6878 6.24701 72.7813 5.82647 73.9435 5.82647C74.3564 5.82647 74.6852 5.87234 74.9299 5.9641V7.0881C74.5322 6.99635 74.1805 6.95047 73.8747 6.95047C72.7889 6.95047 71.749 7.34043 70.755 8.12035V17.64H69.3787Z" fill="white"/>
<path d="M65.5763 17.2271C64.5211 17.7317 63.3895 17.9841 62.1814 17.9841C60.4227 17.9841 59.0693 17.4641 58.1212 16.4242C57.173 15.3843 56.699 13.8933 56.699 11.9511C56.699 10.0243 57.1425 8.51031 58.0294 7.40925C58.9164 6.30818 60.1322 5.75765 61.6767 5.75765C63.0377 5.75765 64.1082 6.18584 64.8881 7.04223C65.6834 7.88332 66.081 9.03791 66.081 10.506C66.081 11.0565 66.0351 11.5841 65.9433 12.0888H58.0524C58.0677 15.2849 59.4822 16.883 62.2961 16.883C63.4277 16.883 64.5211 16.6383 65.5763 16.1489V17.2271ZM61.6538 6.83578C60.6139 6.83578 59.7651 7.21809 59.1076 7.98272C58.45 8.74735 58.0982 9.77195 58.0524 11.0565H64.7505C64.7811 10.8118 64.7964 10.5977 64.7964 10.4142C64.7964 9.28259 64.5211 8.40326 63.9706 7.77627C63.4201 7.14927 62.6478 6.83578 61.6538 6.83578Z" fill="white"/>
<path d="M44.4802 22.7553V6.17055L45.6501 6.05586L45.7419 6.85872C47.0417 6.12467 48.2345 5.75765 49.3203 5.75765C50.819 5.75765 51.9965 6.28524 52.8529 7.34043C53.7093 8.38033 54.1375 9.82547 54.1375 11.6759C54.1375 13.7098 53.6481 15.2696 52.6694 16.3554C51.706 17.4412 50.3067 17.9841 48.4716 17.9841C47.5234 17.9841 46.6518 17.8617 45.8566 17.617V22.5718L44.4802 22.7553ZM49.1368 6.85872C48.6322 6.85872 48.0893 6.94282 47.5082 7.11104C46.927 7.27926 46.3765 7.50865 45.8566 7.79921V16.516C46.6518 16.7606 47.4852 16.883 48.3569 16.883C49.825 16.883 50.9107 16.4624 51.6142 15.6214C52.333 14.765 52.6923 13.4575 52.6923 11.6988C52.6923 10.1237 52.3865 8.92321 51.7748 8.09741C51.1784 7.27162 50.299 6.85872 49.1368 6.85872Z" fill="white"/>
<path d="M34.7138 17.2271C33.6586 17.7317 32.5269 17.9841 31.3188 17.9841C29.5602 17.9841 28.2068 17.4641 27.2586 16.4242C26.3105 15.3843 25.8364 13.8933 25.8364 11.9511C25.8364 10.0243 26.2799 8.51031 27.1669 7.40925C28.0538 6.30818 29.2696 5.75765 30.8142 5.75765C32.1752 5.75765 33.2457 6.18584 34.0256 7.04223C34.8208 7.88332 35.2184 9.03791 35.2184 10.506C35.2184 11.0565 35.1725 11.5841 35.0808 12.0888H27.1898C27.2051 15.2849 28.6197 16.883 31.4335 16.883C32.5652 16.883 33.6586 16.6383 34.7138 16.1489V17.2271ZM30.7912 6.83578C29.7513 6.83578 28.9026 7.21809 28.245 7.98272C27.5874 8.74735 27.2357 9.77195 27.1898 11.0565H33.888C33.9185 10.8118 33.9338 10.5977 33.9338 10.4142C33.9338 9.28259 33.6586 8.40326 33.108 7.77627C32.5575 7.14927 31.7852 6.83578 30.7912 6.83578Z" fill="white"/>
<path d="M13.6177 17.64V0.4129L14.994 0.229389V6.81284C16.2786 6.10938 17.5402 5.75765 18.7789 5.75765C20.0176 5.75765 20.9734 6.07879 21.6463 6.72108C22.3344 7.36337 22.6785 8.27328 22.6785 9.4508V17.64H21.3022V9.68019C21.3022 7.79921 20.3464 6.85871 18.4348 6.85871C17.9302 6.85871 17.372 6.94282 16.7603 7.11104C16.1639 7.27926 15.5751 7.50865 14.994 7.79921V17.64H13.6177Z" fill="white"/>
<path d="M4.8401 17.64V2.75266H0V1.58278H11.1253V2.75266H6.28524V17.64H4.8401Z" fill="white"/>
</svg>
