<svg width="197" height="41" viewBox="0 0 197 41" fill="none" xmlns="http://www.w3.org/2000/svg">
<path d="M184.559 36.423C183.728 36.8324 182.8 37.0372 181.777 37.0372C180.283 37.0372 179.145 36.6217 178.362 35.7906C177.579 34.9596 177.188 33.7432 177.188 32.1413C177.188 31.1537 177.363 30.2986 177.712 29.576C178.061 28.8413 178.549 28.2813 179.175 27.8959C179.802 27.5104 180.518 27.3177 181.325 27.3177C182.457 27.3177 183.348 27.655 183.999 28.3294C184.649 29.0039 184.974 29.9373 184.974 31.1296C184.974 31.5994 184.932 32.0631 184.848 32.5207H178.868C178.904 34.6525 179.94 35.7184 181.975 35.7184C182.855 35.7184 183.716 35.5257 184.559 35.1403V36.423ZM181.325 28.5643C180.627 28.5643 180.054 28.8112 179.609 29.305C179.175 29.7988 178.928 30.4672 178.868 31.3103H183.403C183.415 31.2501 183.421 31.1899 183.421 31.1296C183.421 31.0694 183.421 31.0092 183.421 30.949C183.421 30.2023 183.234 29.6181 182.861 29.1966C182.499 28.7751 181.987 28.5643 181.325 28.5643Z" fill="white"/>
<path d="M168.876 35.0861C169.84 35.5076 170.803 35.7184 171.767 35.7184C172.466 35.7184 172.995 35.5859 173.357 35.3209C173.73 35.056 173.917 34.6766 173.917 34.1828C173.917 33.8576 173.814 33.5926 173.61 33.3879C173.405 33.1831 173.068 33.0085 172.598 32.864L171.37 32.4846C170.551 32.2317 169.954 31.9065 169.581 31.509C169.208 31.1116 169.021 30.6057 169.021 29.9915C169.021 29.1725 169.34 28.5221 169.978 28.0404C170.617 27.5586 171.478 27.3177 172.562 27.3177C173.477 27.3177 174.35 27.4984 175.181 27.8597V29.1605C174.266 28.8112 173.429 28.6366 172.67 28.6366C172.056 28.6366 171.574 28.757 171.225 28.9979C170.888 29.2267 170.719 29.5399 170.719 29.9373C170.719 30.2264 170.809 30.4552 170.99 30.6238C171.171 30.7804 171.508 30.9369 172.002 31.0935L173.375 31.509C174.868 31.9547 175.615 32.8399 175.615 34.1647C175.615 35.0921 175.296 35.8027 174.658 36.2965C174.019 36.7903 173.098 37.0372 171.893 37.0372C170.773 37.0372 169.834 36.8505 169.075 36.4771L168.876 35.0861Z" fill="white"/>
<path d="M165.495 36.8023L165.387 36.17C164.375 36.7481 163.394 37.0372 162.442 37.0372C161.491 37.0372 160.732 36.7843 160.166 36.2784C159.612 35.7605 159.335 35.068 159.335 34.2008C159.335 33.2976 159.648 32.599 160.274 32.1052C160.9 31.5994 161.78 31.3464 162.912 31.3464C163.574 31.3464 164.339 31.4247 165.206 31.5813V30.6238C165.206 29.9614 165.013 29.4676 164.628 29.1424C164.255 28.8172 163.677 28.6546 162.894 28.6546C161.978 28.6546 160.979 28.8654 159.895 29.2869V27.9681C160.401 27.7634 160.949 27.6068 161.539 27.4984C162.129 27.378 162.689 27.3177 163.219 27.3177C164.411 27.3177 165.315 27.5948 165.929 28.1488C166.555 28.7028 166.868 29.5158 166.868 30.5877V36.6578L165.495 36.8023ZM162.876 35.7184C163.225 35.7184 163.616 35.6582 164.05 35.5377C164.483 35.4173 164.869 35.2607 165.206 35.068V32.7556C164.64 32.6111 163.972 32.5388 163.201 32.5388C162.478 32.5388 161.942 32.6773 161.593 32.9543C161.256 33.2193 161.087 33.6227 161.087 34.1647C161.087 35.2005 161.683 35.7184 162.876 35.7184Z" fill="white"/>
<path d="M149.626 36.7662V23.1987L151.324 23V28.0584C152.251 27.5646 153.161 27.3177 154.052 27.3177C155.052 27.3177 155.822 27.5827 156.364 28.1126C156.918 28.6305 157.195 29.3712 157.195 30.3347V36.7662H155.497V30.5877C155.497 29.299 154.859 28.6546 153.582 28.6546C153.245 28.6546 152.866 28.7148 152.444 28.8353C152.035 28.9437 151.661 29.0942 151.324 29.2869V36.7662H149.626Z" fill="white"/>
<path d="M147.534 36.441C146.703 36.8385 145.782 37.0372 144.77 37.0372C143.446 37.0372 142.422 36.6157 141.699 35.7726C140.977 34.9295 140.615 33.7372 140.615 32.1955C140.615 30.6419 140.977 29.4435 141.699 28.6004C142.434 27.7453 143.464 27.3177 144.788 27.3177C145.716 27.3177 146.613 27.5165 147.48 27.9139V29.2147C146.649 28.8533 145.854 28.6727 145.096 28.6727C144.204 28.6727 143.53 28.9678 143.072 29.5579C142.615 30.1481 142.386 31.0213 142.386 32.1775C142.386 33.3216 142.615 34.1948 143.072 34.797C143.53 35.3872 144.204 35.6822 145.096 35.6822C145.854 35.6822 146.667 35.5016 147.534 35.1403V36.441Z" fill="white"/>
<path d="M134.735 36.7662V27.6971L136.108 27.5526L136.253 28.3836C137.048 27.7092 137.897 27.3719 138.8 27.3719C139.077 27.3719 139.354 27.4141 139.631 27.4984V28.8895C139.342 28.8172 139.047 28.7811 138.746 28.7811C137.879 28.7811 137.108 29.0521 136.434 29.594V36.7662H134.735Z" fill="white"/>
<path d="M130.625 36.8023L130.517 36.17C129.529 36.7481 128.547 37.0372 127.572 37.0372C126.596 37.0372 125.838 36.7722 125.296 36.2423C124.754 35.7124 124.483 34.9717 124.483 34.0202V27.5887H126.181V33.7673C126.181 35.056 126.801 35.7003 128.042 35.7003C128.391 35.7003 128.77 35.6461 129.18 35.5377C129.589 35.4173 129.963 35.2607 130.3 35.068V27.5887H131.998V36.6578L130.625 36.8023Z" fill="white"/>
<path d="M114.358 40.8491V27.6971L115.731 27.5526L115.84 28.1849C116.791 27.6068 117.713 27.3177 118.604 27.3177C119.784 27.3177 120.706 27.7393 121.368 28.5824C122.042 29.4134 122.38 30.5636 122.38 32.0329C122.38 33.6227 121.988 34.8572 121.205 35.7364C120.423 36.6036 119.32 37.0372 117.899 37.0372C117.213 37.0372 116.599 36.9529 116.057 36.7843V40.6504L114.358 40.8491ZM118.206 28.6546C117.881 28.6546 117.52 28.7148 117.122 28.8353C116.737 28.9437 116.382 29.0942 116.057 29.2869V35.5016C116.562 35.6461 117.098 35.7184 117.664 35.7184C118.652 35.7184 119.387 35.4173 119.868 34.8151C120.362 34.2129 120.609 33.2976 120.609 32.0691C120.609 30.949 120.404 30.0999 119.995 29.5218C119.598 28.9437 119.001 28.6546 118.206 28.6546Z" fill="white"/>
<path d="M100.042 39.4038C100.621 39.3075 101.096 39.169 101.47 38.9883C101.855 38.8077 102.192 38.5487 102.481 38.2115C102.77 37.8742 103.047 37.4226 103.312 36.8565L99.8618 27.5887H101.668L104.143 34.9416L106.618 27.5887H108.353L105.029 36.423C104.667 37.3865 104.294 38.1573 103.909 38.7354C103.523 39.3255 103.065 39.7832 102.536 40.1084C102.006 40.4456 101.307 40.7046 100.44 40.8852L100.042 39.4038Z" fill="white"/>
<path d="M94.0696 36.7662V27.6971L95.4426 27.5526L95.5871 28.3836C96.382 27.7092 97.2311 27.3719 98.1344 27.3719C98.4114 27.3719 98.6884 27.4141 98.9654 27.4984V28.8895C98.6764 28.8172 98.3813 28.7811 98.0802 28.7811C97.213 28.7811 96.4422 29.0521 95.7678 29.594V36.7662H94.0696Z" fill="white"/>
<path d="M91.4422 36.423C90.6111 36.8324 89.6838 37.0372 88.66 37.0372C87.1666 37.0372 86.0284 36.6217 85.2456 35.7906C84.4627 34.9596 84.0713 33.7432 84.0713 32.1413C84.0713 31.1537 84.2459 30.2986 84.5952 29.576C84.9445 28.8413 85.4322 28.2813 86.0585 27.8959C86.6848 27.5104 87.4014 27.3177 88.2084 27.3177C89.3405 27.3177 90.2318 27.655 90.8821 28.3294C91.5325 29.0039 91.8577 29.9373 91.8577 31.1296C91.8577 31.5994 91.8155 32.0631 91.7312 32.5207H85.7514C85.7875 34.6525 86.8233 35.7184 88.8587 35.7184C89.7379 35.7184 90.5991 35.5257 91.4422 35.1403V36.423ZM88.2084 28.5643C87.5098 28.5643 86.9377 28.8112 86.4921 29.305C86.0585 29.7988 85.8116 30.4672 85.7514 31.3103H90.2859C90.298 31.2501 90.304 31.1899 90.304 31.1296C90.304 31.0694 90.304 31.0092 90.304 30.949C90.304 30.2023 90.1173 29.6181 89.744 29.1966C89.3827 28.7751 88.8708 28.5643 88.2084 28.5643Z" fill="white"/>
<path d="M78.224 36.7662L74.8096 27.5887H76.6162L79.0731 34.9054L81.5662 27.5887H83.3005L79.8499 36.7662H78.224Z" fill="white"/>
<path d="M73.4468 36.423C72.6158 36.8324 71.6884 37.0372 70.6647 37.0372C69.1712 37.0372 68.0331 36.6217 67.2502 35.7906C66.4674 34.9596 66.0759 33.7432 66.0759 32.1413C66.0759 31.1537 66.2506 30.2986 66.5998 29.576C66.9491 28.8413 67.4369 28.2813 68.0632 27.8959C68.6895 27.5104 69.4061 27.3177 70.213 27.3177C71.3451 27.3177 72.2364 27.655 72.8868 28.3294C73.5371 29.0039 73.8623 29.9373 73.8623 31.1296C73.8623 31.5994 73.8202 32.0631 73.7359 32.5207H67.7561C67.7922 34.6525 68.828 35.7184 70.8634 35.7184C71.7426 35.7184 72.6037 35.5257 73.4468 35.1403V36.423ZM70.213 28.5643C69.5145 28.5643 68.9424 28.8112 68.4967 29.305C68.0632 29.7988 67.8163 30.4672 67.7561 31.3103H72.2906C72.3026 31.2501 72.3087 31.1899 72.3087 31.1296C72.3087 31.0694 72.3087 31.0092 72.3087 30.949C72.3087 30.2023 72.122 29.6181 71.7486 29.1966C71.3873 28.7751 70.8754 28.5643 70.213 28.5643Z" fill="white"/>
<path d="M57.7579 36.7662V30.5877C57.7579 29.299 57.1196 28.6546 55.8429 28.6546C55.5057 28.6546 55.1263 28.7148 54.7048 28.8353C54.2953 28.9437 53.9219 29.0942 53.5847 29.2869V36.7662H51.8865V27.6971L53.2595 27.5526L53.3679 28.1849C54.3555 27.6068 55.3371 27.3177 56.3126 27.3177C57.3123 27.3177 58.0831 27.5827 58.625 28.1126C59.1791 28.6305 59.4561 29.3712 59.4561 30.3348V36.7662H57.7579Z" fill="white"/>
<path d="M45.5145 35.7003C46.3576 35.7003 46.9658 35.4233 47.3392 34.8693C47.7246 34.3153 47.9173 33.418 47.9173 32.1775C47.9173 30.9369 47.7246 30.0397 47.3392 29.4857C46.9658 28.9316 46.3576 28.6546 45.5145 28.6546C44.6714 28.6546 44.0572 28.9316 43.6718 29.4857C43.2984 30.0397 43.1118 30.9369 43.1118 32.1775C43.1118 33.418 43.2984 34.3153 43.6718 34.8693C44.0572 35.4233 44.6714 35.7003 45.5145 35.7003ZM45.5145 37.0372C44.1415 37.0372 43.0997 36.6277 42.3891 35.8087C41.6906 34.9777 41.3413 33.7673 41.3413 32.1775C41.3413 30.5877 41.6906 29.3833 42.3891 28.5643C43.0997 27.7333 44.1415 27.3177 45.5145 27.3177C46.8875 27.3177 47.9233 27.7333 48.6219 28.5643C49.3324 29.3833 49.6877 30.5877 49.6877 32.1775C49.6877 33.7673 49.3324 34.9777 48.6219 35.8087C47.9233 36.6277 46.8875 37.0372 45.5145 37.0372Z" fill="white"/>
<path d="M28.3691 36.7662V23.1987L30.0673 23V31.5271L33.8431 27.5887H35.7942L31.6933 31.8523L35.9929 36.7662H33.9334L30.0673 32.2678V36.7662H28.3691Z" fill="white"/>
<path d="M26.2779 36.441C25.4468 36.8385 24.5255 37.0372 23.5138 37.0372C22.189 37.0372 21.1652 36.6157 20.4426 35.7726C19.72 34.9295 19.3586 33.7372 19.3586 32.1955C19.3586 30.6419 19.72 29.4435 20.4426 28.6004C21.1773 27.7453 22.207 27.3177 23.5319 27.3177C24.4592 27.3177 25.3565 27.5165 26.2237 27.9139V29.2147C25.3926 28.8533 24.5977 28.6727 23.839 28.6727C22.9477 28.6727 22.2733 28.9678 21.8156 29.5579C21.3579 30.1481 21.1291 31.0213 21.1291 32.1775C21.1291 33.3216 21.3579 34.1948 21.8156 34.797C22.2733 35.3872 22.9477 35.6822 23.839 35.6822C24.5977 35.6822 25.4107 35.5016 26.2779 35.1403V36.441Z" fill="white"/>
<path d="M15.8873 36.8023L15.7789 36.17C14.7672 36.7481 13.7856 37.0372 12.8341 37.0372C11.8827 37.0372 11.1239 36.7843 10.5578 36.2784C10.0038 35.7605 9.72681 35.068 9.72681 34.2008C9.72681 33.2976 10.0399 32.599 10.6662 32.1052C11.2925 31.5994 12.1717 31.3464 13.3039 31.3464C13.9663 31.3464 14.7311 31.4247 15.5982 31.5813V30.6238C15.5982 29.9614 15.4055 29.4676 15.0201 29.1424C14.6467 28.8172 14.0686 28.6546 13.2858 28.6546C12.3704 28.6546 11.3708 28.8654 10.2868 29.2869V27.9681C10.7927 27.7634 11.3407 27.6068 11.9308 27.4984C12.521 27.378 13.081 27.3177 13.611 27.3177C14.8033 27.3177 15.7066 27.5948 16.3209 28.1488C16.9471 28.7028 17.2603 29.5158 17.2603 30.5877V36.6578L15.8873 36.8023ZM13.2677 35.7184C13.617 35.7184 14.0084 35.6582 14.442 35.5377C14.8756 35.4173 15.261 35.2607 15.5982 35.068V32.7556C15.0322 32.6111 14.3637 32.5388 13.5929 32.5388C12.8703 32.5388 12.3343 32.6773 11.985 32.9543C11.6478 33.2193 11.4792 33.6227 11.4792 34.1647C11.4792 35.2005 12.0754 35.7184 13.2677 35.7184Z" fill="white"/>
<path d="M1.69819 28.0404C2.60149 27.5586 3.45058 27.3177 4.24548 27.3177C5.42578 27.3177 6.34714 27.7393 7.00956 28.5824C7.68402 29.4134 8.02125 30.5636 8.02125 32.0329C8.02125 33.6468 7.61176 34.8873 6.79277 35.7545C5.97378 36.6096 4.80552 37.0372 3.28799 37.0372C2.20404 37.0372 1.10804 36.8806 0 36.5675V23.1987L1.69819 23V28.0404ZM3.84803 28.6546C3.52285 28.6546 3.16153 28.7148 2.76408 28.8353C2.37867 28.9437 2.02338 29.0942 1.69819 29.2869V35.5016C2.20404 35.6461 2.73999 35.7184 3.30606 35.7184C4.29366 35.7184 5.02834 35.4173 5.51009 34.8151C6.00389 34.2129 6.25079 33.2975 6.25079 32.0691C6.25079 30.949 6.04605 30.0999 5.63655 29.5218C5.2391 28.9437 4.64293 28.6546 3.84803 28.6546Z" fill="white"/>
<path d="M188.651 13.7662V0.198724L190.349 0V5.05845C191.276 4.56465 192.186 4.31774 193.077 4.31774C194.077 4.31774 194.847 4.58271 195.389 5.11264C195.943 5.63053 196.22 6.37123 196.22 7.33475V13.7662H194.522V7.58767C194.522 6.29897 193.884 5.65462 192.607 5.65462C192.27 5.65462 191.891 5.71484 191.469 5.83528C191.06 5.94367 190.686 6.09422 190.349 6.28692V13.7662H188.651Z" fill="white"/>
<path d="M179.797 12.0861C180.761 12.5076 181.724 12.7184 182.688 12.7184C183.386 12.7184 183.916 12.5859 184.277 12.3209C184.651 12.056 184.837 11.6766 184.837 11.1828C184.837 10.8576 184.735 10.5926 184.53 10.3879C184.326 10.1831 183.988 10.0085 183.519 9.86397L182.29 9.48459C181.471 9.23167 180.875 8.90648 180.502 8.50903C180.128 8.11158 179.942 7.60574 179.942 6.9915C179.942 6.17251 180.261 5.52214 180.899 5.04038C181.537 4.55863 182.399 4.31775 183.483 4.31775C184.398 4.31775 185.271 4.49841 186.102 4.85972V6.16047C185.187 5.81119 184.35 5.63656 183.591 5.63656C182.977 5.63656 182.495 5.757 182.146 5.99788C181.808 6.22671 181.64 6.53985 181.64 6.9373C181.64 7.22635 181.73 7.45519 181.911 7.6238C182.091 7.78037 182.429 7.93695 182.923 8.09352L184.296 8.50903C185.789 8.95466 186.536 9.83988 186.536 11.1647C186.536 12.0921 186.217 12.8027 185.578 13.2965C184.94 13.7903 184.019 14.0372 182.814 14.0372C181.694 14.0372 180.755 13.8505 179.996 13.4771L179.797 12.0861Z" fill="white"/>
<path d="M176.416 13.8023L176.307 13.17C175.296 13.7481 174.314 14.0372 173.363 14.0372C172.411 14.0372 171.652 13.7843 171.086 13.2784C170.532 12.7605 170.255 12.068 170.255 11.2008C170.255 10.2976 170.569 9.59901 171.195 9.10521C171.821 8.59936 172.7 8.34644 173.832 8.34644C174.495 8.34644 175.26 8.42472 176.127 8.5813V7.6238C176.127 6.96139 175.934 6.46759 175.549 6.1424C175.175 5.81722 174.597 5.65462 173.814 5.65462C172.899 5.65462 171.899 5.86539 170.815 6.28693V4.96812C171.321 4.76337 171.869 4.6068 172.459 4.49841C173.05 4.37797 173.61 4.31775 174.14 4.31775C175.332 4.31775 176.235 4.59476 176.849 5.14878C177.476 5.7028 177.789 6.51576 177.789 7.58767V13.6578L176.416 13.8023ZM173.796 12.7184C174.146 12.7184 174.537 12.6582 174.971 12.5377C175.404 12.4173 175.79 12.2607 176.127 12.068V9.75558C175.561 9.61105 174.892 9.53879 174.121 9.53879C173.399 9.53879 172.863 9.67729 172.514 9.9543C172.176 10.2193 172.008 10.6227 172.008 11.1647C172.008 12.2005 172.604 12.7184 173.796 12.7184Z" fill="white"/>
<path d="M168.67 13.441C167.839 13.8385 166.918 14.0372 165.906 14.0372C164.581 14.0372 163.558 13.6157 162.835 12.7726C162.112 11.9295 161.751 10.7372 161.751 9.19553C161.751 7.64187 162.112 6.4435 162.835 5.60043C163.57 4.74531 164.599 4.31775 165.924 4.31775C166.852 4.31775 167.749 4.51647 168.616 4.91392V6.21467C167.785 5.85335 166.99 5.67269 166.231 5.67269C165.34 5.67269 164.666 5.96776 164.208 6.55792C163.75 7.14807 163.521 8.02125 163.521 9.17747C163.521 10.3216 163.75 11.1948 164.208 11.797C164.666 12.3872 165.34 12.6822 166.231 12.6822C166.99 12.6822 167.803 12.5016 168.67 12.1403V13.441Z" fill="white"/>
<path d="M144.085 13.7662L150.57 1.39108H152.07L145.584 13.7662H144.085ZM143.362 8.16578C143.892 8.16578 144.278 7.93695 144.518 7.47928C144.759 7.00956 144.88 6.25682 144.88 5.22104C144.88 4.18527 144.759 3.43854 144.518 2.98088C144.278 2.51116 143.892 2.27631 143.362 2.27631C142.832 2.27631 142.447 2.51116 142.206 2.98088C141.965 3.43854 141.845 4.18527 141.845 5.22104C141.845 6.25682 141.965 7.00956 142.206 7.47928C142.447 7.93695 142.832 8.16578 143.362 8.16578ZM143.362 9.23167C142.387 9.23167 141.64 8.88842 141.122 8.20191C140.604 7.50336 140.345 6.50974 140.345 5.22104C140.345 3.93234 140.604 2.94474 141.122 2.25824C141.64 1.55969 142.387 1.21042 143.362 1.21042C144.338 1.21042 145.084 1.55969 145.602 2.25824C146.12 2.94474 146.379 3.93234 146.379 5.22104C146.379 6.50974 146.12 7.50336 145.602 8.20191C145.084 8.88842 144.338 9.23167 143.362 9.23167ZM152.793 12.881C153.323 12.881 153.708 12.6521 153.949 12.1945C154.19 11.7248 154.31 10.972 154.31 9.93624C154.31 8.90046 154.19 8.15374 153.949 7.69607C153.708 7.22636 153.323 6.9915 152.793 6.9915C152.263 6.9915 151.877 7.22636 151.636 7.69607C151.396 8.15374 151.275 8.90046 151.275 9.93624C151.275 10.972 151.396 11.7248 151.636 12.1945C151.877 12.6521 152.263 12.881 152.793 12.881ZM152.793 13.9469C151.817 13.9469 151.07 13.6036 150.552 12.9171C150.035 12.2186 149.776 11.2249 149.776 9.93624C149.776 8.64754 150.035 7.65994 150.552 6.97343C151.07 6.27489 151.817 5.92561 152.793 5.92561C153.768 5.92561 154.515 6.27489 155.033 6.97343C155.551 7.65994 155.81 8.64754 155.81 9.93624C155.81 11.2249 155.551 12.2186 155.033 12.9171C154.515 13.6036 153.768 13.9469 152.793 13.9469Z" fill="white"/>
<path d="M130.803 11.9054C131.899 12.4233 132.977 12.6823 134.037 12.6823C135.037 12.6823 135.808 12.4414 136.35 11.9596C136.892 11.4658 137.163 10.7733 137.163 9.88204C137.163 9.0751 136.934 8.44882 136.476 8.00319C136.031 7.55757 135.392 7.33475 134.561 7.33475C134.128 7.33475 133.688 7.39497 133.242 7.51541C132.809 7.62381 132.429 7.78038 132.104 7.98512L131.273 7.42508L131.851 1.39108H136.494C137.145 1.39108 137.741 1.36699 138.283 1.31882V2.81828H133.242L132.899 6.52179C133.2 6.38931 133.543 6.28091 133.929 6.1966C134.314 6.1123 134.688 6.07014 135.049 6.07014C136.229 6.07014 137.169 6.41942 137.867 7.11796C138.578 7.81651 138.933 8.74389 138.933 9.90011C138.933 10.7552 138.734 11.4959 138.337 12.1222C137.952 12.7364 137.404 13.2122 136.693 13.5494C135.994 13.8746 135.187 14.0372 134.272 14.0372C133.682 14.0372 133.098 13.977 132.52 13.8565C131.942 13.7361 131.442 13.5735 131.02 13.3688L130.803 11.9054Z" fill="white"/>
<path d="M128.047 13.8565C127.722 13.8565 127.457 13.7542 127.252 13.5494C127.047 13.3447 126.945 13.0797 126.945 12.7545C126.945 12.4293 127.047 12.1644 127.252 11.9596C127.457 11.7549 127.722 11.6525 128.047 11.6525C128.372 11.6525 128.637 11.7549 128.842 11.9596C129.046 12.1644 129.149 12.4293 129.149 12.7545C129.149 13.0797 129.046 13.3447 128.842 13.5494C128.637 13.7542 128.372 13.8565 128.047 13.8565Z" fill="white"/>
<path d="M122.703 13.7662V3.19766L119.686 5.16684L119.342 3.7577L122.974 1.39107H124.401V13.7662H122.703Z" fill="white"/>
<path d="M113.21 0V13.6578L111.837 13.8023L111.729 13.17C110.778 13.7481 109.856 14.0372 108.965 14.0372C107.785 14.0372 106.857 13.6217 106.183 12.7906C105.52 11.9476 105.189 10.7913 105.189 9.32199C105.189 7.73219 105.581 6.50372 106.363 5.63655C107.146 4.75735 108.248 4.31774 109.67 4.31774C110.356 4.31774 110.97 4.40205 111.512 4.57067V0.198724L113.21 0ZM109.362 12.7003C109.688 12.7003 110.043 12.6461 110.428 12.5377C110.826 12.4173 111.187 12.2607 111.512 12.068V5.85334C111.006 5.70882 110.47 5.63655 109.904 5.63655C108.917 5.63655 108.176 5.93765 107.682 6.53985C107.201 7.14204 106.96 8.05738 106.96 9.28586C106.96 10.4059 107.158 11.255 107.556 11.8331C107.965 12.4113 108.568 12.7003 109.362 12.7003Z" fill="white"/>
<path d="M103.104 13.4229C102.273 13.8324 101.345 14.0372 100.322 14.0372C98.8282 14.0372 97.69 13.6217 96.9072 12.7906C96.1243 11.9596 95.7329 10.7432 95.7329 9.14134C95.7329 8.15374 95.9075 7.29862 96.2568 6.57598C96.6061 5.8413 97.0939 5.28126 97.7202 4.89586C98.3464 4.51045 99.0631 4.31775 99.87 4.31775C101.002 4.31775 101.893 4.65498 102.544 5.32944C103.194 6.0039 103.519 6.9373 103.519 8.12965C103.519 8.59936 103.477 9.06305 103.393 9.52072H97.413C97.4492 11.6525 98.4849 12.7184 100.52 12.7184C101.4 12.7184 102.261 12.5257 103.104 12.1403V13.4229ZM99.87 5.56429C99.1714 5.56429 98.5994 5.81119 98.1537 6.30499C97.7202 6.7988 97.4733 7.46723 97.413 8.31031H101.948C101.96 8.25009 101.966 8.18987 101.966 8.12965C101.966 8.06943 101.966 8.00921 101.966 7.94899C101.966 7.20227 101.779 6.61814 101.406 6.1966C101.044 5.77506 100.532 5.56429 99.87 5.56429Z" fill="white"/>
<path d="M91.807 5.81721V11.0924C91.807 11.6344 91.9275 12.0379 92.1684 12.3029C92.4092 12.5558 92.7766 12.6822 93.2704 12.6822C93.6437 12.6822 94.0412 12.616 94.4627 12.4835V13.6939C93.9569 13.8866 93.433 13.983 92.891 13.983C91.9757 13.983 91.2831 13.7421 90.8134 13.2604C90.3437 12.7786 90.1088 12.074 90.1088 11.1466V5.81721H88.7358V4.661L90.1811 4.6068L90.3076 2.31243L91.807 2.14984V4.58873H94.3724V5.81721H91.807Z" fill="white"/>
<path d="M85.2837 13.7662V4.73326L86.9819 4.53454V13.7662H85.2837ZM86.1328 2.70988C85.7835 2.70988 85.5065 2.61955 85.3018 2.4389C85.109 2.24619 85.0127 1.98725 85.0127 1.66206C85.0127 1.33688 85.109 1.08396 85.3018 0.903297C85.5065 0.710594 85.7835 0.614243 86.1328 0.614243C86.482 0.614243 86.753 0.710594 86.9457 0.903297C87.1505 1.08396 87.2529 1.33688 87.2529 1.66206C87.2529 1.98725 87.1505 2.24619 86.9457 2.4389C86.753 2.61955 86.482 2.70988 86.1328 2.70988Z" fill="white"/>
<path d="M80.9506 13.7662V7.38895C80.9506 6.23273 80.3906 5.65462 79.2705 5.65462C78.596 5.65462 77.8854 5.87744 77.1387 6.32306C77.1989 6.58803 77.229 6.85299 77.229 7.11796V13.7662H75.5308V7.38895C75.5308 6.23273 74.9708 5.65462 73.8507 5.65462C73.1883 5.65462 72.5078 5.86539 71.8093 6.28693V13.7662H70.1111V4.69713L71.4841 4.5526L71.5925 5.18491C72.5199 4.6068 73.4292 4.31775 74.3204 4.31775C75.3562 4.31775 76.1391 4.64896 76.669 5.31137C77.7529 4.64896 78.7767 4.31775 79.7402 4.31775C80.6435 4.31775 81.3541 4.56465 81.872 5.05845C82.3899 5.55225 82.6488 6.23875 82.6488 7.11796V13.7662H80.9506Z" fill="white"/>
<path d="M65.6653 13.7662V4.73326L67.3635 4.53454V13.7662H65.6653ZM66.5144 2.70988C66.1651 2.70988 65.8881 2.61955 65.6833 2.4389C65.4906 2.24619 65.3943 1.98725 65.3943 1.66206C65.3943 1.33688 65.4906 1.08396 65.6833 0.903297C65.8881 0.710594 66.1651 0.614243 66.5144 0.614243C66.8636 0.614243 67.1346 0.710594 67.3273 0.903297C67.5321 1.08396 67.6345 1.33688 67.6345 1.66206C67.6345 1.98725 67.5321 2.24619 67.3273 2.4389C67.1346 2.61955 66.8636 2.70988 66.5144 2.70988Z" fill="white"/>
<path d="M61.2192 13.7662V0.198724L62.9174 0V13.7662H61.2192Z" fill="white"/>
<path d="M56.8758 13.7662V7.58767C56.8758 6.29897 56.2375 5.65462 54.9608 5.65462C54.6236 5.65462 54.2442 5.71484 53.8227 5.83528C53.4132 5.94368 53.0398 6.09423 52.7026 6.28693V13.7662H51.0044V4.69713L52.3774 4.5526L52.4858 5.18491C53.4734 4.6068 54.455 4.31775 55.4305 4.31775C56.4302 4.31775 57.201 4.58272 57.743 5.11265C58.297 5.63054 58.574 6.37124 58.574 7.33475V13.7662H56.8758Z" fill="white"/>
<path d="M46.8939 13.8023L46.7855 13.17C45.7979 13.7481 44.8163 14.0372 43.8407 14.0372C42.8652 14.0372 42.1064 13.7722 41.5644 13.2423C41.0225 12.7124 40.7515 11.9717 40.7515 11.0202V4.58873H42.4497V10.7673C42.4497 12.056 43.0699 12.7003 44.3104 12.7003C44.6597 12.7003 45.0391 12.6461 45.4486 12.5377C45.8581 12.4173 46.2314 12.2607 46.5687 12.068V4.58873H48.2669V13.6578L46.8939 13.8023Z" fill="white"/>
<path d="M31.9998 13.7662V7.58767C31.9998 6.29897 31.3615 5.65462 30.0848 5.65462C29.7476 5.65462 29.3682 5.71484 28.9467 5.83528C28.5372 5.94368 28.1638 6.09423 27.8266 6.28693V13.7662H26.1284V4.69713L27.5014 4.5526L27.6098 5.18491C28.5974 4.6068 29.579 4.31775 30.5546 4.31775C31.5542 4.31775 32.325 4.58272 32.867 5.11265C33.421 5.63054 33.698 6.37124 33.698 7.33475V13.7662H31.9998Z" fill="white"/>
<path d="M19.5303 13.7662V4.69713L20.9033 4.55261L21.0478 5.38364C21.8427 4.70918 22.6918 4.37195 23.5951 4.37195C23.8721 4.37195 24.1491 4.4141 24.4261 4.49841V5.88948C24.1371 5.81722 23.842 5.78109 23.5409 5.78109C22.6737 5.78109 21.9029 6.05207 21.2285 6.59405V13.7662H19.5303Z" fill="white"/>
<path d="M15.5167 13.8023L15.4083 13.17C14.3966 13.7481 13.415 14.0372 12.4635 14.0372C11.5121 14.0372 10.7533 13.7843 10.1872 13.2784C9.63321 12.7605 9.3562 12.068 9.3562 11.2008C9.3562 10.2976 9.66934 9.59901 10.2956 9.10521C10.9219 8.59936 11.8011 8.34644 12.9332 8.34644C13.5957 8.34644 14.3604 8.42472 15.2276 8.5813V7.6238C15.2276 6.96139 15.0349 6.46759 14.6495 6.1424C14.2761 5.81722 13.698 5.65462 12.9152 5.65462C11.9998 5.65462 11.0002 5.86539 9.91624 6.28693V4.96812C10.4221 4.76337 10.9701 4.6068 11.5602 4.49841C12.1504 4.37797 12.7104 4.31775 13.2404 4.31775C14.4327 4.31775 15.336 4.59476 15.9502 5.14878C16.5765 5.7028 16.8897 6.51576 16.8897 7.58767V13.6578L15.5167 13.8023ZM12.8971 12.7184C13.2464 12.7184 13.6378 12.6582 14.0714 12.5377C14.505 12.4173 14.8904 12.2607 15.2276 12.068V9.75558C14.6615 9.61105 13.9931 9.53879 13.2223 9.53879C12.4997 9.53879 11.9637 9.67729 11.6144 9.9543C11.2772 10.2193 11.1086 10.6227 11.1086 11.1647C11.1086 12.2005 11.7048 12.7184 12.8971 12.7184Z" fill="white"/>
<path d="M1.98725 8.07545V12.3209H7.94899V13.7662H0.234863V1.12009H7.91286V2.56536H1.98725V6.63018H7.15409V8.07545H1.98725Z" fill="white"/>
</svg>
