<svg width="64" height="10" viewBox="0 0 64 10" fill="none" xmlns="http://www.w3.org/2000/svg">
<path d="M0 9.38363V0.594498H1.23679V8.38753H5.41831V9.38363H0Z" fill="white"/>
<path d="M11.4845 9.14925C10.8955 9.44222 10.2477 9.55941 9.48206 9.55941C8.42196 9.55941 7.59743 9.26644 7.00849 8.6805C6.41954 8.09455 6.18396 7.27423 6.18396 6.16094C6.18396 5.04765 6.30175 4.87187 6.53733 4.40312C6.77291 3.87577 7.12628 3.52421 7.59743 3.23123C8.06859 2.93826 8.53975 2.82108 9.1287 2.82108C9.71764 2.82108 10.6011 3.05545 11.0722 3.52421C11.5434 3.99296 11.779 4.6375 11.779 5.45781C11.779 6.27813 11.779 6.10235 11.6612 6.45392H7.36185C7.36185 7.91877 8.12748 8.6805 9.59985 8.6805C11.0722 8.6805 10.8366 8.56331 11.4845 8.27034V9.14925ZM9.18759 3.69999C8.65754 3.69999 8.24527 3.87577 7.9508 4.22734C7.65633 4.5789 7.47964 5.04765 7.42075 5.6336H10.66C10.66 5.6336 10.66 5.575 10.66 5.51641V5.39922C10.66 4.87187 10.5422 4.46171 10.2477 4.16874C10.0121 3.87577 9.59985 3.69999 9.1287 3.69999H9.18759Z" fill="white"/>
<path d="M17.4329 9.38358V8.91483C16.6083 9.32499 15.9016 9.50077 15.2537 9.50077C14.6059 9.50077 14.017 9.32499 13.6047 8.97342C13.1924 8.62186 13.0157 8.1531 13.0157 7.50857C13.0157 6.86403 13.2513 6.39528 13.6636 6.04371C14.1347 5.69215 14.7237 5.51636 15.5482 5.51636C16.3727 5.51636 16.5494 5.51636 17.1973 5.69215V5.04761C17.1973 4.57886 17.0795 4.22729 16.785 3.99291C16.4905 3.75854 16.0783 3.64135 15.5482 3.64135C15.0182 3.64135 14.1936 3.81713 13.3691 4.1101V3.1726C13.7225 3.05541 14.1347 2.93822 14.547 2.82103C14.9593 2.76244 15.3715 2.70384 15.7838 2.70384C16.6672 2.70384 17.3151 2.87962 17.7273 3.28978C18.1985 3.69994 18.3752 4.22729 18.3752 4.98902V9.2078L17.374 9.32498L17.4329 9.38358ZM15.5482 8.68045C15.7838 8.68045 16.0783 8.68045 16.3727 8.56326C16.6672 8.50467 16.9617 8.38748 17.1973 8.2117V6.62965C16.785 6.51246 16.3139 6.45387 15.7838 6.45387C15.2537 6.45387 14.9004 6.57106 14.6059 6.74684C14.3703 6.92262 14.2525 7.21559 14.2525 7.56716C14.2525 8.27029 14.6648 8.62186 15.5482 8.62186V8.68045Z" fill="white"/>
<path d="M20.3187 9.38362V3.05545L21.3199 2.93826L21.4377 3.52421C22.0267 3.05545 22.6156 2.82108 23.2635 2.82108C23.9113 2.82108 23.6757 2.82108 23.8524 2.93826V3.93437C23.6168 3.93437 23.4401 3.87577 23.2046 3.87577C22.5567 3.87577 22.0267 4.05155 21.5555 4.46171V9.44222H20.3187V9.38362Z" fill="white"/>
<path d="M29.2707 9.38362V5.10625C29.2707 4.22734 28.7995 3.75858 27.9161 3.75858C27.0327 3.75858 27.3861 3.75858 27.0916 3.87577C26.7971 3.93437 26.5026 4.05155 26.2671 4.16874V9.38362H25.0303V3.05545L26.0315 2.93826V3.40702C26.7971 2.99686 27.5039 2.82108 28.2106 2.82108C28.9173 2.82108 29.5063 2.99686 29.8596 3.34842C30.2719 3.69999 30.4486 4.22734 30.4486 4.87187V9.32503H29.2118L29.2707 9.38362Z" fill="white"/>
<path d="M39.754 8.62189L37.2216 2.29371L36.7504 9.38361H35.5725L36.2792 0.594482H37.6927L40.2841 7.09844L42.8755 0.594482H44.2889L44.9957 9.38361H43.7589L43.2288 2.29371L40.6963 8.62189H39.6951H39.754Z" fill="white"/>
<path d="M49.4716 8.62185C50.0606 8.62185 50.5317 8.44607 50.7673 8.03591C51.0618 7.62575 51.1796 7.03981 51.1796 6.1609C51.1796 5.28199 51.0618 4.69604 50.7673 4.28588C50.4729 3.87573 50.0606 3.69994 49.4716 3.69994C48.8827 3.69994 48.4115 3.87573 48.176 4.28588C47.8815 4.69604 47.7637 5.28199 47.7637 6.1609C47.7637 7.03981 47.8815 7.62575 48.176 8.03591C48.4704 8.44607 48.8827 8.62185 49.4716 8.62185ZM49.4716 9.55936C48.4704 9.55936 47.7637 9.26639 47.2336 8.68045C46.7036 8.09451 46.468 7.27419 46.468 6.1609C46.468 5.04761 46.7036 4.22729 47.2336 3.64135C47.7637 3.05541 48.4704 2.76244 49.4716 2.76244C50.4729 2.76244 51.1796 3.05541 51.7096 3.64135C52.2397 4.22729 52.4753 5.04761 52.4753 6.1609C52.4753 7.27419 52.2397 8.09451 51.7096 8.68045C51.1796 9.26639 50.4729 9.55936 49.4716 9.55936Z" fill="white"/>
<path d="M54.0654 9.38362V3.05545L55.0666 2.93826L55.1844 3.52421C55.7734 3.05545 56.3623 2.82108 57.0102 2.82108C57.658 2.82108 57.4224 2.82108 57.5991 2.93826V3.93437C57.3635 3.93437 57.1868 3.87577 56.9513 3.87577C56.3034 3.87577 55.7734 4.05155 55.3022 4.46171V9.44222H54.0654V9.38362Z" fill="white"/>
<path d="M63.6063 9.14925C63.0174 9.44222 62.3695 9.55941 61.6039 9.55941C60.5438 9.55941 59.7193 9.26644 59.1303 8.6805C58.5414 8.09455 58.3058 7.27423 58.3058 6.16094C58.3058 5.04765 58.4236 4.87187 58.6592 4.40312C58.8947 3.87577 59.2481 3.52421 59.7193 3.23123C60.1904 2.93826 60.6616 2.82108 61.2505 2.82108C61.8395 2.82108 62.7229 3.05545 63.194 3.52421C63.6652 3.99296 63.9008 4.6375 63.9008 5.45781C63.9008 6.27813 63.9008 6.10235 63.783 6.45392H59.4837C59.4837 7.91877 60.2493 8.6805 61.7217 8.6805C63.194 8.6805 62.9585 8.56331 63.6063 8.27034V9.14925ZM61.2505 3.69999C60.7205 3.69999 60.3082 3.87577 60.0137 4.22734C59.7193 4.5789 59.5426 5.04765 59.4837 5.6336H62.7229C62.7229 5.6336 62.7229 5.575 62.7229 5.51641V5.39922C62.7229 4.87187 62.6051 4.46171 62.3106 4.16874C62.075 3.87577 61.6628 3.69999 61.1916 3.69999H61.2505Z" fill="white"/>
</svg>
