<svg width="48" height="24" viewBox="0 0 48 24" fill="none" xmlns="http://www.w3.org/2000/svg">
<path d="M45.6294 10.4888C45.5936 9.46227 45.0913 8.76572 44.0508 8.76572C41.5394 8.76572 38.8844 13.7882 38.418 15.8046C42.5081 15.8046 45.7371 13.3117 45.6294 10.4888ZM46.1676 18.3709L46.6699 18.7008C45.45 21.2304 42.9386 23.2834 40.0325 23.2834C37.6287 23.2834 35.6913 21.6703 35.5837 18.5908C35.4043 13.0917 40.4272 8.0325 44.5172 8.0325C46.2752 8.0325 47.9256 8.80238 47.9974 10.7454C48.1409 15.108 42.1493 16.4278 38.2027 16.5378C38.0592 16.9777 38.0233 17.4543 38.0592 18.1509C38.131 19.9473 39.2073 21.487 41.3959 21.487C43.2974 21.487 45.1989 19.9106 46.1676 18.3709Z" fill="white"/>
<path d="M21.6272 10.3421C22.0577 10.2688 22.7394 10.1955 23.0264 10.1955C23.4928 10.1955 23.8875 10.2688 23.9234 10.7454C23.9234 11.002 23.457 12.9451 23.3493 13.4216L22.3806 17.711C21.986 19.4707 21.5913 21.3037 21.1967 22.7701H23.6364L24.9997 15.9512C29.1974 11.4786 30.8119 10.0122 31.8165 10.0122C32.247 10.0122 32.5699 10.2688 32.6058 10.7821C32.6417 11.5519 32.1394 13.3483 31.9959 13.8616L30.5966 18.8474C30.2737 19.9473 30.0585 20.9738 30.0585 21.707C30.0944 22.8068 30.7402 23.2834 31.7089 23.2834C33.5028 23.2834 34.7943 21.377 35.9424 19.5073L35.6195 18.8841C35.1531 19.654 34.1127 21.2671 33.2516 21.2671C33.0005 21.2671 32.7493 21.0838 32.7134 20.6438C32.6776 20.0573 32.9287 19.1774 33.1081 18.6275L34.6867 12.7984C35.1172 11.1853 35.2966 10.1588 35.2966 9.60891C35.2608 8.50909 34.6508 8.0325 33.6821 8.0325C32.0676 8.0325 29.915 9.24231 25.3944 14.5581H25.3226L25.8967 11.9552C26.2196 10.5254 26.5066 9.059 26.7936 8.0325C25.215 8.61907 22.9905 9.24231 21.5913 9.53559L21.6272 10.3421Z" fill="white"/>
<path d="M3.83174 14.8147C3.97525 18.8108 6.41494 22.0736 9.64395 22.0736C15.8867 22.0736 18.5416 14.2282 18.3623 8.98567C18.2187 4.98964 15.7073 1.72682 12.4783 1.72682C7.1325 1.72682 3.65235 9.53558 3.83174 14.8147ZM0.530975 14.5948C0.315708 7.77586 5.51799 0.810303 13.1241 0.810303C18.1829 0.810303 21.5195 4.25642 21.6989 9.57224C21.95 16.7578 17.0707 23.3567 9.10578 23.3567C4.04701 23.3567 0.746242 19.9106 0.530975 14.5948Z" fill="white"/>
</svg>
